<svg width="183" height="54" viewBox="0 0 183 54" fill="none" xmlns="http://www.w3.org/2000/svg">
<rect width="183" height="54" fill="#F5F5F5"/>
<g clip-path="url(#clip0_0_1)">
<rect width="1440" height="3387" transform="translate(-951 -1826)" fill="white"/>
<rect opacity="0.1" x="-852" y="-177" width="1242" height="587" rx="20" fill="url(#paint0_linear_0_1)"/>
<rect x="-24" y="-29" width="343" height="372" rx="22" fill="white"/>
<path d="M180.54 37.4096C180.54 39.3207 178.991 40.8701 177.08 40.8701H156.244C152.953 40.8701 149.975 39.7447 147.842 37.5562C145.72 39.6115 142.827 40.8762 139.643 40.8652C136.685 40.8554 133.994 39.7361 131.939 37.9069C130.121 39.7337 127.605 40.8652 124.824 40.8652C122.308 40.8652 120.008 39.939 118.247 38.4104C116.485 39.939 114.186 40.8652 111.671 40.8652C110.583 40.8652 109.536 40.6917 108.555 40.3715V40.523C108.555 47.0077 103.298 52.2656 96.8124 52.2656H96.8002C90.3155 52.2656 85.0576 47.009 85.0576 40.523V35.6635C85.0576 33.7524 86.607 32.203 88.5181 32.203C90.4292 32.203 91.9785 33.7524 91.9785 35.6635V40.523C91.9785 43.1856 94.1364 45.3435 96.799 45.3435H96.8112C99.4738 45.3435 101.632 43.1856 101.632 40.523V24.263C101.632 22.352 103.181 20.8026 105.092 20.8026C107.003 20.8026 108.553 22.352 108.553 24.263V30.8272C108.553 32.5476 109.948 33.943 111.668 33.943C113.389 33.943 114.784 32.5476 114.784 30.8272V24.2643C114.784 22.3532 116.334 20.8038 118.245 20.8038C120.156 20.8038 121.705 22.3532 121.705 24.2643V30.8272C121.705 32.5476 123.101 33.943 124.821 33.943C126.542 33.943 127.937 32.5476 127.937 30.8272V24.2643C127.937 22.3532 129.486 20.8038 131.397 20.8038C133.309 20.8038 134.858 22.3532 134.858 24.2643V29.0432C134.858 31.6825 136.945 33.8917 139.583 33.943C142.282 33.9956 144.495 31.8157 144.498 29.1287V20.8429C144.498 18.9318 146.047 17.3824 147.958 17.3824C149.869 17.3824 151.419 18.9318 151.419 20.8429V29.1287C151.419 31.7912 153.576 33.9491 156.239 33.9491H158.513C157.808 32.4181 157.427 30.7123 157.458 28.9185C157.571 22.5414 162.795 17.3873 169.199 17.3873H175.336C177.247 17.3873 178.797 18.9367 178.797 20.8478C178.797 22.7589 177.247 24.3082 175.336 24.3082H169.279C166.706 24.3082 164.524 26.2938 164.386 28.8635C164.236 31.6409 166.453 33.9491 169.199 33.9491H177.075C178.986 33.9491 180.536 35.4985 180.536 37.4096H180.54ZM114.077 11.2411C112.166 11.2411 110.616 12.7905 110.616 14.7015C110.616 16.6126 112.166 18.162 114.077 18.162C115.988 18.162 117.537 16.6126 117.537 14.7015C117.537 12.7905 115.988 11.2411 114.077 11.2411ZM124.859 11.2411C122.948 11.2411 121.399 12.7905 121.399 14.7015C121.399 16.6126 122.948 18.162 124.859 18.162C126.77 18.162 128.32 16.6126 128.32 14.7015C128.32 12.7905 126.77 11.2411 124.859 11.2411ZM136.132 43.1502C134.221 43.1502 132.672 44.6995 132.672 46.6106C132.672 48.5217 134.221 50.0711 136.132 50.0711C138.043 50.0711 139.593 48.5217 139.593 46.6106C139.593 44.6995 138.043 43.1502 136.132 43.1502ZM147.073 43.1502C145.162 43.1502 143.613 44.6995 143.613 46.6106C143.613 48.5217 145.162 50.0711 147.073 50.0711C148.985 50.0711 150.534 48.5217 150.534 46.6106C150.534 44.6995 148.985 43.1502 147.073 43.1502ZM119.597 2.99316C117.686 2.99316 116.137 4.54255 116.137 6.45363C116.137 8.3647 117.686 9.91409 119.597 9.91409C121.509 9.91409 123.058 8.3647 123.058 6.45363C123.058 4.54255 121.509 2.99316 119.597 2.99316Z" fill="#00DAFF"/>
<path d="M183 37.4096C183 39.3207 181.451 40.8701 179.539 40.8701H158.703C155.413 40.8701 152.435 39.7447 150.302 37.5563C148.179 39.6115 145.287 40.8762 142.102 40.8652C139.144 40.8554 136.454 39.7362 134.398 37.907C132.58 39.7337 130.064 40.8652 127.283 40.8652C124.767 40.8652 122.468 39.939 120.707 38.4104C118.945 39.939 116.645 40.8652 114.13 40.8652C113.043 40.8652 111.996 40.6917 111.015 40.3716V40.5231C111.015 47.0078 105.758 52.2657 99.2719 52.2657H99.2597C92.775 52.2657 87.5171 47.009 87.5171 40.5231V35.6635C87.5171 33.7524 89.0665 32.2031 90.9776 32.2031C92.8886 32.2031 94.438 33.7524 94.438 35.6635V40.5231C94.438 43.1856 96.5959 45.3435 99.2585 45.3435H99.2707C101.933 45.3435 104.091 43.1856 104.091 40.5231V24.2631C104.091 22.352 105.641 20.8026 107.552 20.8026C109.463 20.8026 111.012 22.352 111.012 24.2631V30.8272C111.012 32.5476 112.407 33.9431 114.128 33.9431C115.848 33.9431 117.244 32.5476 117.244 30.8272V24.2643C117.244 22.3532 118.793 20.8038 120.704 20.8038C122.615 20.8038 124.165 22.3532 124.165 24.2643V30.8272C124.165 32.5476 125.56 33.9431 127.281 33.9431C129.001 33.9431 130.397 32.5476 130.397 30.8272V24.2643C130.397 22.3532 131.946 20.8038 133.857 20.8038C135.768 20.8038 137.317 22.3532 137.317 24.2643V29.0432C137.317 31.6825 139.404 33.8917 142.043 33.9431C144.742 33.9956 146.955 31.8157 146.957 29.1287V20.8429C146.957 18.9318 148.507 17.3825 150.418 17.3825C152.329 17.3825 153.878 18.9318 153.878 20.8429V29.1287C153.878 31.7913 156.036 33.9492 158.699 33.9492H160.972C160.267 32.4181 159.886 30.7123 159.918 28.9185C160.03 22.5414 165.254 17.3873 171.658 17.3873H177.796C179.707 17.3873 181.256 18.9367 181.256 20.8478C181.256 22.7589 179.707 24.3083 177.796 24.3083H171.739C169.165 24.3083 166.983 26.2939 166.845 28.8636C166.696 31.641 168.912 33.9492 171.658 33.9492H179.535C181.446 33.9492 182.995 35.4986 182.995 37.4096H183ZM115.435 11.2411C113.524 11.2411 111.975 12.7905 111.975 14.7016C111.975 16.6126 113.524 18.162 115.435 18.162C117.346 18.162 118.896 16.6126 118.896 14.7016C118.896 12.7905 117.346 11.2411 115.435 11.2411ZM123.748 11.2411C121.837 11.2411 120.288 12.7905 120.288 14.7016C120.288 16.6126 121.837 18.162 123.748 18.162C125.659 18.162 127.209 16.6126 127.209 14.7016C127.209 12.7905 125.659 11.2411 123.748 11.2411ZM137.492 43.1502C135.581 43.1502 134.032 44.6996 134.032 46.6106C134.032 48.5217 135.581 50.0711 137.492 50.0711C139.403 50.0711 140.953 48.5217 140.953 46.6106C140.953 44.6996 139.403 43.1502 137.492 43.1502ZM145.805 43.1502C143.894 43.1502 142.344 44.6996 142.344 46.6106C142.344 48.5217 143.894 50.0711 145.805 50.0711C147.716 50.0711 149.265 48.5217 149.265 46.6106C149.265 44.6996 147.716 43.1502 145.805 43.1502ZM119.592 4.31897C117.681 4.31897 116.132 5.86836 116.132 7.77943C116.132 9.69051 117.681 11.2399 119.592 11.2399C121.503 11.2399 123.053 9.69051 123.053 7.77943C123.053 5.86836 121.503 4.31897 119.592 4.31897Z" fill="#FF4FD6"/>
<path d="M124.304 11.2851C125.951 11.5515 127.21 12.9787 127.21 14.7016C127.21 16.4245 125.951 17.8517 124.304 18.118C122.657 17.8517 121.398 16.4245 121.398 14.7016C121.398 12.9787 122.657 11.5515 124.304 11.2851ZM119.592 4.31775C117.912 4.31775 116.513 5.51523 116.198 7.10249C116.502 8.7032 117.907 9.91534 119.597 9.91534C121.287 9.91534 122.676 8.71786 122.992 7.1306C122.687 5.52989 121.282 4.31775 119.592 4.31775ZM114.756 18.0948C116.342 17.7796 117.537 16.3793 117.537 14.7004C117.537 13.0214 116.342 11.6224 114.756 11.3059C113.17 11.6211 111.975 13.0214 111.975 14.7004C111.975 16.3793 113.17 17.7784 114.756 18.0948ZM146.439 43.2088C144.831 43.507 143.612 44.9159 143.612 46.6107C143.612 48.3054 144.83 49.7143 146.439 50.0125C148.047 49.7143 149.267 48.3054 149.267 46.6107C149.267 44.9159 148.048 43.507 146.439 43.2088ZM180.539 37.4096C180.539 35.4986 178.99 33.9492 177.079 33.9492H169.202C166.456 33.9492 164.24 31.641 164.389 28.8636C164.527 26.2939 166.709 24.3083 169.283 24.3083H175.34C177.251 24.3083 178.8 22.7589 178.8 20.8478C178.8 18.9367 177.251 17.3873 175.34 17.3873H171.663C165.259 17.3873 160.035 22.5402 159.923 28.9186C159.891 30.7135 160.272 32.4181 160.977 33.9492H156.244C153.581 33.9492 151.423 31.7913 151.423 29.1287V20.8429C151.423 19.3644 150.496 18.1034 149.192 17.6073C147.888 18.1034 146.961 19.3644 146.961 20.8429V29.1287C146.958 31.8157 144.745 33.9956 142.046 33.9431C141.655 33.9357 141.276 33.8795 140.915 33.783C140.492 33.8954 140.046 33.9528 139.587 33.9431C136.948 33.8917 134.861 31.6813 134.861 29.0432V24.2643C134.861 22.7858 133.934 21.526 132.63 21.0287C131.326 21.5247 130.399 22.7858 130.399 24.2643V30.8272C130.399 32.5476 129.004 33.9431 127.283 33.9431C126.846 33.9431 126.43 33.8526 126.053 33.6901C125.675 33.8526 125.26 33.9431 124.822 33.9431C123.102 33.9431 121.706 32.5476 121.706 30.8272V24.2643C121.706 22.7858 120.779 21.526 119.475 21.0287C118.171 21.5247 117.244 22.7858 117.244 24.2643V30.8272C117.244 32.5476 115.848 33.9431 114.128 33.9431C113.691 33.9431 113.275 33.8526 112.897 33.6901C112.52 33.8526 112.104 33.9431 111.667 33.9431C109.947 33.9431 108.551 32.5476 108.551 30.8272V24.2631C108.551 22.7845 107.624 21.5235 106.32 21.0274C105.016 21.5235 104.089 22.7845 104.089 24.2631V40.5231C104.089 43.1856 101.931 45.3435 99.2682 45.3435H99.256C98.8332 45.3435 98.4227 45.2885 98.0317 45.1859C97.6407 45.2885 97.2313 45.3435 96.8073 45.3435H96.7951C94.1325 45.3435 91.9746 43.1856 91.9746 40.5231V35.6635C91.9746 34.185 91.0472 32.924 89.7434 32.4279C88.4396 32.924 87.5122 34.185 87.5122 35.6635V40.5231C87.5122 46.5948 92.1213 51.59 98.0304 52.2021C103.941 51.59 108.549 46.5948 108.549 40.5231V40.3716C109.329 40.6257 110.153 40.787 111.005 40.842C111.007 40.7357 111.01 40.6294 111.01 40.5231V40.3716C111.613 40.5683 112.241 40.7088 112.889 40.7894C114.923 40.5426 116.771 39.6885 118.242 38.4104C118.627 38.7452 119.039 39.0482 119.473 39.3207C119.905 39.047 120.318 38.744 120.703 38.4104C122.174 39.6885 124.023 40.5414 126.057 40.7894C128.344 40.5084 130.392 39.4588 131.935 37.907C132.343 38.2699 132.777 38.6047 133.233 38.9089C133.646 38.6047 134.034 38.2699 134.396 37.907C136.171 39.4881 138.422 40.5377 140.91 40.8004C143.588 40.5194 146 39.3341 147.837 37.5563C148.213 37.9424 148.616 38.2943 149.042 38.6132C149.484 38.2894 149.904 37.9363 150.298 37.5563C152.431 39.7447 155.409 40.8701 158.7 40.8701H177.076C178.987 40.8701 180.537 39.3207 180.537 37.4096H180.539ZM136.812 43.2174C135.226 43.5339 134.03 44.933 134.03 46.6107C134.03 48.2883 135.226 49.6887 136.812 50.0039C138.398 49.6874 139.593 48.2883 139.593 46.6107C139.593 44.933 138.398 43.5326 136.812 43.2174Z" fill="#0857C3"/>
<path d="M61.8557 32.7688C61.8557 46.6155 54.5645 53.4949 47.8171 53.4949C41.8554 53.4949 35.7812 48.909 35.7812 37.7053C35.7812 23.685 47.0583 6.45483 60.8733 6.45483C71.6835 6.45483 78.431 15.7585 78.431 27.1577C78.431 39.8021 70.2588 49.911 69.0796 51.2209C68.4895 51.8758 67.6243 52.0493 66.9657 51.464C66.5148 51.0633 66.2607 50.3448 66.7849 49.6238C67.8981 48.182 73.2549 39.7373 73.2549 29.9095C73.2549 24.6027 70.4848 14.7101 61.593 14.7101C52.7011 14.7101 44.821 25.9297 44.821 36.9196C44.821 39.2779 45.4576 44.0605 48.6676 44.0605C52.205 44.0605 53.3377 36.6569 53.3377 33.1194L61.8545 32.7688H61.8557Z" fill="url(#paint1_radial_0_1)"/>
<path d="M10.0574 31.052C10.5987 27.7528 13.3712 25.3579 16.2794 25.7464C19.2547 26.0702 21.2159 28.9821 20.6746 32.2812C20.1333 35.5169 17.3608 37.9106 14.4526 37.5868C11.4773 37.263 9.5833 34.2876 10.0574 31.052Z" fill="#DF1995"/>
<path d="M31.1429 32.7125C31.5364 23.4174 27.7778 17.6854 27.4723 17.1478C27.1069 16.477 26.265 16.2448 25.5307 16.5417C24.7291 16.901 24.2965 17.8015 24.657 18.6031C25.1287 19.869 26.2198 23.2635 26.2198 28.1768C26.2198 37.5953 20.1237 43.59 14.1266 43.59C8.1294 43.59 4.71415 39.0848 4.71415 33.3223C4.71415 27.5597 7.96566 22.5535 8.31757 21.978C8.67193 21.3377 8.51186 20.4775 7.87157 20.1232C7.23373 19.7028 6.43949 19.8653 6.01915 20.5044C2.88005 24.9607 0 30.5009 0 38.7451C0 46.266 5.57926 53.4949 13.5657 53.4949C23.3777 53.4949 31.1429 43.2186 31.1429 32.7125Z" fill="url(#paint2_linear_0_1)"/>
<path d="M58.5809 0.559084C58.8424 0.886557 58.6469 1.41076 58.4502 1.86898C58.1227 2.58991 57.205 3.83504 55.8951 3.83504C54.5193 3.83504 52.6192 3.11411 51.7675 3.11411C51.2433 3.11411 50.7191 3.24485 50.1949 3.70429C49.9334 3.96578 49.54 3.96578 49.2772 3.83504C48.9498 3.57355 48.9498 2.85262 49.1465 2.32842C49.474 1.47674 50.3256 0.494323 51.5708 0.494323C52.5532 0.494323 55.0435 1.14927 55.8291 1.14927C56.2874 1.14927 56.8116 1.01852 57.3358 0.559084C57.794 0.165628 58.3182 0.297595 58.5809 0.559084Z" fill="#F57046"/>
<path d="M48.6687 44.0616C52.2061 44.0616 53.3388 36.6581 53.3388 33.1206C53.3388 22.0489 46.2982 9.09534 31.8845 9.09534C20.4852 9.09534 14.3573 15.2355 10.3604 19.1664C9.77024 19.6906 8.98455 19.6906 8.39437 19.1004C7.93615 18.6422 7.87017 17.9212 8.26362 17.397C12.7187 10.9111 23.6035 2.93689 34.3478 2.93689C51.2787 2.93689 61.8556 17.0463 61.8556 32.7699C61.8556 46.6167 54.5644 53.496 47.817 53.496L48.6687 44.0616Z" fill="url(#paint3_linear_0_1)"/>
</g>
<defs>
<linearGradient id="paint0_linear_0_1" x1="-817.317" y1="410" x2="-44.3739" y2="-558.308" gradientUnits="userSpaceOnUse">
<stop stop-color="#FFCD01"/>
<stop offset="0.28125" stop-color="#F87F39"/>
<stop offset="0.53125" stop-color="#F05A5A"/>
<stop offset="0.75" stop-color="#EB426F"/>
<stop offset="1" stop-color="#DF1995"/>
</linearGradient>
<radialGradient id="paint1_radial_0_1" cx="0" cy="0" r="1" gradientUnits="userSpaceOnUse" gradientTransform="translate(48.9462 47.6759) scale(26.4031 46.4695)">
<stop stop-color="#FF9B21"/>
<stop offset="0.14" stop-color="#FF9B21"/>
<stop offset="0.7" stop-color="#FFCC00"/>
</radialGradient>
<linearGradient id="paint2_linear_0_1" x1="3.86492" y1="23.7681" x2="24.5715" y2="40.2371" gradientUnits="userSpaceOnUse">
<stop stop-color="#EA426F"/>
<stop offset="0.3" stop-color="#E5307F"/>
<stop offset="0.7" stop-color="#E01F8F"/>
<stop offset="1" stop-color="#DF1995"/>
</linearGradient>
<linearGradient id="paint3_linear_0_1" x1="53.4011" y1="34.1556" x2="23.6768" y2="11.0981" gradientUnits="userSpaceOnUse">
<stop offset="0.15" stop-color="#FF9B21"/>
<stop offset="0.31" stop-color="#FC9129"/>
<stop offset="0.57" stop-color="#F6783F"/>
<stop offset="0.9" stop-color="#ED5062"/>
<stop offset="1" stop-color="#EA426F"/>
</linearGradient>
<clipPath id="clip0_0_1">
<rect width="1440" height="3387" fill="white" transform="translate(-951 -1826)"/>
</clipPath>
</defs>
</svg>
