<?xml version="1.0" encoding="utf-8"?>
<!-- Generator: Adobe Illustrator 27.9.0, SVG Export Plug-In . SVG Version: 6.00 Build 0)  -->
<svg version="1.1" id="Layer_1" xmlns="http://www.w3.org/2000/svg" xmlns:xlink="http://www.w3.org/1999/xlink" x="0px" y="0px"
	 viewBox="0 0 283.46 135" style="enable-background:new 0 0 283.46 135;" xml:space="preserve">
<style type="text/css">
	.st0{fill:#FFFFFF;}
</style>
<g>
	<g>
		<path class="st0" d="M61.04,33.38c0,1.12-0.29,2.08-0.87,2.91c-0.58,0.82-1.24,1.48-1.96,1.96c-1.21-0.82-2.58-1.55-4.11-2.18
			c-1.53-0.63-3.33-0.94-5.41-0.94c-2.57,0-4.8,0.56-6.69,1.67c-1.89,1.11-3.33,2.74-4.32,4.87c-0.99,2.13-1.49,4.72-1.49,7.78
			c0,4.65,1.16,8.19,3.49,10.61c2.33,2.42,5.52,3.63,9.59,3.63c2.08,0,3.88-0.29,5.38-0.87c1.5-0.58,2.88-1.24,4.14-1.96
			c0.73,0.53,1.32,1.22,1.78,2.07c0.46,0.85,0.69,1.83,0.69,2.94c0,0.97-0.25,1.87-0.76,2.69c-0.51,0.82-1.37,1.53-2.58,2.11
			c-0.92,0.48-2.23,0.94-3.92,1.38c-1.7,0.44-3.75,0.65-6.18,0.65c-4.26,0-8.15-0.84-11.66-2.51c-3.51-1.67-6.29-4.21-8.32-7.63
			c-2.03-3.42-3.05-7.79-3.05-13.12c0-5.04,1-9.29,3.02-12.75c2.01-3.46,4.71-6.09,8.1-7.88c3.39-1.79,7.14-2.69,11.26-2.69
			c2.86,0,5.33,0.33,7.41,0.98c2.08,0.65,3.68,1.53,4.8,2.62C60.48,30.8,61.04,32.03,61.04,33.38z"/>
		<path class="st0" d="M99.11,54.02c0,3.78-0.76,7.06-2.29,9.85c-1.53,2.79-3.67,4.93-6.43,6.43c-2.76,1.5-6.01,2.25-9.74,2.25
			c-3.68,0-6.92-0.74-9.7-2.22c-2.79-1.48-4.94-3.61-6.47-6.39c-1.53-2.79-2.29-6.09-2.29-9.92c0-3.83,0.77-7.11,2.33-9.85
			c1.55-2.74,3.72-4.87,6.5-6.39c2.79-1.53,6-2.29,9.63-2.29c3.68,0,6.9,0.76,9.66,2.29c2.76,1.53,4.92,3.68,6.47,6.47
			C98.34,47.03,99.11,50.29,99.11,54.02z M80.66,43.99c-2.28,0-4.08,0.87-5.41,2.62c-1.33,1.74-2,4.21-2,7.41
			c0,3.25,0.65,5.73,1.96,7.45c1.31,1.72,3.13,2.58,5.45,2.58s4.14-0.87,5.45-2.62c1.31-1.74,1.96-4.21,1.96-7.41
			c0-3.15-0.65-5.61-1.96-7.38C84.8,44.88,82.98,43.99,80.66,43.99z"/>
		<path class="st0" d="M135.23,48.86v6.83H124.4v-6.47c0-1.79-0.52-3.11-1.56-3.96c-1.04-0.85-2.41-1.27-4.11-1.27
			c-1.21,0-2.33,0.16-3.34,0.47c-1.02,0.32-1.94,0.69-2.76,1.13v10.1h-10.75V44.36c0-1.21,0.25-2.22,0.76-3.02
			c0.51-0.8,1.25-1.51,2.22-2.14c1.55-1.07,3.54-1.95,5.96-2.65c2.42-0.7,5.09-1.05,7.99-1.05c5.23,0,9.28,1.15,12.14,3.45
			C133.8,41.24,135.23,44.55,135.23,48.86z M101.88,52.35h10.75v19.04c-0.48,0.15-1.16,0.28-2.03,0.4
			c-0.87,0.12-1.82,0.18-2.83,0.18c-2.03,0-3.52-0.36-4.47-1.09c-0.94-0.73-1.42-2.03-1.42-3.92V52.35z M124.4,52.35h10.83v19.04
			c-0.49,0.15-1.16,0.28-2.03,0.4c-0.87,0.12-1.82,0.18-2.83,0.18c-2.03,0-3.54-0.36-4.51-1.09c-0.97-0.73-1.45-2.03-1.45-3.92
			V52.35z"/>
		<path class="st0" d="M150.42,54.09h-10.68V28.01c0.48-0.15,1.16-0.3,2.03-0.47c0.87-0.17,1.79-0.25,2.76-0.25
			c2.08,0,3.58,0.36,4.5,1.09c0.92,0.73,1.38,2.06,1.38,4V54.09z M139.73,52.28h10.68v7.77c0,1.36,0.44,2.35,1.31,2.98
			c0.87,0.63,2.11,0.94,3.71,0.94c0.73,0,1.51-0.08,2.36-0.25c0.85-0.17,1.56-0.38,2.14-0.62c0.39,0.44,0.74,0.97,1.05,1.6
			c0.31,0.63,0.47,1.36,0.47,2.18c0,1.65-0.68,3-2.04,4.07c-1.36,1.07-3.63,1.6-6.83,1.6c-4.07,0-7.23-0.92-9.48-2.76
			c-2.25-1.84-3.38-4.84-3.38-9.01V52.28z M146.56,45.66v-8.28h13.95c0.24,0.39,0.48,0.94,0.73,1.67c0.24,0.73,0.36,1.53,0.36,2.4
			c0,1.45-0.33,2.52-0.98,3.2c-0.65,0.68-1.54,1.02-2.65,1.02H146.56z"/>
		<path class="st0" d="M168.58,59.11l-0.44-7.27l18.02-2.83c-0.1-1.36-0.68-2.62-1.74-3.78c-1.07-1.16-2.64-1.74-4.72-1.74
			c-2.18,0-4,0.74-5.45,2.22c-1.45,1.48-2.23,3.57-2.32,6.29l0.36,5.01c0.44,2.66,1.57,4.57,3.42,5.7c1.84,1.14,4.02,1.71,6.54,1.71
			c2.03,0,3.95-0.29,5.74-0.87c1.79-0.58,3.25-1.19,4.36-1.82c0.73,0.44,1.32,1.04,1.78,1.82c0.46,0.78,0.69,1.6,0.69,2.47
			c0,1.45-0.57,2.66-1.71,3.63c-1.14,0.97-2.71,1.7-4.72,2.18c-2.01,0.48-4.3,0.73-6.87,0.73c-3.73,0-7.08-0.7-10.06-2.11
			c-2.98-1.4-5.32-3.51-7.01-6.32c-1.7-2.81-2.54-6.32-2.54-10.54c0-3.1,0.5-5.79,1.49-8.07c0.99-2.28,2.33-4.15,4-5.63
			c1.67-1.48,3.56-2.58,5.67-3.31c2.11-0.73,4.3-1.09,6.58-1.09c3.34,0,6.26,0.67,8.76,2c2.49,1.33,4.44,3.14,5.85,5.41
			c1.4,2.28,2.11,4.92,2.11,7.92c0,1.5-0.41,2.64-1.23,3.42c-0.82,0.78-1.96,1.26-3.42,1.45L168.58,59.11z"/>
		<path class="st0" d="M232.31,48.86v6.83h-10.83v-6.47c0-1.79-0.52-3.11-1.56-3.96c-1.04-0.85-2.41-1.27-4.11-1.27
			c-1.21,0-2.32,0.16-3.34,0.47c-1.02,0.32-1.94,0.69-2.76,1.13v10.1h-10.75V44.36c0-1.21,0.25-2.22,0.76-3.02
			c0.51-0.8,1.25-1.51,2.22-2.14c1.55-1.07,3.54-1.95,5.96-2.65c2.42-0.7,5.09-1.05,7.99-1.05c5.23,0,9.28,1.15,12.14,3.45
			C230.88,41.24,232.31,44.55,232.31,48.86z M198.96,52.35h10.75v19.04c-0.49,0.15-1.16,0.28-2.04,0.4
			c-0.87,0.12-1.82,0.18-2.83,0.18c-2.03,0-3.52-0.36-4.47-1.09c-0.95-0.73-1.42-2.03-1.42-3.92V52.35z M221.48,52.35h10.83v19.04
			c-0.48,0.15-1.16,0.28-2.03,0.4c-0.87,0.12-1.82,0.18-2.83,0.18c-2.03,0-3.54-0.36-4.5-1.09c-0.97-0.73-1.45-2.03-1.45-3.92V52.35
			z"/>
		<path class="st0" d="M247.5,54.09h-10.68V28.01c0.48-0.15,1.16-0.3,2.03-0.47c0.87-0.17,1.79-0.25,2.76-0.25
			c2.08,0,3.58,0.36,4.5,1.09c0.92,0.73,1.38,2.06,1.38,4V54.09z M236.81,52.28h10.68v7.77c0,1.36,0.44,2.35,1.31,2.98
			c0.87,0.63,2.11,0.94,3.71,0.94c0.73,0,1.51-0.08,2.36-0.25c0.85-0.17,1.56-0.38,2.14-0.62c0.39,0.44,0.74,0.97,1.05,1.6
			c0.31,0.63,0.47,1.36,0.47,2.18c0,1.65-0.68,3-2.04,4.07c-1.36,1.07-3.63,1.6-6.83,1.6c-4.07,0-7.23-0.92-9.48-2.76
			c-2.25-1.84-3.38-4.84-3.38-9.01V52.28z M243.64,45.66v-8.28h13.95c0.24,0.39,0.48,0.94,0.73,1.67c0.24,0.73,0.36,1.53,0.36,2.4
			c0,1.45-0.33,2.52-0.98,3.2c-0.65,0.68-1.54,1.02-2.65,1.02H243.64z"/>
	</g>
	<g>
		<path class="st0" d="M29.62,86.83h-3.19v-9.85c0.13-0.05,0.34-0.11,0.62-0.18c0.28-0.07,0.58-0.1,0.9-0.1
			c0.56,0,0.98,0.11,1.26,0.34c0.28,0.23,0.42,0.59,0.42,1.1V86.83z M34.56,83.87c1.65,0,3.13,0.35,4.45,1.06
			c1.32,0.71,2.35,1.78,3.11,3.21c0.76,1.44,1.14,3.26,1.14,5.46c0,2.23-0.39,4.07-1.18,5.5c-0.78,1.44-1.87,2.5-3.25,3.19
			c-1.38,0.69-2.99,1.04-4.83,1.04c-1.3,0-2.48-0.16-3.53-0.48c-1.05-0.32-1.91-0.66-2.57-1.04c-0.56-0.37-0.94-0.72-1.16-1.04
			c-0.21-0.32-0.32-0.76-0.32-1.32V86.19h3.19v13.28c0.4,0.29,0.98,0.57,1.75,0.84c0.77,0.27,1.65,0.4,2.63,0.4
			c1.81,0,3.26-0.57,4.37-1.71c1.1-1.14,1.66-2.94,1.66-5.38c0-2.47-0.56-4.27-1.68-5.4c-1.12-1.13-2.54-1.7-4.27-1.7
			c-1.06,0-2.01,0.21-2.83,0.62c-0.82,0.41-1.5,0.88-2.03,1.42l-0.6-2.59c0.58-0.45,1.37-0.91,2.35-1.38
			C31.96,84.11,33.15,83.87,34.56,83.87z"/>
		<path class="st0" d="M50,98.71c-0.45-0.85-1-2-1.64-3.45c-0.64-1.45-1.3-3.07-1.97-4.87c-0.68-1.79-1.32-3.62-1.93-5.48
			c0.19-0.27,0.43-0.48,0.74-0.64c0.31-0.16,0.63-0.24,0.98-0.24c0.45,0,0.82,0.12,1.12,0.36c0.29,0.24,0.53,0.64,0.72,1.2
			c0.8,2.23,1.64,4.45,2.51,6.66c0.88,2.21,1.85,4.49,2.91,6.86h0.16c0.56-1.12,1.14-2.51,1.75-4.19c0.61-1.67,1.2-3.44,1.75-5.3
			c0.56-1.86,1.02-3.62,1.4-5.26c0.19-0.08,0.39-0.15,0.62-0.22c0.23-0.07,0.47-0.1,0.74-0.1c0.45,0,0.82,0.11,1.12,0.34
			c0.29,0.23,0.44,0.57,0.44,1.02c0,0.43-0.12,1.14-0.36,2.13c-0.24,1-0.57,2.15-0.98,3.47c-0.41,1.32-0.89,2.71-1.44,4.19
			c-0.55,1.48-1.13,2.93-1.75,4.35c-0.63,1.42-1.26,2.71-1.89,3.85c-1.22,2.26-2.34,3.99-3.35,5.21c-1.01,1.21-1.94,1.81-2.79,1.81
			c-0.61,0-1.08-0.16-1.42-0.48c-0.33-0.32-0.54-0.69-0.62-1.12c0.58-0.51,1.24-1.18,1.97-2.01c0.73-0.84,1.44-1.74,2.11-2.71
			c0.68-0.97,1.23-1.89,1.66-2.77c-0.45-0.13-0.87-0.37-1.26-0.72C50.91,100.24,50.48,99.62,50,98.71z"/>
		<path class="st0" d="M76.01,99.67v-13.4l3.19-0.04v13.56c0,0.51-0.11,0.91-0.34,1.22c-0.23,0.31-0.58,0.61-1.06,0.9
			c-0.53,0.35-1.25,0.67-2.15,0.98c-0.9,0.31-1.99,0.46-3.27,0.46c-1.91,0-3.62-0.33-5.13-1c-1.5-0.66-2.69-1.71-3.55-3.13
			c-0.86-1.42-1.3-3.26-1.3-5.52c0-2.31,0.41-4.19,1.22-5.62c0.81-1.44,1.91-2.49,3.29-3.17c1.38-0.68,2.9-1.02,4.55-1.02
			c1.04,0,2.02,0.15,2.95,0.44c0.93,0.29,1.66,0.65,2.19,1.08v2.95c-0.51-0.5-1.16-0.94-1.97-1.3c-0.81-0.36-1.76-0.54-2.85-0.54
			c-1.09,0-2.1,0.23-3.03,0.7c-0.93,0.47-1.67,1.23-2.23,2.29c-0.56,1.06-0.84,2.49-0.84,4.27c0,2.42,0.58,4.18,1.75,5.29
			c1.17,1.1,2.73,1.66,4.67,1.66c0.93,0,1.7-0.1,2.29-0.3C74.99,100.21,75.53,99.96,76.01,99.67z M79.2,87.03l-3.19,0.04V76.97
			c0.13-0.05,0.34-0.11,0.62-0.18c0.28-0.07,0.56-0.1,0.86-0.1c0.58,0,1.02,0.11,1.3,0.34c0.28,0.23,0.42,0.59,0.42,1.1V87.03z"/>
		<path class="st0" d="M84.42,95.64l-0.16-2.51l12.05-1.63c-0.11-1.46-0.61-2.67-1.52-3.61c-0.9-0.94-2.15-1.42-3.75-1.42
			c-1.65,0-3.01,0.59-4.09,1.77c-1.08,1.18-1.62,2.88-1.62,5.09v0.88c0.19,2.13,0.88,3.74,2.09,4.85c1.21,1.1,2.86,1.66,4.97,1.66
			c1.12,0,2.13-0.19,3.03-0.56c0.9-0.37,1.62-0.77,2.15-1.2c0.29,0.19,0.52,0.41,0.7,0.66c0.17,0.25,0.26,0.54,0.26,0.86
			c0,0.51-0.29,0.98-0.86,1.42c-0.57,0.44-1.33,0.79-2.27,1.06c-0.94,0.27-2,0.4-3.17,0.4c-2.05,0-3.82-0.37-5.32-1.12
			c-1.5-0.74-2.66-1.85-3.47-3.33c-0.81-1.48-1.22-3.28-1.22-5.4c0-1.52,0.22-2.86,0.66-4.05c0.44-1.18,1.05-2.19,1.84-3.01
			c0.78-0.82,1.72-1.46,2.81-1.89c1.09-0.44,2.27-0.66,3.55-0.66c1.62,0,3.05,0.35,4.29,1.04c1.24,0.69,2.21,1.66,2.91,2.89
			s1.06,2.65,1.06,4.25c0,0.59-0.13,1-0.4,1.26c-0.27,0.25-0.64,0.41-1.12,0.46L84.42,95.64z"/>
		<path class="st0" d="M114.97,97.91c0,1.7-0.63,3.03-1.87,3.99c-1.25,0.96-3.06,1.44-5.42,1.44c-2.02,0-3.67-0.31-4.95-0.94
			c-1.28-0.62-1.91-1.31-1.91-2.05c0-0.32,0.09-0.63,0.26-0.94c0.17-0.31,0.43-0.55,0.78-0.74c0.72,0.51,1.56,0.97,2.51,1.4
			c0.96,0.43,2.05,0.64,3.27,0.64c2.77,0,4.15-0.93,4.15-2.79c0-0.77-0.23-1.4-0.7-1.89c-0.47-0.49-1.15-0.84-2.05-1.06l-3.31-0.88
			c-1.62-0.4-2.81-1.02-3.55-1.85c-0.74-0.84-1.12-1.88-1.12-3.13c0-1.41,0.57-2.63,1.71-3.67c1.14-1.04,2.88-1.56,5.23-1.56
			c1.25,0,2.34,0.13,3.27,0.38c0.93,0.25,1.66,0.59,2.17,1c0.52,0.41,0.78,0.86,0.78,1.34c0,0.35-0.09,0.65-0.26,0.92
			c-0.17,0.27-0.41,0.47-0.7,0.6c-0.32-0.21-0.72-0.45-1.22-0.7c-0.49-0.25-1.07-0.46-1.74-0.64c-0.67-0.17-1.4-0.26-2.19-0.26
			c-1.17,0-2.11,0.23-2.83,0.68c-0.72,0.45-1.08,1.09-1.08,1.91c0,0.58,0.21,1.1,0.62,1.54c0.41,0.44,1.07,0.76,1.97,0.98l2.75,0.68
			c1.81,0.43,3.16,1.1,4.07,2.01C114.52,95.22,114.97,96.43,114.97,97.91z"/>
		<path class="st0" d="M117.53,78.57c0-0.56,0.2-1.03,0.6-1.42c0.4-0.39,0.89-0.58,1.48-0.58c0.61,0,1.1,0.19,1.48,0.58
			c0.37,0.39,0.56,0.86,0.56,1.42c0,0.56-0.19,1.03-0.56,1.42c-0.37,0.39-0.86,0.58-1.48,0.58c-0.58,0-1.08-0.19-1.48-0.58
			C117.73,79.6,117.53,79.13,117.53,78.57z M121.2,93.85H118v-9.37c0.13-0.05,0.34-0.11,0.62-0.18c0.28-0.07,0.58-0.1,0.9-0.1
			c0.56,0,0.98,0.11,1.26,0.34c0.28,0.23,0.42,0.6,0.42,1.14V93.85z M118,92.29h3.19v10.45c-0.13,0.05-0.33,0.11-0.6,0.18
			c-0.27,0.07-0.56,0.1-0.88,0.1c-0.56,0-0.98-0.11-1.28-0.34c-0.29-0.23-0.44-0.59-0.44-1.1V92.29z"/>
		<path class="st0" d="M133.08,102.26c-1.54,0-2.97-0.3-4.27-0.9c-1.3-0.6-2.35-1.58-3.15-2.93c-0.8-1.36-1.2-3.15-1.2-5.38
			c0-2.02,0.39-3.71,1.18-5.07c0.78-1.36,1.87-2.38,3.25-3.07c1.38-0.69,2.96-1.04,4.75-1.04c1.22,0,2.35,0.15,3.37,0.46
			c1.02,0.31,1.88,0.68,2.57,1.14c0.4,0.27,0.72,0.57,0.98,0.9c0.25,0.33,0.38,0.74,0.38,1.22v12.32h-3.19V87.62
			c-0.45-0.29-1.02-0.55-1.69-0.78c-0.68-0.23-1.48-0.34-2.41-0.34c-1.78,0-3.22,0.54-4.31,1.64c-1.09,1.09-1.64,2.71-1.64,4.87
			c0,2.39,0.55,4.1,1.66,5.11c1.1,1.01,2.47,1.52,4.09,1.52c1.17,0,2.11-0.2,2.83-0.6c0.72-0.4,1.29-0.84,1.71-1.32l0.16,2.83
			c-0.4,0.43-1.03,0.82-1.89,1.18C135.39,102.08,134.33,102.26,133.08,102.26z M137.75,103.42v-4.19h3.19v4.39
			c0,1.75-0.38,3.16-1.14,4.23c-0.76,1.06-1.79,1.83-3.11,2.31c-1.32,0.48-2.8,0.72-4.45,0.72c-1.33,0-2.47-0.15-3.43-0.44
			c-0.96-0.29-1.61-0.53-1.95-0.72c-0.8-0.45-1.2-1.02-1.2-1.71c0-0.37,0.09-0.69,0.26-0.94c0.17-0.25,0.39-0.45,0.66-0.58
			c0.56,0.42,1.35,0.82,2.37,1.18c1.02,0.36,2.12,0.54,3.29,0.54c1.78,0,3.14-0.39,4.09-1.16
			C137.28,106.28,137.75,105.07,137.75,103.42z"/>
		<path class="st0" d="M160.8,90.66v4.07h-3.19v-3.91c0-1.49-0.42-2.58-1.26-3.27c-0.84-0.69-1.96-1.04-3.37-1.04
			c-1.06,0-2.01,0.13-2.83,0.4c-0.82,0.27-1.53,0.57-2.11,0.92v6.9h-3.19v-6.74c0-0.56,0.11-1.02,0.34-1.38
			c0.23-0.36,0.62-0.71,1.18-1.06c0.69-0.4,1.61-0.78,2.75-1.14c1.14-0.36,2.43-0.54,3.87-0.54c2.42,0,4.33,0.55,5.72,1.66
			C160.11,86.63,160.8,88.34,160.8,90.66z M144.85,92.53h3.19v10.21c-0.13,0.05-0.33,0.11-0.6,0.18c-0.27,0.07-0.56,0.1-0.88,0.1
			c-0.56,0-0.98-0.11-1.28-0.34c-0.29-0.23-0.44-0.59-0.44-1.1V92.53z M157.61,92.53h3.19v10.21c-0.13,0.05-0.34,0.11-0.62,0.18
			c-0.28,0.07-0.57,0.1-0.86,0.1c-0.59,0-1.02-0.11-1.3-0.34c-0.28-0.23-0.42-0.59-0.42-1.1V92.53z"/>
	</g>
</g>
</svg>
