<svg width="126" height="126" viewBox="0 0 126 126" fill="none" xmlns="http://www.w3.org/2000/svg">
<path d="M120.093 86.6245H41.3428C40.2555 86.6245 39.374 85.743 39.374 84.6563V72.8434C39.374 71.7561 40.2555 70.8746 41.3428 70.8746C42.4302 70.8746 43.3117 71.7561 43.3117 72.8434V82.6875H118.124V11.8126H43.3117V41.3436C43.3117 42.4309 42.4302 43.3124 41.3428 43.3124C40.2555 43.3124 39.374 42.4309 39.374 41.3436V9.84382C39.374 8.75649 40.2555 7.875 41.3428 7.875H120.093C121.18 7.875 122.062 8.75649 122.062 9.84382V84.6563C122.062 85.743 121.18 86.6245 120.093 86.6245Z" fill="#DF1995"/>
<mask id="mask0_67_54" style="mask-type:luminance" maskUnits="userSpaceOnUse" x="51" y="0" width="5" height="12">
<path d="M51.0342 0H55.1252V11.8736H51.0342V0Z" fill="white"/>
</mask>
<g mask="url(#mask0_67_54)">
<path d="M53.1563 11.8129C52.0696 11.8129 51.1875 10.9314 51.1875 9.84409V1.96882C51.1875 0.881494 52.0696 0 53.1563 0C54.2436 0 55.1251 0.881494 55.1251 1.96882V9.84409C55.1251 10.9314 54.2436 11.8129 53.1563 11.8129Z" fill="#DF1995"/>
</g>
<mask id="mask1_67_54" style="mask-type:luminance" maskUnits="userSpaceOnUse" x="106" y="0" width="5" height="12">
<path d="M106.181 0H110.272V11.8736H106.181V0Z" fill="white"/>
</mask>
<g mask="url(#mask1_67_54)">
<path d="M108.281 11.8129C107.194 11.8129 106.312 10.9314 106.312 9.84409V1.96882C106.312 0.881494 107.194 0 108.281 0C109.369 0 110.25 0.881494 110.25 1.96882V9.84409C110.25 10.9314 109.369 11.8129 108.281 11.8129Z" fill="#DF1995"/>
</g>
<mask id="mask2_67_54" style="mask-type:luminance" maskUnits="userSpaceOnUse" x="35" y="0" width="91" height="5">
<path d="M35.3252 0H125.971V4.01882H35.3252V0Z" fill="white"/>
</mask>
<g mask="url(#mask2_67_54)">
<path d="M124.032 3.93764H37.4073C36.32 3.93764 35.4385 3.05614 35.4385 1.96882C35.4385 0.881494 36.32 0 37.4073 0H124.032C125.119 0 126.001 0.881494 126.001 1.96882C126.001 3.05614 125.119 3.93764 124.032 3.93764Z" fill="#DF1995"/>
</g>
<path d="M29.5312 126C29.0274 126 28.5231 125.808 28.1389 125.424L15.7494 113.034L3.36057 125.424C2.59158 126.193 1.34509 126.193 0.576742 125.424C-0.192247 124.655 -0.192247 123.409 0.576742 122.639L14.3578 108.858C15.1268 108.09 16.3733 108.09 17.1417 108.858L30.9234 122.639C31.6924 123.409 31.6924 124.655 30.9234 125.424C30.5386 125.808 30.0349 126 29.5312 126Z" fill="#DF1995"/>
<path d="M15.7494 126C14.6627 126 13.7812 125.118 13.7812 124.031V57.0938C13.7812 56.0065 14.6627 55.125 15.7494 55.125C16.8368 55.125 17.7182 56.0065 17.7182 57.0938V124.031C17.7182 125.118 16.8368 126 15.7494 126Z" fill="#DF1995"/>
<path d="M37.4058 70.8752H27.5623C19.9632 70.8752 13.7812 64.6932 13.7812 57.0941C13.7812 49.4949 19.9632 43.313 27.5623 43.313H37.4058C38.4931 43.313 39.3746 44.1945 39.3746 45.2818V68.9063C39.3746 69.9937 38.4931 70.8752 37.4058 70.8752ZM27.5623 47.2506C22.1347 47.2506 17.7182 51.6664 17.7182 57.0941C17.7182 62.5217 22.1347 66.9382 27.5623 66.9382H35.437V47.2506H27.5623Z" fill="#DF1995"/>
<path d="M45.2806 74.8124H37.4053C36.318 74.8124 35.4365 73.931 35.4365 72.8436V41.3438C35.4365 40.2565 36.318 39.375 37.4053 39.375H45.2806C46.3679 39.375 47.2494 40.2565 47.2494 41.3438V72.8436C47.2494 73.931 46.3679 74.8124 45.2806 74.8124ZM39.3742 70.8748H43.3118V43.3126H39.3742V70.8748Z" fill="#DF1995"/>
<path d="M112.218 126C111.131 126 110.249 125.118 110.249 124.031V75.8154L95.36 64.9856C94.4804 64.3464 94.2861 63.1152 94.9253 62.2356C95.5652 61.3567 96.797 61.1617 97.6753 61.8016L113.376 73.2201C113.885 73.5909 114.187 74.1828 114.187 74.8124V124.031C114.187 125.118 113.306 126 112.218 126Z" fill="#DF1995"/>
<path d="M88.5549 78.6218C88.195 78.6218 87.8358 78.5234 87.5181 78.3265L79.15 73.1424C70.8445 67.9966 68.2741 57.0537 73.4199 48.7489C75.9123 44.7249 79.8231 41.9136 84.43 40.8314C89.0369 39.7485 93.7908 40.5258 97.8141 43.0182L106.182 48.2023C106.816 48.5954 107.173 49.3127 107.105 50.0548C107.037 50.7976 106.556 51.4381 105.861 51.7098L102.653 52.9639L102.959 56.3946C103.037 57.2659 102.53 58.0841 101.715 58.4031L98.5064 59.6573L98.8119 63.088C98.8893 63.9593 98.383 64.7775 97.568 65.0964L94.3584 66.3506L94.664 69.7832C94.742 70.6545 94.2351 71.4727 93.42 71.7911L90.2099 73.0465L90.5154 76.4791C90.5819 77.2219 90.2226 77.9379 89.5872 78.3291C89.2715 78.5247 88.9129 78.6218 88.5549 78.6218ZM88.5076 44.2941C87.4503 44.2941 86.3854 44.4162 85.3306 44.6642C81.7465 45.5061 78.7057 47.6929 76.7669 50.8219C72.7647 57.2819 74.7642 65.7932 81.2236 69.7954L86.2447 72.9059L86.1572 71.9247C86.0804 71.0534 86.5867 70.2352 87.4017 69.9168L90.6113 68.6614L90.3057 65.2294C90.2284 64.3575 90.7353 63.5399 91.5503 63.2209L94.7592 61.9668L94.453 58.5361C94.3757 57.6641 94.882 56.8459 95.6976 56.5276L98.9059 55.2734L98.6003 51.8421C98.5224 50.9708 99.0299 50.1526 99.8449 49.8336L100.761 49.4757L95.7404 46.3652C93.5319 44.9972 91.0415 44.2941 88.5076 44.2941Z" fill="#DF1995"/>
<path d="M95.6104 65.717C95.2058 65.717 94.7986 65.593 94.4477 65.336L70.9408 48.0993C70.0637 47.4562 69.8739 46.2244 70.5169 45.3474C71.16 44.471 72.3918 44.2812 73.2688 44.9242L96.7757 62.1603C97.6528 62.8034 97.8426 64.0358 97.1995 64.9122C96.8135 65.4383 96.2158 65.717 95.6104 65.717Z" fill="#DF1995"/>
<path d="M92.5308 110.25H70.8744C69.7877 110.25 68.9062 109.368 68.9062 108.281C68.9062 107.194 69.7877 106.312 70.8744 106.312H90.562V98.4376H70.8744C69.7877 98.4376 68.9062 97.5561 68.9062 96.4688C68.9062 95.3815 69.7877 94.5 70.8744 94.5H92.5308C93.6181 94.5 94.4996 95.3815 94.4996 96.4688V108.281C94.4996 109.368 93.6181 110.25 92.5308 110.25Z" fill="#DF1995"/>
<path d="M88.5935 126H80.7188C79.6315 126 78.75 125.119 78.75 124.031V108.281C78.75 107.194 79.6315 106.312 80.7188 106.312C81.8061 106.312 82.6876 107.194 82.6876 108.281V122.062H86.6253V108.281C86.6253 107.194 87.5068 106.312 88.5935 106.312C89.6808 106.312 90.5623 107.194 90.5623 108.281V124.031C90.5623 125.119 89.6808 126 88.5935 126Z" fill="#DF1995"/>
<path d="M98.4378 104.344H92.5313C91.444 104.344 90.5625 103.462 90.5625 102.376C90.5625 101.288 91.444 100.407 92.5313 100.407H98.4378C99.5251 100.407 100.407 101.288 100.407 102.376C100.407 103.462 99.5251 104.344 98.4378 104.344Z" fill="#DF1995"/>
<path d="M62.9992 114.187H61.0303C59.943 114.187 59.0615 113.306 59.0615 112.218V92.5308C59.0615 91.4435 59.943 90.562 61.0303 90.562H62.9992C69.5129 90.562 74.8114 95.8612 74.8114 102.375C74.8114 108.888 69.5129 114.187 62.9992 114.187ZM62.9992 94.4996V110.25C67.3414 110.25 70.8738 106.717 70.8738 102.375C70.8738 98.032 67.3414 94.4996 62.9992 94.4996Z" fill="#DF1995"/>
<path d="M61.0305 104.344H55.1241C54.0368 104.344 53.1553 103.462 53.1553 102.376C53.1553 101.288 54.0368 100.407 55.1241 100.407H61.0305C62.1179 100.407 62.9994 101.288 62.9994 102.376C62.9994 103.462 62.1179 104.344 61.0305 104.344Z" fill="#DF1995"/>
</svg>
