<?xml version="1.0" encoding="UTF-8"?>
<svg id="Layer_1" data-name="Layer 1" xmlns="http://www.w3.org/2000/svg" viewBox="0 0 1893.98 703.05">
  <defs>
    <style>
      .cls-1 {
        fill: #fff;
        stroke-width: 0px;
      }
    </style>
  </defs>
  <path class="cls-1" d="M205.22,427.05c81.26,0,143.54-42.7,165.48-87.78,10.08-18.98-6.52-35.59-20.76-20.17-31.44,33.81-67.03,55.16-116.26,55.16-93.12,0-148.28-87.19-148.28-189.8,0-81.26,45.67-144.72,121.59-144.72,52.19,0,86.59,34.4,113.88,74.14,11.86,17.79,17.2,27.28,29.66,26.09,13.05-1.18,16.01-10.67,13.64-26.69-5.34-35.59-11.86-60.5-18.39-81.26-7.11-25.51-13.64-31.44-24.32-31.44-13.64,0-17.79,9.49-32.62,9.49S253.26,0,216.49,0C93.71,0,0,99.05,0,221.83s84.22,205.22,205.22,205.22Z"/>
  <path class="cls-1" d="M488.69,427.05c94.3,0,162.51-67.61,162.51-157.18,0-78.89-56.34-139.39-138.19-139.39-94.31,0-163.7,70.58-163.7,159.55,0,84.22,60.5,137.01,139.39,137.01ZM514.19,387.9c-51.01,0-86.59-66.43-86.59-135.82,0-42.11,16.02-82.45,58.72-82.45,51.01,0,86,72.95,86,141.76,0,40.93-17.79,76.52-58.13,76.52Z"/>
  <path class="cls-1" d="M937.64,252.67c-15.42-78.29-40.93-122.18-108.54-122.18-37.96,0-74.14,18.39-96.68,53.97v-35.58c0-11.86-4.15-17.8-14.23-17.8-9.49.59-46.27,11.27-68.21,21.95-14.23,6.52-18.98,10.68-18.98,20.17,0,8.3,5.34,12.45,11.27,16.6,11.86,8.9,18.39,19.57,18.39,36.18v112.69c0,55.16-29.66,41.52-29.66,67.02,0,11.86,10.68,15.42,27.28,15.42h84.82c16.6,0,26.1-2.96,26.1-14.83,0-26.1-28.47-12.45-28.47-67.61v-75.92c0-52.19,28.47-80.66,59.91-80.66,39.15-.59,50.42,36.18,57.53,73.55l18.39,93.71c7.71,38.55-23.14,36.77-23.14,56.34,0,11.86,10.08,15.42,26.69,15.42h83.04c16.02,0,26.1-2.96,26.1-14.83,0-20.76-23.73-16.02-31.44-52.19l-20.17-101.43Z"/>
  <path class="cls-1" d="M1130.96,354.09c-12.45,9.49-27.28,17.2-42.7,17.2-26.69,0-34.99-16.02-34.4-68.8.59-53.97.59-94.3.59-126.93l51.01,1.78c11.86.59,21.95-2.38,25.51-20.17s-5.93-20.76-17.2-20.76h-58.72c.59-18.39,1.18-34.4,2.96-50.42.59-8.9-4.74-16.6-13.05-16.6-3.56,0-8.31.59-21.95,8.3-24.32,14.83-52.79,37.96-74.73,60.5-6.52,5.93-8.9,13.05-8.9,20.17,0,10.08,4.74,15.42,20.76,15.42h16.02c-1.19,30.84-1.78,75.92-1.78,128.7v30.84c0,60.5,30.84,93.71,84.22,93.71,49.82,0,80.66-33.81,89.56-60.5,4.15-12.45-5.93-20.76-17.2-12.45Z"/>
  <path class="cls-1" d="M1380.64,330.37c-21.35,20.76-50.41,39.15-86.59,39.15-45.67,0-72.95-26.69-85.41-53.97,61.68-22.54,109.72-40.93,170.22-68.21,11.27-5.34,15.42-13.65,13.64-23.14-8.3-51.01-49.23-93.71-120.4-93.71-83.04,0-153.62,65.84-153.62,157.18,0,81.26,56.94,139.39,141.16,139.39,78.89,0,128.11-48.64,139.98-81.85,5.93-17.2-7.12-26.69-18.98-14.83ZM1246,169.63c28.47-5.34,57.53,16.02,65.83,50.42,4.16,15.42-3.56,19.57-13.64,24.32-32.03,13.64-65.83,25.51-100.23,37.36-2.97-10.08-4.74-24.32-4.74-37.36,0-37.96,18.39-70.58,52.79-74.73Z"/>
  <path class="cls-1" d="M1682.5,252.67c-15.42-78.29-40.93-122.18-108.54-122.18-37.96,0-74.14,18.39-96.68,53.97v-35.58c0-11.86-4.15-17.8-14.23-17.8-9.49.59-46.27,11.27-68.21,21.95-14.23,6.52-18.98,10.68-18.98,20.17,0,8.3,5.34,12.45,11.27,16.6,11.86,8.9,18.39,19.57,18.39,36.18v112.69c0,55.16-29.66,41.52-29.66,67.02,0,11.86,10.68,15.42,27.28,15.42h84.82c16.6,0,26.1-2.96,26.1-14.83,0-26.1-28.47-12.45-28.47-67.61v-75.92c0-52.19,28.47-80.66,59.91-80.66,39.15-.59,50.42,36.18,57.53,73.55l18.39,93.71c7.71,38.55-23.14,36.77-23.14,56.34,0,11.86,10.08,15.42,26.69,15.42h83.04c16.02,0,26.1-2.96,26.1-14.83,0-20.76-23.73-16.02-31.44-52.19l-20.17-101.43Z"/>
  <path class="cls-1" d="M1875.82,354.09c-12.45,9.49-27.28,17.2-42.7,17.2-26.69,0-34.99-16.02-34.4-68.8.59-53.97.59-94.3.59-126.93l51.01,1.78c11.86.59,21.95-2.38,25.51-20.17s-5.93-20.76-17.2-20.76h-58.72c.59-18.39,1.18-34.4,2.96-50.42.59-8.9-4.74-16.6-13.05-16.6-3.56,0-8.31.59-21.95,8.3-24.32,14.83-52.79,37.96-74.73,60.5-6.52,5.93-8.9,13.05-8.9,20.17,0,10.08,4.74,15.42,20.76,15.42h16.02c-1.19,30.84-1.78,75.92-1.78,128.7v30.84c0,60.5,30.84,93.71,84.22,93.71,49.82,0,80.66-33.81,89.56-60.5,4.15-12.45-5.93-20.76-17.2-12.45Z"/>
  <path class="cls-1" d="M173.41,471.46c-25.73,0-48.17,15.18-59.05,32v-53.44l.33-45.53c0-5.28-2.31-5.94-5.94-5.6-4.62.33-8.25,1.32-23.09,8.58-7.92,3.63-9.23,4.95-9.23,7.58,0,10.23,16.82,2.31,16.82,34.97v153.73c0,6.93,0,14.84-1.65,23.09-.66,3.63.66,6.93,3.96,6.93,9.24,0,14.19-9.57,24.41-9.57s19.8,12.2,53.11,12.2c46.52,0,75.55-44.53,75.55-87.42,0-45.53-30.68-77.53-75.21-77.53ZM173.73,625.52c-32.99,0-59.05-30.68-59.05-58.39v-28.7c.33-12.86,13.53-51.13,52.13-51.13,29.69,0,60.04,24.74,60.04,71.59s-21.78,66.64-53.11,66.64Z"/>
  <path class="cls-1" d="M364.07,474.76c-7.59,0-11.88,1.32-11.88,5.28,0,5.94,16.49,6.27,6.6,31.67l-42.23,105.9-41.23-105.9c-9.9-25.4,10.22-25.73,10.22-31.67,0-4.29-5.28-5.28-11.88-5.28h-28.7c-7.58,0-11.88,1.32-11.88,5.28,0,5.94,10.23,6.27,20.45,31.67l40.91,103.26c3.63,8.58,6.93,16.83,6.93,28.38,0,17.81-8.57,39.92-20.78,39.92s-19.14-13.86-29.03-13.2c-6.93.33-11.55,6.6-11.55,13.53s6.27,18.8,25.4,18.8c34.64,0,42.56-31.34,60.04-75.54l44.21-115.14c9.9-25.4,21.11-25.73,21.11-31.67,0-4.29-4.95-5.28-11.55-5.28h-15.18Z"/>
  <path class="cls-1" d="M528.02,404.49c0-5.28-2.31-5.94-5.94-5.6-4.29.33-7.92,1.32-23.09,8.58-7.92,3.63-8.91,4.95-8.91,7.58,0,10.23,16.49,2.31,16.83,34.97l-.33,43.88c-13.85-16.83-35.3-22.44-52.78-22.44-45.53,0-81.16,38.93-81.16,87.09,0,42.23,27.38,78.19,73.57,77.85,25.07-.33,48.17-11.21,60.37-29.03l.33,13.53c0,9.57,2.31,15.84,9.56,15.84s16.49-4.29,23.76-8.58c4.62-2.64,7.26-5.61,7.26-7.92,0-9.57-20.12-.99-20.12-26.39l.33-143.84.33-45.53ZM452.48,620.25c-25.73,0-58.72-22.1-58.72-74.23,0-34.31,19.46-61.03,51.79-61.03,21.44,0,37.28,10.23,48.49,28.38,12.21,19.79,12.21,47.83,12.21,58.72,0,18.47-19.46,48.17-53.78,48.17Z"/>
  <path class="cls-1" d="M667.89,595.5c-11.88,13.2-31.67,24.41-54.76,24.41-33.98,0-54.77-28.04-60.38-49.15,39.26-11.88,80.49-25.07,117.11-38.27,8.25-2.97,9.24-7.58,7.92-13.53-7.26-28.37-31.67-47.51-65.65-47.51-50.47,0-82.81,39.26-82.81,88.42,0,42.55,30.68,76.53,76.21,76.53,40.58,0,64-21.44,70.93-36.61,3.3-7.26-3.96-9.57-8.58-4.29ZM604.55,483.01c19.46.66,40.91,16.17,42.89,37.28.33,4.29-.33,7.92-5.28,9.9-27.71,9.9-58.06,19.79-90.06,30.02-1.32-5.61-1.32-10.56-1.32-19.46,0-26.06,17.82-58.39,53.78-57.73Z"/>
  <path class="cls-1" d="M688.01,636.41c5.94,0,7.26-6.27,12.54-6.27,6.6,0,15.18,6.27,34.31,6.27,37.6,0,59.05-23.42,59.05-45.19,0-25.07-28.04-37.28-57.4-48.17-32.66-12.54-49.15-19.79-49.15-35.96,0-13.85,12.2-24.08,32.66-24.08,15.84,0,31.67,6.93,44.54,16.83,11.55,8.91,15.83,14.84,20.45,12.2,2.31-1.65,1.65-5.94.33-8.91-2.31-5.61-5.28-12.2-10.89-21.77-2.64-4.95-4.61-9.9-8.57-9.9-2.97,0-4.29,4.29-8.58,3.63-8.25-.66-18.15-3.63-34.97-3.63-25.07,0-50.81,14.19-50.81,42.89,0,26.72,28.37,37.6,58.72,49.15,25.73,10.23,45.19,19.14,45.19,34.31,0,17.81-16.16,25.73-33.32,25.73s-33.98-2.64-62.35-34.64c-2.64-2.97-5.28-4.95-7.92-4.29-2.97.66-3.63,3.3-2.97,6.27,4.29,14.19,7.58,22.77,12.2,35.63,3.63,8.58,3.3,9.9,6.93,9.9Z"/>
  <path class="cls-1" d="M827.55,591.22v-68.62l.33-45.53c0-5.28-2.31-5.94-5.94-5.61-4.29.33-7.92,1.32-23.09,8.58-7.92,3.63-8.91,4.95-8.91,7.59,0,10.23,16.82,2.31,16.82,34.97v68.62c0,32-15.83,27.38-15.83,36.62,0,4.29,5.28,5.28,11.88,5.28h27.71c7.59,0,11.88-1.32,11.88-5.28,0-9.24-14.84-4.62-14.84-36.62Z"/>
  <path class="cls-1" d="M952.57,613.98c-9.9,0-25.73,1.65-43.55,1.65-21.11,0-44.86-4.29-44.86-22.76,0-6.6,5.61-12.21,10.22-14.85,8.25,3.96,18.47,6.27,30.68,6.27,44.2,0,71.92-26.39,71.92-61.69,0-13.85-6.6-28.37-19.79-38.6,13.85-3.96,25.07-14.52,25.07-26.06,0-6.93-5.6-10.89-10.55-10.89-3.96,0-6.6,3.3-9.57,6.93-5.94,10.56-14.52,18.81-22.1,18.81-6.93,0-10.56-1.32-22.43-1.32h-.33c-40.57-.33-73.56,24.74-73.56,60.7,0,15.83,7.26,31.34,22.1,41.23-20.12,6.93-26.06,20.13-26.06,27.05,0,14.85,10.89,23.76,20.45,28.7-16.17,7.59-22.43,21.44-22.43,31.67,0,30.02,34.97,42.22,73.23,42.22,62.02,0,91.71-23.09,91.71-53.44,0-19.14-16.49-35.63-50.14-35.63ZM910.02,482.02c28.37,0,43.55,21.11,43.88,47.51,0,23.42-15.83,43.88-43.21,43.88s-44.87-20.78-45.2-47.5c0-27.05,19.79-43.88,44.54-43.88ZM918.26,692.82c-33.65,0-57.07-11.55-57.07-33.32,0-15.83,16.49-24.74,32-25.07,21.77,0,37.94-.66,48.16-1.65,32.33-2.31,38.6,13.53,38.6,24.74,0,24.41-29.03,35.3-61.69,35.3Z"/>
  <path class="cls-1" d="M1143.58,541.4c-8.91-55.09-27.71-69.94-57.73-69.94-22.1,0-46.52,13.2-60.37,39.92l.33-32.66c0-5.28-2.31-5.94-5.94-5.61-4.29.33-9.9,2.31-20.12,6.93-7.92,3.63-8.91,5.61-8.91,8.25s1.65,4.29,5.61,6.6c10.23,5.6,9.9,15.17,9.9,27.38v68.95c0,32-15.51,27.38-15.51,36.62,0,4.29,4.95,5.28,11.55,5.28h28.04c7.59,0,11.88-1.32,11.88-5.28,0-9.24-14.84-4.62-14.84-36.62v-35.96c0-47.51,27.38-68.29,51.14-68.95,35.3-.66,40.24,28.7,44.86,58.06l8.91,56.41c3.63,21.11-13.53,18.47-13.53,27.05,0,4.29,4.95,5.28,11.88,5.28h28.04c7.59,0,11.88-1.32,11.88-5.28,0-8.58-13.86-6.27-17.48-27.39l-9.57-59.05Z"/>
  <path class="cls-1" d="M1182.17,636.41c8.24,0,16.16-5.94,16.16-16.16s-6.93-15.18-14.84-15.18-16.49,6.6-16.49,16.82,6.93,14.52,15.18,14.52Z"/>
</svg>