<svg width="56" height="56" viewBox="0 0 56 56" fill="none" xmlns="http://www.w3.org/2000/svg">
<path d="M14.7433 14.888C14.7433 13.7787 15.2339 12.7973 16.2153 11.944C17.1966 11.0907 18.5193 10.4293 20.1833 9.96C21.8899 9.49066 23.8313 9.256 26.0073 9.256C29.0366 9.256 31.5966 9.74666 33.6873 10.728C35.8206 11.6667 37.4419 13.0107 38.5513 14.76C39.6606 16.4667 40.2153 18.4507 40.2153 20.712C40.2153 23.016 39.5753 25.2773 38.2953 27.496C37.0153 29.672 34.9246 31.9973 32.0233 34.472L22.6153 42.728H39.8313C40.0446 43.0267 40.2366 43.4533 40.4073 44.008C40.6206 44.5627 40.7273 45.16 40.7273 45.8C40.7273 46.9093 40.4499 47.72 39.8953 48.232C39.3833 48.744 38.7219 49 37.9113 49H15.5113C14.8286 48.5307 14.2953 47.9333 13.9113 47.208C13.5699 46.4827 13.3993 45.672 13.3993 44.776C13.3993 43.7093 13.6126 42.8133 14.0393 42.088C14.4659 41.32 14.9779 40.6587 15.5753 40.104L25.7513 30.76C28.2259 28.584 29.9113 26.792 30.8073 25.384C31.7033 23.9333 32.1513 22.504 32.1513 21.096C32.1513 19.4747 31.5539 18.1733 30.3593 17.192C29.2073 16.168 27.5006 15.656 25.2393 15.656C23.4473 15.656 21.8473 15.9547 20.4392 16.552C19.0313 17.1493 17.8579 17.768 16.9193 18.408C16.3219 18.0667 15.8099 17.5973 15.3833 17C14.9566 16.4027 14.7433 15.6987 14.7433 14.888Z" fill="#DF1995"/>
</svg>
