<svg width="56" height="56" viewBox="0 0 56 56" fill="none" xmlns="http://www.w3.org/2000/svg">
<path d="M25.525 9.192C29.9623 9.192 33.4397 10.152 35.957 12.072C38.517 13.9493 39.797 16.616 39.797 20.072C39.797 21.6507 39.4983 23.016 38.901 24.168C38.3037 25.32 37.5357 26.28 36.597 27.048C35.701 27.7733 34.8263 28.2853 33.973 28.584C35.125 28.968 36.213 29.5653 37.237 30.376C38.3037 31.1867 39.157 32.232 39.797 33.512C40.4797 34.792 40.821 36.3493 40.821 38.184C40.821 40.7013 40.1597 42.8347 38.837 44.584C37.557 46.2907 35.7863 47.592 33.525 48.488C31.2637 49.384 28.6397 49.832 25.653 49.832C23.0077 49.832 20.7463 49.576 18.869 49.064C16.9917 48.552 15.541 47.8693 14.517 47.016C13.493 46.12 12.981 45.1387 12.981 44.072C12.981 43.2187 13.1943 42.472 13.621 41.832C14.0477 41.192 14.581 40.7013 15.221 40.36C16.2023 41.0427 17.461 41.7253 18.997 42.408C20.533 43.0907 22.517 43.432 24.949 43.432C27.4237 43.432 29.365 42.9413 30.773 41.96C32.2237 40.936 32.949 39.4853 32.949 37.608C32.949 35.9013 32.309 34.5573 31.029 33.576C29.7917 32.552 27.893 32.04 25.333 32.04H19.701C19.445 31.6987 19.2317 31.272 19.061 30.76C18.8903 30.2053 18.805 29.5867 18.805 28.904C18.805 28.2213 18.8903 27.6027 19.061 27.048C19.2317 26.4933 19.445 26.0453 19.701 25.704H25.077C27.509 25.704 29.237 25.256 30.261 24.36C31.3277 23.464 31.861 22.248 31.861 20.712C31.861 19.0907 31.221 17.832 29.941 16.936C28.7037 16.04 26.9117 15.592 24.565 15.592C22.6877 15.592 21.0237 15.848 19.573 16.36C18.1223 16.872 16.9277 17.4693 15.989 18.152C15.4343 17.8107 14.9437 17.3413 14.517 16.744C14.133 16.104 13.941 15.4 13.941 14.632C13.941 13.5227 14.4317 12.584 15.413 11.816C16.3943 11.0053 17.7597 10.3653 19.509 9.896C21.2583 9.42666 23.2637 9.192 25.525 9.192Z" fill="#DF1995"/>
</svg>
