<svg width="56" height="56" viewBox="0 0 56 56" fill="none" xmlns="http://www.w3.org/2000/svg">
<path d="M24.8033 10.088L23.1393 15.144L22.3073 25.448C23.0326 25.1493 23.9286 24.872 24.9953 24.616C26.1046 24.3173 27.3419 24.168 28.7073 24.168C31.4806 24.168 33.8486 24.7013 35.8113 25.768C37.7739 26.792 39.2886 28.2427 40.3553 30.12C41.4646 31.9973 42.0193 34.216 42.0193 36.776C42.0193 39.208 41.4646 41.4267 40.3553 43.432C39.2459 45.3947 37.5606 46.9733 35.2993 48.168C33.0379 49.32 30.2006 49.896 26.7873 49.896C24.2699 49.896 22.0513 49.6187 20.1313 49.064C18.2539 48.552 16.7819 47.848 15.7153 46.952C14.6486 46.0133 14.1153 44.968 14.1153 43.816C14.1153 42.8773 14.3926 42.088 14.9473 41.448C15.5446 40.7653 16.1633 40.2747 16.8033 39.976C17.8699 40.8293 19.1713 41.64 20.7073 42.408C22.2433 43.176 24.1419 43.56 26.4033 43.56C28.9206 43.56 30.8193 42.92 32.0993 41.64C33.3793 40.36 34.0193 38.76 34.0193 36.84C34.0193 34.8773 33.3793 33.32 32.0993 32.168C30.8619 31.016 29.1126 30.44 26.8513 30.44C25.5286 30.44 24.3553 30.632 23.3313 31.016C22.3073 31.3573 21.2833 31.8053 20.2593 32.36C18.6806 32.2747 17.4006 31.8267 16.4193 31.016C15.4806 30.1627 15.0113 28.968 15.0113 27.432C15.0113 27.176 15.0113 26.8773 15.0113 26.536C15.0539 26.152 15.0966 25.7253 15.1393 25.256L16.0353 14.504C16.1633 13.1387 16.5899 12.072 17.3153 11.304C18.0406 10.4933 19.0859 10.088 20.4513 10.088H24.8033ZM21.2833 16.552V10.088H39.4593C39.6726 10.3867 39.8646 10.8133 40.0353 11.368C40.2059 11.9227 40.2913 12.52 40.2913 13.16C40.2913 14.2693 40.0353 15.1227 39.5233 15.72C39.0539 16.2747 38.3499 16.552 37.4113 16.552H21.2833Z" fill="#DF1995"/>
</svg>
