<svg width="56" height="56" viewBox="0 0 56 56" fill="none" xmlns="http://www.w3.org/2000/svg">
<path d="M39.7333 13.928C39.7333 14.6107 39.5626 15.272 39.2213 15.912C38.9226 16.552 38.5173 17.0213 38.0053 17.32C36.9813 16.8507 35.8506 16.4667 34.6133 16.168C33.4186 15.8267 32.2026 15.656 30.9653 15.656C28.0213 15.656 25.6106 16.5947 23.7333 18.472C21.8986 20.3493 20.8319 23.208 20.5333 27.048C21.3866 26.3227 22.6026 25.5973 24.1813 24.872C25.8026 24.1467 27.6373 23.784 29.6853 23.784C33.5253 23.784 36.6399 24.8933 39.0293 27.112C41.4186 29.288 42.6133 32.4667 42.6133 36.648C42.6133 39.208 42.0373 41.4907 40.8853 43.496C39.7759 45.5013 38.1546 47.08 36.0213 48.232C33.8879 49.3413 31.2853 49.896 28.2133 49.896C25.1413 49.896 22.4319 49.2133 20.0853 47.848C17.7386 46.44 15.9039 44.3067 14.5813 41.448C13.3013 38.5893 12.6613 35.0053 12.6613 30.696C12.6613 26.8987 13.1093 23.6347 14.0052 20.904C14.9439 18.1733 16.2239 15.9547 17.8453 14.248C19.4666 12.5413 21.3226 11.2827 23.4133 10.472C25.5466 9.66133 27.8293 9.256 30.2613 9.256C32.0959 9.256 33.7173 9.42666 35.1253 9.768C36.5759 10.1093 37.7066 10.6427 38.5173 11.368C39.3279 12.0507 39.7333 12.904 39.7333 13.928ZM28.2133 43.56C30.1759 43.56 31.7333 42.9413 32.8853 41.704C34.0799 40.4667 34.6773 38.7813 34.6773 36.648C34.6773 34.472 34.0799 32.8293 32.8853 31.72C31.6906 30.6107 30.1546 30.056 28.2773 30.056C26.6559 30.056 25.1839 30.3973 23.8613 31.08C22.5386 31.7627 21.4719 32.616 20.6613 33.64L20.7893 34.152C20.7893 37.1387 21.4506 39.464 22.7733 41.128C24.1386 42.7493 25.9519 43.56 28.2133 43.56Z" fill="#DF1995"/>
</svg>
