<svg width="50" height="50" viewBox="0 0 50 50" fill="none" xmlns="http://www.w3.org/2000/svg">
<path d="M8.3335 18.7502V12.5002C8.3335 11.3951 8.77248 10.3353 9.55388 9.55388C10.3353 8.77248 11.3951 8.3335 12.5002 8.3335H18.7502M41.6668 31.2502V37.5002C41.6668 38.6052 41.2278 39.665 40.4464 40.4464C39.665 41.2278 38.6052 41.6668 37.5002 41.6668H31.2502M31.2502 8.3335H37.5002C38.6052 8.3335 39.665 8.77248 40.4464 9.55388C41.2278 10.3353 41.6668 11.3951 41.6668 12.5002V18.7502M18.7502 41.6668H12.5002C11.3951 41.6668 10.3353 41.2278 9.55388 40.4464C8.77248 39.665 8.3335 38.6052 8.3335 37.5002V31.2502" stroke="white" stroke-width="2.5" stroke-linecap="round" stroke-linejoin="round"/>
</svg>
