<svg width="57" height="62" viewBox="0 0 57 62" fill="none" xmlns="http://www.w3.org/2000/svg">
<mask id="mask0_18_1486" style="mask-type:luminance" maskUnits="userSpaceOnUse" x="21" y="3" width="14" height="17">
<path d="M21.6296 3.73657H34.8307V19.8625H21.6296V3.73657Z" fill="white"/>
</mask>
<g mask="url(#mask0_18_1486)">
<mask id="mask1_18_1486" style="mask-type:luminance" maskUnits="userSpaceOnUse" x="0" y="0" width="57" height="62">
<path d="M0 0.889295V60.3368C0 60.8281 0.39833 61.2261 0.889295 61.2261H55.5917C56.083 61.2261 56.481 60.8281 56.481 60.3368V0.889295C56.481 0.398021 56.083 0 55.5917 0H0.889295C0.39833 0 0 0.398021 0 0.889295Z" fill="white"/>
</mask>
<g mask="url(#mask1_18_1486)">
<path d="M25.4162 16.3236V16.9637C25.4162 17.056 25.4208 17.1483 25.4298 17.2404C25.4387 17.3324 25.4523 17.4238 25.4705 17.5146C25.4885 17.6053 25.511 17.6949 25.5379 17.7835C25.5647 17.8718 25.5959 17.9589 25.6311 18.0444C25.6666 18.13 25.7061 18.2133 25.7497 18.2949C25.7932 18.3764 25.8408 18.4557 25.892 18.5326C25.9436 18.6095 25.9986 18.6836 26.0572 18.7553C26.1159 18.8266 26.178 18.8951 26.2434 18.9606C26.3089 19.0261 26.3771 19.0881 26.4488 19.1468C26.5201 19.2055 26.5945 19.2604 26.6714 19.3117C26.7483 19.3633 26.8273 19.4105 26.9089 19.4543C26.9907 19.4979 27.0741 19.5374 27.1596 19.5726C27.2451 19.6081 27.3319 19.6393 27.4205 19.6662C27.5088 19.693 27.5987 19.7153 27.6892 19.7335C27.7799 19.7514 27.8713 19.765 27.9634 19.7742C28.0554 19.7832 28.1477 19.7878 28.2403 19.7878C28.3327 19.7878 28.425 19.7832 28.517 19.7742C28.609 19.765 28.7004 19.7514 28.7912 19.7335C28.882 19.7153 28.9715 19.693 29.0601 19.6662C29.1485 19.6393 29.2355 19.6081 29.3211 19.5726C29.4063 19.5374 29.49 19.4979 29.5715 19.4543C29.653 19.4105 29.7324 19.3633 29.8093 19.3117C29.8861 19.2604 29.9603 19.2055 30.0319 19.1468C30.1032 19.0881 30.1718 19.0261 30.2372 18.9606C30.3024 18.8951 30.3644 18.8266 30.4231 18.7553C30.4818 18.6836 30.5371 18.6095 30.5883 18.5326C30.6396 18.4557 30.6871 18.3764 30.7307 18.2949C30.7745 18.2133 30.814 18.13 30.8492 18.0444C30.8847 17.9589 30.9159 17.8718 30.9428 17.7835C30.9694 17.6949 30.9919 17.6053 31.0101 17.5146C31.028 17.4238 31.0416 17.3324 31.0506 17.2404C31.0598 17.1483 31.0642 17.056 31.0642 16.9637V16.3236C31.1759 16.2705 31.2859 16.2146 31.3942 16.1556C31.5029 16.0963 31.6095 16.0343 31.7144 15.9691C31.8194 15.904 31.9226 15.836 32.0235 15.765C32.1248 15.694 32.2239 15.6205 32.3209 15.5439C32.4179 15.4673 32.5127 15.3883 32.605 15.3065C32.6976 15.2246 32.7878 15.1403 32.8755 15.0533C32.9635 14.9665 33.0487 14.8773 33.1315 14.7855C33.2142 14.6938 33.2942 14.6 33.3717 14.5036C33.4492 14.4076 33.5239 14.3091 33.5959 14.2087C33.6678 14.1084 33.737 14.0059 33.8034 13.9018C33.8694 13.7974 33.9327 13.6915 33.993 13.5835C34.0532 13.4757 34.1103 13.3664 34.1643 13.2552C34.2184 13.1441 34.2693 13.0317 34.3172 12.9177C34.365 12.8038 34.4095 12.6886 34.4506 12.5722C34.492 12.4558 34.5299 12.3384 34.5645 12.2199C34.5994 12.1013 34.6306 11.9818 34.6587 11.8614C34.6865 11.7413 34.7112 11.6202 34.7322 11.4985C34.7535 11.3769 34.7711 11.2546 34.7853 11.132C34.7998 11.0091 34.8106 10.8862 34.818 10.7627C34.8251 10.6395 34.8291 10.516 34.8295 10.3925C34.8301 10.269 34.827 10.1458 34.8205 10.0223C34.814 9.89905 34.8038 9.77585 34.7905 9.65326C34.777 9.53037 34.7603 9.40809 34.7399 9.28612C34.7195 9.16446 34.6957 9.04311 34.6686 8.92268C34.6417 8.80225 34.6111 8.68245 34.5772 8.56357C34.5432 8.44499 34.5062 8.32704 34.4657 8.21032C34.4253 8.09391 34.3814 7.97842 34.3345 7.86417C34.2875 7.74992 34.2375 7.63691 34.1841 7.52544C34.1307 7.41428 34.0745 7.30435 34.0149 7.19597C33.9553 7.08789 33.8929 6.98136 33.8274 6.87668C33.762 6.7717 33.6934 6.66887 33.6221 6.56821C33.5511 6.46724 33.477 6.36843 33.4001 6.27178C33.3232 6.17513 33.2438 6.08064 33.1617 5.98832C33.0796 5.89599 32.9947 5.80613 32.9076 5.71875C32.8205 5.63105 32.731 5.54614 32.6389 5.46369C32.5469 5.38125 32.4527 5.30127 32.3561 5.22439C32.2598 5.14719 32.1613 5.07277 32.0606 5.00114C31.9599 4.9295 31.8574 4.86064 31.7527 4.79487C31.6484 4.7291 31.5421 4.66611 31.4341 4.6062C31.326 4.54661 31.2164 4.48979 31.1052 4.43606C30.9937 4.38234 30.881 4.3317 30.7671 4.28445C30.6532 4.2369 30.5377 4.19274 30.4213 4.15198C30.3045 4.11122 30.1869 4.07355 30.0683 4.03928C29.9498 4.005 29.8299 3.97412 29.7095 3.94664C29.5891 3.91885 29.4681 3.89477 29.3464 3.87408C29.2247 3.85339 29.1025 3.8361 28.9796 3.8222C28.857 3.80831 28.7338 3.79812 28.6106 3.79102C28.487 3.78422 28.3638 3.78052 28.2403 3.78052C28.1168 3.78052 27.9933 3.78422 27.8701 3.79102C27.7466 3.79812 27.6237 3.80831 27.5008 3.8222C27.3782 3.8361 27.2559 3.85339 27.134 3.87408C27.0123 3.89477 26.8913 3.91885 26.7708 3.94664C26.6504 3.97412 26.5309 4.005 26.412 4.03928C26.2935 4.07355 26.1758 4.11122 26.0594 4.15198C25.9427 4.19274 25.8275 4.2369 25.7133 4.28445C25.5993 4.3317 25.4866 4.38234 25.3754 4.43606C25.2643 4.48979 25.1544 4.54661 25.0466 4.6062C24.9385 4.66611 24.832 4.7291 24.7276 4.79487C24.6232 4.86064 24.5204 4.9295 24.4198 5.00114C24.3194 5.07277 24.2206 5.14719 24.1243 5.22439C24.0279 5.30127 23.9334 5.38125 23.8417 5.46369C23.7497 5.54614 23.6602 5.63105 23.5728 5.71875C23.4857 5.80613 23.4011 5.89599 23.3189 5.98832C23.2368 6.08064 23.1571 6.17513 23.0803 6.27178C23.0037 6.36843 22.9296 6.46724 22.8582 6.56821C22.7869 6.66887 22.7187 6.7717 22.6532 6.87668C22.5877 6.98136 22.5251 7.08789 22.4658 7.19597C22.4062 7.30435 22.3497 7.41428 22.2963 7.52544C22.2431 7.63691 22.1928 7.74992 22.1459 7.86417C22.0989 7.97842 22.0554 8.09391 22.0146 8.21032C21.9742 8.32704 21.9371 8.44499 21.9032 8.56357C21.8695 8.68245 21.839 8.80225 21.8118 8.92268C21.7846 9.04311 21.7608 9.16446 21.7404 9.28612C21.7204 9.40809 21.7034 9.53037 21.6898 9.65326C21.6765 9.77585 21.6666 9.89905 21.6602 10.0223C21.6534 10.1458 21.6506 10.269 21.6509 10.3925C21.6512 10.516 21.6552 10.6395 21.6626 10.7627C21.67 10.8862 21.6809 11.0091 21.6951 11.132C21.7093 11.2546 21.7272 11.3769 21.7482 11.4985C21.7695 11.6202 21.7939 11.7413 21.822 11.8614C21.8498 11.9818 21.8813 12.1013 21.9158 12.2199C21.9504 12.3384 21.9884 12.4558 22.0298 12.5722C22.0712 12.6886 22.1156 12.8038 22.1632 12.9177C22.211 13.0317 22.262 13.1441 22.316 13.2552C22.3701 13.3664 22.4272 13.4757 22.4877 13.5835C22.5479 13.6915 22.6109 13.7974 22.6773 13.9018C22.7434 14.0059 22.8125 14.1084 22.8845 14.2087C22.9564 14.3091 23.0312 14.4076 23.1087 14.5036C23.1862 14.6 23.2661 14.6938 23.3489 14.7855C23.432 14.8773 23.5172 14.9665 23.6049 15.0533C23.6926 15.1403 23.7827 15.2246 23.8754 15.3065C23.968 15.3883 24.0628 15.4673 24.1598 15.5439C24.2567 15.6205 24.3558 15.694 24.4568 15.765C24.5581 15.836 24.6609 15.904 24.7659 15.9691C24.8709 16.0343 24.9777 16.0963 25.0861 16.1556C25.1945 16.2146 25.3047 16.2705 25.4162 16.3236ZM28.2403 5.66749C28.3774 5.6678 28.5145 5.67397 28.6513 5.68633C28.7878 5.69837 28.9237 5.71659 29.0589 5.74067C29.1942 5.76476 29.3279 5.79471 29.4603 5.83053C29.5928 5.86635 29.7234 5.90772 29.8525 5.95497C29.9812 6.00221 30.1078 6.05501 30.232 6.11337C30.3564 6.17173 30.4778 6.23534 30.5967 6.3042C30.7152 6.37306 30.8307 6.44717 30.9428 6.52622C31.0552 6.60526 31.1636 6.68894 31.2686 6.77757C31.3736 6.86619 31.4742 6.95913 31.5709 7.0564C31.6678 7.15366 31.7601 7.25525 31.8478 7.36055C31.9358 7.46584 32.0189 7.57515 32.0973 7.68786C32.1758 7.80056 32.249 7.91636 32.3172 8.03555C32.3854 8.15443 32.4481 8.2764 32.5059 8.40115C32.5633 8.52559 32.6152 8.6525 32.6618 8.78157C32.7081 8.91095 32.7489 9.04187 32.7838 9.17465C32.819 9.30712 32.848 9.44113 32.8711 9.57637C32.8946 9.71162 32.9119 9.84779 32.9233 9.98458C32.9344 10.1214 32.94 10.2585 32.9394 10.3956C32.9388 10.533 32.932 10.6698 32.9193 10.8066C32.907 10.9434 32.8884 11.0792 32.8637 11.2142C32.8393 11.3491 32.8091 11.4828 32.7726 11.6153C32.7365 11.7477 32.6948 11.8784 32.647 12.0071C32.5994 12.1356 32.5463 12.2622 32.4876 12.3863C32.429 12.5104 32.3651 12.6315 32.2959 12.75C32.2264 12.8686 32.152 12.9838 32.0726 13.0959C31.9933 13.2077 31.9093 13.316 31.8204 13.4207C31.7317 13.5254 31.6385 13.6258 31.5409 13.7224C31.443 13.8187 31.3414 13.9108 31.2358 13.9985C31.1302 14.0858 31.0209 14.1689 30.9079 14.2467C30.7949 14.3248 30.6788 14.3977 30.5596 14.4656C30.4401 14.5336 30.3181 14.5959 30.1934 14.6531C30.0686 14.7102 29.9414 14.7621 29.8123 14.8081C29.7666 14.8238 29.7225 14.8433 29.6799 14.8661C29.6373 14.889 29.5965 14.9146 29.5579 14.9436C29.519 14.9727 29.4829 15.0048 29.4492 15.0394C29.4152 15.0739 29.3844 15.111 29.3563 15.1502C29.3282 15.1897 29.3035 15.2308 29.2815 15.274C29.2599 15.3173 29.2417 15.362 29.2269 15.408C29.2121 15.4541 29.201 15.501 29.1932 15.5485C29.1855 15.5964 29.1818 15.6446 29.1815 15.6927V16.9637C29.1815 17.0255 29.1756 17.0866 29.1636 17.1474C29.1515 17.2079 29.1336 17.2669 29.1099 17.324C29.0864 17.3809 29.0574 17.4352 29.0228 17.4868C28.9885 17.538 28.9496 17.5856 28.9058 17.6294C28.8622 17.673 28.8147 17.7119 28.7631 17.7465C28.7118 17.7807 28.6575 17.8098 28.6004 17.8332C28.5432 17.857 28.4846 17.8749 28.4237 17.887C28.3632 17.899 28.3021 17.9049 28.2403 17.9049C28.1786 17.9049 28.1171 17.899 28.0566 17.887C27.9961 17.8749 27.9371 17.857 27.88 17.8332C27.8229 17.8098 27.7685 17.7807 27.7173 17.7465C27.666 17.7119 27.6184 17.673 27.5746 17.6294C27.5307 17.5856 27.4918 17.538 27.4576 17.4868C27.4233 17.4352 27.3943 17.3809 27.3705 17.324C27.347 17.2669 27.3291 17.2079 27.3171 17.1474C27.305 17.0866 27.2989 17.0255 27.2989 16.9637V15.6927C27.2989 15.6446 27.2948 15.5964 27.2871 15.5485C27.2797 15.501 27.2683 15.4541 27.2535 15.408C27.2386 15.362 27.2204 15.3173 27.1988 15.274C27.1772 15.2308 27.1522 15.1897 27.1241 15.1502C27.096 15.111 27.0651 15.0739 27.0314 15.0394C26.9975 15.0048 26.9614 14.9727 26.9228 14.9436C26.8842 14.9146 26.8434 14.889 26.8008 14.8661C26.7579 14.8433 26.7137 14.8238 26.6683 14.8081C26.5389 14.7621 26.4117 14.7102 26.287 14.6531C26.1622 14.5959 26.0403 14.5336 25.9211 14.4656C25.8016 14.3977 25.6855 14.3248 25.5724 14.2467C25.4597 14.1689 25.3504 14.0858 25.2448 13.9985C25.1389 13.9108 25.0373 13.8187 24.9397 13.7224C24.8422 13.6258 24.7489 13.5254 24.66 13.4207C24.5711 13.316 24.4871 13.2077 24.4077 13.0959C24.3284 12.9838 24.2539 12.8686 24.1848 12.75C24.1153 12.6315 24.0514 12.5104 23.9927 12.3863C23.934 12.2622 23.8809 12.1356 23.8334 12.0071C23.7858 11.8784 23.7438 11.7477 23.7077 11.6153C23.6716 11.4828 23.641 11.3491 23.6166 11.2142C23.5922 11.0792 23.5737 10.9434 23.561 10.8066C23.5484 10.6698 23.5419 10.533 23.5413 10.3956C23.5407 10.2585 23.5459 10.1214 23.5573 9.98458C23.5688 9.84779 23.586 9.71162 23.6092 9.57637C23.6324 9.44113 23.6617 9.30712 23.6966 9.17465C23.7315 9.04187 23.7722 8.91095 23.8189 8.78157C23.8652 8.6525 23.9171 8.52559 23.9748 8.40115C24.0322 8.2764 24.0952 8.15443 24.1635 8.03555C24.2314 7.91636 24.3049 7.80056 24.383 7.68786C24.4614 7.57515 24.5445 7.46584 24.6325 7.36055C24.7205 7.25525 24.8128 7.15366 24.9095 7.0564C25.0061 6.95913 25.1071 6.86619 25.2118 6.77757C25.3168 6.68894 25.4255 6.60526 25.5376 6.52622C25.6496 6.44717 25.7651 6.37306 25.884 6.3042C26.0026 6.23534 26.1239 6.17173 26.2484 6.11337C26.3725 6.05501 26.4991 6.00221 26.6282 5.95497C26.7569 5.90772 26.8876 5.86635 27.02 5.83053C27.1525 5.79471 27.2865 5.76476 27.4214 5.74067C27.5567 5.71659 27.6925 5.69837 27.8293 5.68633C27.9661 5.67397 28.1029 5.6678 28.2403 5.66749Z" fill="#DF1995"/>
</g>
</g>
<mask id="mask2_18_1486" style="mask-type:luminance" maskUnits="userSpaceOnUse" x="26" y="10" width="5" height="5">
<path d="M26.2935 10.2976H30.1668V14.171H26.2935V10.2976Z" fill="white"/>
</mask>
<g mask="url(#mask2_18_1486)">
<mask id="mask3_18_1486" style="mask-type:luminance" maskUnits="userSpaceOnUse" x="0" y="0" width="57" height="62">
<path d="M0 0.889295V60.3368C0 60.8281 0.39833 61.2261 0.889295 61.2261H55.5917C56.083 61.2261 56.481 60.8281 56.481 60.3368V0.889295C56.481 0.398021 56.083 0 55.5917 0H0.889295C0.39833 0 0 0.398021 0 0.889295Z" fill="white"/>
</mask>
<g mask="url(#mask3_18_1486)">
<path d="M27.2989 12.6429V14.1396H29.1815V12.6429L29.85 11.984C29.8939 11.9401 29.9331 11.8923 29.9674 11.8407C30.002 11.7892 30.031 11.7348 30.0548 11.6774C30.0785 11.6199 30.0965 11.561 30.1085 11.5001C30.1209 11.4393 30.1267 11.3779 30.1267 11.3158C30.1267 11.2537 30.1209 11.1923 30.1085 11.1311C30.0965 11.0703 30.0785 11.0113 30.0548 10.9539C30.031 10.8968 30.002 10.8421 29.9674 10.7906C29.9331 10.739 29.8939 10.6911 29.85 10.6473C29.8062 10.6034 29.7583 10.5642 29.7068 10.5296C29.6552 10.4954 29.6006 10.4663 29.5434 10.4426C29.486 10.4188 29.427 10.4009 29.3659 10.3885C29.305 10.3765 29.2436 10.3706 29.1815 10.3706C29.1195 10.3706 29.058 10.3765 28.9972 10.3885C28.9364 10.4009 28.8774 10.4188 28.8199 10.4426C28.7625 10.4663 28.7082 10.4954 28.6566 10.5296C28.6047 10.5642 28.5572 10.6034 28.5133 10.6473L28.2404 10.9298L27.9674 10.6473C27.9232 10.6034 27.8757 10.5642 27.8241 10.5296C27.7726 10.4954 27.7179 10.4663 27.6608 10.4426C27.6033 10.4188 27.5441 10.4009 27.4832 10.3885C27.4224 10.3765 27.3609 10.3706 27.2989 10.3706C27.2368 10.3706 27.1754 10.3765 27.1145 10.3885C27.0537 10.4009 26.9944 10.4188 26.9373 10.4426C26.8799 10.4663 26.8255 10.4954 26.774 10.5296C26.7221 10.5642 26.6745 10.6034 26.6307 10.6473C26.5868 10.6911 26.5476 10.739 26.513 10.7906C26.4784 10.8421 26.4494 10.8968 26.4256 10.9539C26.4019 11.0113 26.384 11.0703 26.3719 11.1311C26.3599 11.1923 26.3537 11.2537 26.3537 11.3158C26.3537 11.3779 26.3599 11.4393 26.3719 11.5001C26.384 11.561 26.4019 11.6199 26.4256 11.6774C26.4494 11.7348 26.4784 11.7892 26.513 11.8407C26.5476 11.8923 26.5868 11.9401 26.6307 11.984L27.2989 12.6429Z" fill="#DF1995"/>
</g>
</g>
<mask id="mask4_18_1486" style="mask-type:luminance" maskUnits="userSpaceOnUse" x="27" y="0" width="3" height="3">
<path d="M27.2421 0H29.2183V2.86705H27.2421V0Z" fill="white"/>
</mask>
<g mask="url(#mask4_18_1486)">
<mask id="mask5_18_1486" style="mask-type:luminance" maskUnits="userSpaceOnUse" x="0" y="0" width="57" height="62">
<path d="M0 0.889295V60.3368C0 60.8281 0.39833 61.2261 0.889295 61.2261H55.5917C56.083 61.2261 56.481 60.8281 56.481 60.3368V0.889295C56.481 0.398021 56.083 0 55.5917 0H0.889295C0.39833 0 0 0.398021 0 0.889295Z" fill="white"/>
</mask>
<g mask="url(#mask5_18_1486)">
<path d="M29.1815 0.961011C29.1815 0.898945 29.1757 0.837806 29.1636 0.777285C29.1516 0.716454 29.1337 0.657786 29.1099 0.600661C29.0864 0.543536 29.0574 0.48919 29.0228 0.437932C28.9885 0.386365 28.9496 0.338813 28.9058 0.295274C28.8623 0.251427 28.8147 0.212521 28.7631 0.178246C28.7119 0.143971 28.6575 0.114945 28.6004 0.0911689C28.5433 0.0673926 28.4846 0.049792 28.4238 0.0377494C28.3633 0.025707 28.3021 0.0195312 28.2404 0.0195312C28.1786 0.0195312 28.1172 0.025707 28.0566 0.0377494C27.9961 0.049792 27.9371 0.0673926 27.88 0.0911689C27.8229 0.114945 27.7685 0.143971 27.7173 0.178246C27.666 0.212521 27.6185 0.251427 27.5746 0.295274C27.5308 0.338813 27.4919 0.386365 27.4576 0.437932C27.4233 0.48919 27.3943 0.543536 27.3705 0.600661C27.3471 0.657786 27.3291 0.716454 27.3171 0.777285C27.3051 0.837806 27.2989 0.898945 27.2989 0.961011V2.84366H29.1815V0.961011Z" fill="#DF1995"/>
</g>
</g>
<mask id="mask6_18_1486" style="mask-type:luminance" maskUnits="userSpaceOnUse" x="20" y="2" width="4" height="4">
<path d="M20.602 2.70898H23.6058V5.79187H20.602V2.70898Z" fill="white"/>
</mask>
<g mask="url(#mask6_18_1486)">
<mask id="mask7_18_1486" style="mask-type:luminance" maskUnits="userSpaceOnUse" x="0" y="0" width="57" height="62">
<path d="M0 0.889295V60.3368C0 60.8281 0.39833 61.2261 0.889295 61.2261H55.5917C56.083 61.2261 56.481 60.8281 56.481 60.3368V0.889295C56.481 0.398021 56.083 0 55.5917 0H0.889295C0.39833 0 0 0.398021 0 0.889295Z" fill="white"/>
</mask>
<g mask="url(#mask7_18_1486)">
<path d="M20.9167 4.37789L22.2534 5.71461L23.5805 4.37789L22.2534 3.05043C22.2095 3.00627 22.162 2.96706 22.1104 2.93248C22.0588 2.89758 22.0045 2.86825 21.9471 2.84447C21.8896 2.8207 21.8306 2.80248 21.7695 2.79043C21.7087 2.77808 21.6472 2.77222 21.5849 2.77222C21.5228 2.77222 21.4613 2.77808 21.4005 2.79043C21.3394 2.80248 21.2804 2.8207 21.223 2.84447C21.1655 2.86825 21.1112 2.89758 21.0596 2.93248C21.0081 2.96706 20.9605 3.00627 20.9167 3.05043C20.8731 3.09428 20.8345 3.14152 20.8002 3.19309C20.7663 3.24435 20.7376 3.29838 20.7141 3.3552C20.6906 3.41202 20.6727 3.47068 20.661 3.53121C20.6489 3.59173 20.6428 3.65256 20.6428 3.71431C20.6428 3.77576 20.6489 3.83659 20.661 3.89711C20.6727 3.95763 20.6906 4.0163 20.7141 4.07312C20.7376 4.12994 20.7663 4.18428 20.8002 4.23554C20.8345 4.2868 20.8731 4.33404 20.9167 4.37789Z" fill="#DF1995"/>
</g>
</g>
<mask id="mask8_18_1486" style="mask-type:luminance" maskUnits="userSpaceOnUse" x="17" y="9" width="4" height="3">
<path d="M17.8353 9.42798H20.7601V11.3251H17.8353V9.42798Z" fill="white"/>
</mask>
<g mask="url(#mask8_18_1486)">
<mask id="mask9_18_1486" style="mask-type:luminance" maskUnits="userSpaceOnUse" x="0" y="0" width="57" height="62">
<path d="M0 0.889295V60.3368C0 60.8281 0.39833 61.2261 0.889295 61.2261H55.5917C56.083 61.2261 56.481 60.8281 56.481 60.3368V0.889295C56.481 0.398021 56.083 0 55.5917 0H0.889295C0.39833 0 0 0.398021 0 0.889295Z" fill="white"/>
</mask>
<g mask="url(#mask9_18_1486)">
<path d="M18.8268 11.3158H20.7094V9.43311H18.8268C18.765 9.43311 18.7039 9.43897 18.6431 9.45101C18.5825 9.46306 18.5236 9.48097 18.4667 9.50474C18.4096 9.52821 18.3553 9.55724 18.3037 9.59151C18.2525 9.62579 18.2049 9.665 18.1614 9.70854C18.1175 9.75239 18.0786 9.79994 18.044 9.8512C18.0098 9.90276 17.9807 9.9568 17.9573 10.0139C17.9335 10.0711 17.9156 10.13 17.9035 10.1906C17.8915 10.2514 17.8856 10.3125 17.8856 10.3743C17.8856 10.436 17.8915 10.4972 17.9035 10.558C17.9156 10.6185 17.9335 10.6775 17.9573 10.7346C17.9807 10.7918 18.0098 10.8458 18.044 10.8974C18.0786 10.9486 18.1175 10.9962 18.1614 11.04C18.2049 11.0836 18.2525 11.1228 18.3037 11.157C18.3553 11.1913 18.4096 11.2203 18.4667 11.2441C18.5236 11.2676 18.5825 11.2855 18.6431 11.2975C18.7039 11.3096 18.765 11.3158 18.8268 11.3158Z" fill="#DF1995"/>
</g>
</g>
<mask id="mask10_18_1486" style="mask-type:luminance" maskUnits="userSpaceOnUse" x="20" y="15" width="4" height="4">
<path d="M20.602 15.0405H23.6058V18.0444H20.602V15.0405Z" fill="white"/>
</mask>
<g mask="url(#mask10_18_1486)">
<mask id="mask11_18_1486" style="mask-type:luminance" maskUnits="userSpaceOnUse" x="0" y="0" width="57" height="62">
<path d="M0 0.889295V60.3368C0 60.8281 0.39833 61.2261 0.889295 61.2261H55.5917C56.083 61.2261 56.481 60.8281 56.481 60.3368V0.889295C56.481 0.398021 56.083 0 55.5917 0H0.889295C0.39833 0 0 0.398021 0 0.889295Z" fill="white"/>
</mask>
<g mask="url(#mask11_18_1486)">
<path d="M20.9166 17.698C20.9605 17.7421 21.008 17.7814 21.0596 17.8163C21.1112 17.8508 21.1655 17.8802 21.2229 17.9039C21.2804 17.9277 21.3393 17.9459 21.4005 17.958C21.4613 17.9703 21.5228 17.9765 21.5848 17.9765C21.6472 17.9765 21.7087 17.9703 21.7695 17.958C21.8306 17.9459 21.8896 17.9277 21.947 17.9039C22.0045 17.8802 22.0588 17.8508 22.1104 17.8163C22.1619 17.7814 22.2095 17.7421 22.2533 17.698L23.5805 16.3613L22.2533 15.0811L20.9166 16.4082C20.8759 16.4514 20.8397 16.4984 20.8079 16.5484C20.7761 16.5984 20.7493 16.6512 20.7273 16.7062C20.7054 16.7615 20.689 16.8183 20.6776 16.8766C20.6665 16.935 20.6609 16.9937 20.6609 17.0533C20.6609 17.1125 20.6665 17.1712 20.6776 17.2296C20.689 17.2879 20.7054 17.3447 20.7273 17.4C20.7493 17.455 20.7761 17.5078 20.8079 17.5578C20.8397 17.6081 20.8759 17.6548 20.9166 17.698Z" fill="#DF1995"/>
</g>
</g>
<mask id="mask12_18_1486" style="mask-type:luminance" maskUnits="userSpaceOnUse" x="32" y="15" width="4" height="4">
<path d="M32.9335 15.0405H35.9374V18.0444H32.9335V15.0405Z" fill="white"/>
</mask>
<g mask="url(#mask12_18_1486)">
<mask id="mask13_18_1486" style="mask-type:luminance" maskUnits="userSpaceOnUse" x="0" y="0" width="57" height="62">
<path d="M0 0.889295V60.3368C0 60.8281 0.39833 61.2261 0.889295 61.2261H55.5917C56.083 61.2261 56.481 60.8281 56.481 60.3368V0.889295C56.481 0.398021 56.083 0 55.5917 0H0.889295C0.39833 0 0 0.398021 0 0.889295Z" fill="white"/>
</mask>
<g mask="url(#mask13_18_1486)">
<path d="M34.2271 15.0811L32.9468 16.3613L34.2743 17.698C34.3181 17.7418 34.366 17.7807 34.4176 17.8153C34.4691 17.8496 34.5235 17.8786 34.5809 17.9024C34.6384 17.9259 34.6973 17.9438 34.7582 17.9558C34.819 17.9679 34.8804 17.9737 34.9422 17.9737C35.0043 17.9737 35.0657 17.9679 35.1265 17.9555C35.1874 17.9435 35.2463 17.9256 35.3038 17.9018C35.3609 17.878 35.4152 17.849 35.4668 17.8144C35.5184 17.7801 35.5662 17.7409 35.6101 17.6971C35.6539 17.6532 35.6932 17.6054 35.7274 17.5538C35.762 17.5022 35.791 17.4479 35.8148 17.3908C35.8386 17.3333 35.8565 17.2743 35.8685 17.2135C35.8809 17.1527 35.8868 17.0912 35.8868 17.0292C35.8871 16.9674 35.8809 16.906 35.8689 16.8451C35.8568 16.7843 35.8389 16.725 35.8154 16.6679C35.7917 16.6105 35.7626 16.5561 35.7284 16.5045C35.6938 16.453 35.6549 16.4051 35.611 16.3613L34.2271 15.0811Z" fill="#DF1995"/>
</g>
</g>
<mask id="mask14_18_1486" style="mask-type:luminance" maskUnits="userSpaceOnUse" x="35" y="9" width="4" height="3">
<path d="M35.7003 9.42798H38.625V11.3251H35.7003V9.42798Z" fill="white"/>
</mask>
<g mask="url(#mask14_18_1486)">
<mask id="mask15_18_1486" style="mask-type:luminance" maskUnits="userSpaceOnUse" x="0" y="0" width="57" height="62">
<path d="M0 0.889295V60.3368C0 60.8281 0.39833 61.2261 0.889295 61.2261H55.5917C56.083 61.2261 56.481 60.8281 56.481 60.3368V0.889295C56.481 0.398021 56.083 0 55.5917 0H0.889295C0.39833 0 0 0.398021 0 0.889295Z" fill="white"/>
</mask>
<g mask="url(#mask15_18_1486)">
<path d="M35.7709 11.3158H37.6536C37.7153 11.3158 37.7768 11.3096 37.8373 11.2975C37.8978 11.2855 37.9568 11.2676 38.0139 11.2441C38.0711 11.2203 38.1251 11.1913 38.1767 11.157C38.2279 11.1228 38.2755 11.0836 38.3193 11.04C38.3629 10.9962 38.4021 10.9486 38.4363 10.8974C38.4706 10.8458 38.4997 10.7918 38.5234 10.7346C38.5469 10.6775 38.5648 10.6185 38.5768 10.558C38.5889 10.4972 38.5951 10.436 38.5951 10.3743C38.5951 10.3125 38.5889 10.2514 38.5768 10.1906C38.5648 10.13 38.5469 10.0711 38.5234 10.0139C38.4997 9.9568 38.4706 9.90276 38.4363 9.8512C38.4021 9.79994 38.3629 9.75239 38.3193 9.70854C38.2755 9.665 38.2279 9.62579 38.1767 9.59151C38.1251 9.55724 38.0711 9.52821 38.0139 9.50474C37.9568 9.48097 37.8978 9.46306 37.8373 9.45101C37.7768 9.43897 37.7153 9.43311 37.6536 9.43311H35.7709V11.3158Z" fill="#DF1995"/>
</g>
</g>
<mask id="mask16_18_1486" style="mask-type:luminance" maskUnits="userSpaceOnUse" x="32" y="2" width="4" height="4">
<path d="M32.9335 2.70898H35.9374V5.79187H32.9335V2.70898Z" fill="white"/>
</mask>
<g mask="url(#mask16_18_1486)">
<mask id="mask17_18_1486" style="mask-type:luminance" maskUnits="userSpaceOnUse" x="0" y="0" width="57" height="62">
<path d="M0 0.889295V60.3368C0 60.8281 0.39833 61.2261 0.889295 61.2261H55.5917C56.083 61.2261 56.481 60.8281 56.481 60.3368V0.889295C56.481 0.398021 56.083 0 55.5917 0H0.889295C0.39833 0 0 0.398021 0 0.889295Z" fill="white"/>
</mask>
<g mask="url(#mask17_18_1486)">
<path d="M34.2271 5.71456L35.5638 4.37783C35.6132 4.33553 35.6576 4.2889 35.6972 4.23734C35.7367 4.18608 35.7707 4.13112 35.7991 4.07276C35.8272 4.0144 35.8491 3.95357 35.8648 3.89088C35.8806 3.82789 35.8898 3.76397 35.8923 3.69913C35.8948 3.63428 35.8905 3.57006 35.8797 3.50583C35.8689 3.44191 35.8519 3.37985 35.8281 3.31933C35.8043 3.25911 35.7747 3.20168 35.7392 3.14733C35.7037 3.09299 35.6632 3.04296 35.6172 2.99726C35.5715 2.95126 35.5212 2.9105 35.4671 2.87499C35.4128 2.83948 35.3553 2.80983 35.2948 2.78637C35.2346 2.76259 35.1725 2.7453 35.1083 2.73449C35.0444 2.72368 34.9802 2.71967 34.9153 2.72214C34.8505 2.72461 34.7866 2.73387 34.7236 2.74931C34.6606 2.76506 34.6001 2.78729 34.5417 2.81539C34.4833 2.8438 34.4284 2.87746 34.3771 2.91729C34.3256 2.95681 34.2789 3.00128 34.2366 3.05038L32.9468 4.3871L34.2271 5.71456Z" fill="#DF1995"/>
</g>
</g>
<mask id="mask18_18_1486" style="mask-type:luminance" maskUnits="userSpaceOnUse" x="3" y="12" width="13" height="12">
<path d="M3.76471 12.1948H15.0686V23.5778H3.76471V12.1948Z" fill="white"/>
</mask>
<g mask="url(#mask18_18_1486)">
<mask id="mask19_18_1486" style="mask-type:luminance" maskUnits="userSpaceOnUse" x="0" y="0" width="57" height="62">
<path d="M0 0.889295V60.3368C0 60.8281 0.39833 61.2261 0.889295 61.2261H55.5917C56.083 61.2261 56.481 60.8281 56.481 60.3368V0.889295C56.481 0.398021 56.083 0 55.5917 0H0.889295C0.39833 0 0 0.398021 0 0.889295Z" fill="white"/>
</mask>
<g mask="url(#mask19_18_1486)">
<path d="M9.41358 23.553C9.5059 23.553 9.59823 23.5506 9.69056 23.5463C9.78288 23.5416 9.87521 23.5348 9.96723 23.5259C10.0589 23.5166 10.1506 23.5055 10.2424 23.4919C10.3338 23.4783 10.4248 23.4626 10.5153 23.4444C10.6061 23.4264 10.6963 23.4061 10.7858 23.3838C10.8754 23.3613 10.9646 23.3366 11.0529 23.3097C11.1415 23.2829 11.2292 23.2538 11.3163 23.223C11.4034 23.1918 11.4895 23.1584 11.5748 23.1229C11.6603 23.0877 11.7449 23.0503 11.8283 23.0108C11.9119 22.9713 11.9944 22.9296 12.0759 22.8861C12.1574 22.8425 12.238 22.7968 12.3171 22.7493C12.3964 22.702 12.4745 22.6523 12.5514 22.6011C12.6283 22.5498 12.7037 22.4964 12.7781 22.4414C12.8522 22.3865 12.9251 22.3296 12.9967 22.271C13.068 22.2123 13.1381 22.1518 13.2064 22.0897C13.2749 22.0277 13.3419 21.964 13.4074 21.8986C13.4725 21.8334 13.5364 21.7664 13.5985 21.6979C13.6606 21.6293 13.7208 21.5595 13.7795 21.4879C13.8381 21.4166 13.8949 21.3437 13.9499 21.2696C14.0052 21.1952 14.0583 21.1195 14.1096 21.0429C14.1611 20.9661 14.2105 20.8879 14.2581 20.8086C14.3056 20.7292 14.351 20.6489 14.3946 20.5674C14.4381 20.4859 14.4798 20.4035 14.5193 20.3198C14.5588 20.2361 14.5962 20.1518 14.6317 20.0663C14.6669 19.981 14.7003 19.8946 14.7314 19.8078C14.7626 19.7207 14.7913 19.633 14.8182 19.5444C14.8451 19.4561 14.8698 19.3669 14.8923 19.2773C14.9149 19.1875 14.9349 19.0976 14.9531 19.0068C14.9711 18.9161 14.9868 18.825 15.0004 18.7336C15.014 18.6422 15.0254 18.5505 15.0344 18.4584C15.0433 18.3664 15.0501 18.2744 15.0547 18.1821C15.0594 18.0897 15.0615 17.9974 15.0615 17.9048C15.0615 17.8125 15.0594 17.7201 15.0547 17.6278C15.0501 17.5355 15.0433 17.4435 15.0344 17.3514C15.0254 17.2594 15.014 17.1677 15.0004 17.0763C14.9868 16.9846 14.9711 16.8938 14.9531 16.803C14.9349 16.7123 14.9149 16.6221 14.8923 16.5326C14.8698 16.443 14.8451 16.3538 14.8182 16.2655C14.7913 16.1768 14.7626 16.0891 14.7314 16.0021C14.7003 15.915 14.6669 15.8288 14.6317 15.7436C14.5962 15.6581 14.5588 15.5738 14.5193 15.4901C14.4798 15.4064 14.4381 15.324 14.3946 15.2425C14.351 15.1609 14.3056 15.0807 14.2581 15.0013C14.2105 14.9219 14.1611 14.8438 14.1096 14.7669C14.0583 14.69 14.0052 14.6147 13.9499 14.5403C13.8949 14.4662 13.8381 14.3933 13.7795 14.322C13.7208 14.2503 13.6606 14.1806 13.5985 14.112C13.5364 14.0435 13.4725 13.9764 13.4074 13.9113C13.3419 13.8458 13.2749 13.7822 13.2064 13.7198C13.1381 13.6578 13.068 13.5976 12.9967 13.5389C12.9251 13.4802 12.8522 13.4234 12.7781 13.3685C12.7037 13.3132 12.6283 13.2601 12.5514 13.2088C12.4745 13.1572 12.3964 13.1078 12.3171 13.0603C12.238 13.013 12.1574 12.9673 12.0759 12.9238C11.9944 12.8803 11.9119 12.8386 11.8283 12.7991C11.7449 12.7595 11.6603 12.7222 11.5748 12.6867C11.4895 12.6515 11.4034 12.6181 11.3163 12.5869C11.2292 12.556 11.1415 12.527 11.0529 12.5002C10.9646 12.4733 10.8754 12.4486 10.7858 12.426C10.6963 12.4038 10.6061 12.3834 10.5153 12.3655C10.4248 12.3473 10.3338 12.3316 10.2424 12.318C10.1506 12.3044 10.0589 12.2933 9.96723 12.284C9.87521 12.2751 9.78288 12.2683 9.69056 12.2636C9.59823 12.2593 9.5059 12.2568 9.41358 12.2568C9.32094 12.2568 9.22862 12.2593 9.13629 12.2636C9.04397 12.2683 8.95195 12.2751 8.85993 12.284C8.76791 12.2933 8.6762 12.3044 8.5848 12.318C8.49341 12.3316 8.40231 12.3473 8.31153 12.3655C8.22106 12.3834 8.13089 12.4038 8.04104 12.426C7.95149 12.4486 7.86225 12.4733 7.77394 12.5002C7.68563 12.527 7.59763 12.556 7.51086 12.5869C7.42378 12.6181 7.33732 12.6515 7.2521 12.6867C7.16656 12.7222 7.08227 12.7595 6.99859 12.7991C6.91522 12.8386 6.83246 12.8803 6.75094 12.9238C6.66942 12.9673 6.58914 13.013 6.50978 13.0603C6.43043 13.1078 6.3523 13.1572 6.27573 13.2088C6.19884 13.2601 6.12319 13.3132 6.04908 13.3685C5.97466 13.4234 5.90179 13.4802 5.83046 13.5389C5.75882 13.5976 5.68904 13.6578 5.62049 13.7198C5.55194 13.7822 5.48493 13.8458 5.41978 13.9113C5.35432 13.9764 5.29071 14.0435 5.22864 14.112C5.16658 14.1806 5.10606 14.2503 5.04739 14.322C4.98872 14.3933 4.9319 14.4662 4.87694 14.5403C4.82198 14.6147 4.76856 14.69 4.7173 14.7669C4.66604 14.8438 4.61663 14.9219 4.56908 15.0013C4.52153 15.0807 4.47583 15.1609 4.43229 15.2425C4.38875 15.324 4.34738 15.4064 4.30785 15.4901C4.26833 15.5738 4.23066 15.6581 4.19545 15.7436C4.15994 15.8288 4.1266 15.915 4.09572 16.0021C4.06453 16.0891 4.0355 16.1768 4.00864 16.2655C3.98178 16.3538 3.95707 16.443 3.93484 16.5326C3.9123 16.6221 3.89192 16.7123 3.87401 16.803C3.85579 16.8938 3.84005 16.9846 3.82646 17.0763C3.81287 17.1677 3.80176 17.2594 3.79249 17.3514C3.78354 17.4435 3.77674 17.5355 3.77211 17.6278C3.76779 17.7201 3.76532 17.8125 3.76532 17.9048C3.76532 17.9974 3.76779 18.0897 3.77211 18.1821C3.77674 18.2744 3.78354 18.3664 3.79249 18.4584C3.80176 18.5505 3.81287 18.6422 3.82646 18.7336C3.84005 18.825 3.85579 18.9161 3.87401 19.0068C3.89192 19.0976 3.9123 19.1875 3.93484 19.2773C3.95707 19.3669 3.98178 19.4561 4.00864 19.5444C4.0355 19.633 4.06453 19.7207 4.09572 19.8078C4.1266 19.8946 4.15994 19.981 4.19545 20.0663C4.23066 20.1518 4.26833 20.2361 4.30785 20.3198C4.34738 20.4035 4.38875 20.4859 4.43229 20.5674C4.47583 20.6489 4.52153 20.7292 4.56908 20.8086C4.61663 20.8879 4.66604 20.9661 4.7173 21.0429C4.76856 21.1195 4.82198 21.1952 4.87694 21.2696C4.9319 21.3437 4.98872 21.4166 5.04739 21.4879C5.10606 21.5595 5.16658 21.6293 5.22864 21.6979C5.29071 21.7664 5.35432 21.8334 5.41978 21.8986C5.48493 21.964 5.55194 22.0277 5.62049 22.0897C5.68904 22.1518 5.75882 22.2123 5.83046 22.271C5.90179 22.3296 5.97466 22.3865 6.04908 22.4414C6.12319 22.4964 6.19884 22.5498 6.27573 22.6011C6.3523 22.6523 6.43043 22.702 6.50978 22.7493C6.58914 22.7968 6.66942 22.8425 6.75094 22.8861C6.83246 22.9296 6.91522 22.9713 6.99859 23.0108C7.08227 23.0503 7.16656 23.0877 7.2521 23.1229C7.33732 23.1584 7.42378 23.1918 7.51086 23.223C7.59763 23.2538 7.68563 23.2829 7.77394 23.3097C7.86225 23.3366 7.95149 23.3613 8.04104 23.3838C8.13089 23.4061 8.22106 23.4264 8.31153 23.4444C8.40231 23.4626 8.49341 23.4783 8.5848 23.4919C8.6762 23.5055 8.76791 23.5166 8.85993 23.5259C8.95195 23.5348 9.04397 23.5416 9.13629 23.5463C9.22862 23.5506 9.32094 23.553 9.41358 23.553ZM9.41358 14.1395C9.53678 14.1395 9.65968 14.1457 9.78257 14.1577C9.90516 14.1697 10.0271 14.188 10.1482 14.212C10.2689 14.2358 10.3884 14.2658 10.5064 14.3016C10.6246 14.3374 10.7404 14.3791 10.8544 14.426C10.9683 14.4733 11.0798 14.5261 11.1885 14.5841C11.2972 14.6422 11.4028 14.7055 11.5053 14.774C11.6078 14.8426 11.7069 14.9161 11.8023 14.9942C11.8974 15.0726 11.9888 15.1551 12.0759 15.2425C12.1633 15.3295 12.246 15.4209 12.3242 15.5163C12.4023 15.6115 12.4758 15.7106 12.5443 15.8131C12.6129 15.9156 12.6762 16.0212 12.7342 16.1299C12.7923 16.2386 12.8451 16.3501 12.8923 16.464C12.9393 16.5779 12.9809 16.6937 13.0168 16.812C13.0526 16.93 13.0825 17.0495 13.1066 17.1702C13.1304 17.2912 13.1486 17.4132 13.1607 17.5358C13.1727 17.6587 13.1789 17.7816 13.1789 17.9048C13.1789 18.0283 13.1727 18.1512 13.1607 18.2741C13.1486 18.3967 13.1304 18.5186 13.1066 18.6394C13.0825 18.7604 13.0526 18.8799 13.0168 18.9979C12.9809 19.1158 12.9393 19.2319 12.8923 19.3459C12.8451 19.4598 12.7923 19.5713 12.7342 19.68C12.6762 19.7887 12.6129 19.8943 12.5443 19.9968C12.4758 20.0993 12.4023 20.1984 12.3242 20.2935C12.246 20.3889 12.1633 20.4803 12.0759 20.5674C11.9888 20.6545 11.8974 20.7373 11.8023 20.8157C11.7069 20.8938 11.6078 20.9673 11.5053 21.0358C11.4028 21.1041 11.2972 21.1677 11.1885 21.2257C11.0798 21.2838 10.9683 21.3366 10.8544 21.3835C10.7404 21.4308 10.6246 21.4725 10.5064 21.5083C10.3884 21.5441 10.2689 21.5737 10.1482 21.5978C10.0271 21.6219 9.90516 21.6401 9.78257 21.6522C9.65968 21.6642 9.53678 21.6704 9.41358 21.6704C9.29007 21.6704 9.16717 21.6642 9.04427 21.6522C8.92169 21.6401 8.79972 21.6219 8.67898 21.5978C8.55794 21.5737 8.43844 21.5441 8.32049 21.5083C8.20253 21.4725 8.08643 21.4308 7.97249 21.3835C7.85855 21.3366 7.74739 21.2838 7.63838 21.2257C7.52969 21.1677 7.42409 21.1041 7.32157 21.0358C7.21906 20.9673 7.11994 20.8938 7.02483 20.8157C6.92942 20.7373 6.83802 20.6545 6.75094 20.5674C6.66387 20.4803 6.58111 20.3889 6.50268 20.2935C6.42456 20.1984 6.35107 20.0993 6.28283 19.9968C6.21428 19.8943 6.15098 19.7887 6.09262 19.68C6.03457 19.5713 5.98207 19.4598 5.93483 19.3459C5.88759 19.2319 5.8459 19.1158 5.81039 18.9979C5.77457 18.8799 5.74462 18.7604 5.72053 18.6394C5.69645 18.5186 5.67823 18.3967 5.66619 18.2741C5.65415 18.1512 5.64797 18.0283 5.64797 17.9048C5.64797 17.7816 5.65415 17.6587 5.66619 17.5358C5.67823 17.4132 5.69645 17.2912 5.72053 17.1702C5.74462 17.0495 5.77457 16.93 5.81039 16.812C5.8459 16.6937 5.88759 16.5779 5.93483 16.464C5.98207 16.3501 6.03457 16.2386 6.09262 16.1299C6.15098 16.0212 6.21428 15.9156 6.28283 15.8131C6.35107 15.7106 6.42456 15.6115 6.50268 15.5163C6.58111 15.4209 6.66387 15.3295 6.75094 15.2425C6.83802 15.1551 6.92942 15.0726 7.02483 14.9942C7.11994 14.9161 7.21906 14.8426 7.32157 14.774C7.42409 14.7055 7.52969 14.6422 7.63838 14.5841C7.74739 14.5261 7.85855 14.4733 7.97249 14.426C8.08643 14.3791 8.20253 14.3374 8.32049 14.3016C8.43844 14.2658 8.55794 14.2358 8.67898 14.212C8.79972 14.188 8.92169 14.1697 9.04427 14.1577C9.16717 14.1457 9.29007 14.1395 9.41358 14.1395Z" fill="#DF1995"/>
</g>
</g>
<mask id="mask20_18_1486" style="mask-type:luminance" maskUnits="userSpaceOnUse" x="0" y="24" width="23" height="36">
<path d="M0 24.4473H22.6573V59.3867H0V24.4473Z" fill="white"/>
</mask>
<g mask="url(#mask20_18_1486)">
<mask id="mask21_18_1486" style="mask-type:luminance" maskUnits="userSpaceOnUse" x="0" y="0" width="57" height="62">
<path d="M0 0.889295V60.3368C0 60.8281 0.39833 61.2261 0.889295 61.2261H55.5917C56.083 61.2261 56.481 60.8281 56.481 60.3368V0.889295C56.481 0.398021 56.083 0 55.5917 0H0.889295C0.39833 0 0 0.398021 0 0.889295Z" fill="white"/>
</mask>
<g mask="url(#mask21_18_1486)">
<path d="M17.7254 43.7446C16.078 41.2595 12.162 40.6759 10.3547 40.4971V33.9077H16.9442C17.0982 33.9077 17.252 33.9 17.4055 33.8848C17.5589 33.8697 17.7112 33.8472 17.8625 33.8172C18.0135 33.7873 18.1629 33.7496 18.3105 33.7048C18.4581 33.6604 18.6029 33.6085 18.7453 33.5495C18.8876 33.4902 19.0269 33.4245 19.1628 33.3519C19.2989 33.2793 19.4308 33.2 19.5589 33.1144C19.6874 33.0289 19.8109 32.9372 19.9301 32.8393C20.0493 32.7414 20.1632 32.638 20.2722 32.529C20.3812 32.42 20.4847 32.306 20.5825 32.1869C20.6804 32.0677 20.7721 31.9441 20.8577 31.8157C20.9432 31.6875 21.0226 31.5557 21.0951 31.4195C21.1677 31.2837 21.2335 31.1444 21.2927 31.0021C21.3517 30.8597 21.4036 30.7149 21.4481 30.5673C21.4928 30.4197 21.5305 30.2702 21.5605 30.1192C21.5904 29.9679 21.613 29.8157 21.6281 29.6622C21.6432 29.5088 21.6509 29.355 21.6509 29.2009C21.6509 29.1392 21.6448 29.078 21.6327 29.0172C21.6207 28.9567 21.6028 28.8977 21.5793 28.8406C21.5555 28.7834 21.5265 28.7294 21.4922 28.6778C21.4579 28.6266 21.4187 28.579 21.3752 28.5352C21.3313 28.4916 21.2838 28.4524 21.2325 28.4182C21.1813 28.3839 21.1269 28.3549 21.0698 28.3314C21.0127 28.3076 20.9537 28.2897 20.8932 28.2777C20.8327 28.2656 20.7712 28.2597 20.7095 28.2597H10.2606C10.2337 28.1279 10.2013 27.9976 10.1633 27.8688C10.1253 27.7398 10.0818 27.6128 10.033 27.4878C9.98388 27.3624 9.92984 27.2395 9.87025 27.1191C9.81096 26.9987 9.74643 26.8807 9.67695 26.7659C9.60747 26.651 9.53306 26.5389 9.45401 26.4305C9.37496 26.3218 9.29128 26.2168 9.20328 26.1153C9.11497 26.0137 9.02264 25.9161 8.9263 25.8225C8.82996 25.729 8.7296 25.6397 8.62554 25.5548C8.52148 25.4699 8.41372 25.3896 8.30287 25.3137C8.1917 25.238 8.07776 25.167 7.96073 25.1009C7.84371 25.0351 7.7239 24.9743 7.60162 24.9184C7.47934 24.8625 7.35521 24.8122 7.22861 24.7671C7.10201 24.722 6.97356 24.6825 6.84356 24.6482C6.71356 24.6143 6.58233 24.5858 6.44986 24.563C6.3177 24.5401 6.18431 24.5229 6.0506 24.5114C5.91659 24.5 5.78258 24.4941 5.64795 24.4941C5.55562 24.4941 5.4633 24.4966 5.37097 24.5009C5.27865 24.5056 5.18663 24.5124 5.09461 24.5213C5.00259 24.5306 4.91088 24.5417 4.81949 24.5553C4.72778 24.5689 4.63699 24.5846 4.54621 24.6028C4.45543 24.6207 4.36527 24.6411 4.27572 24.6634C4.18617 24.6859 4.09693 24.7106 4.00862 24.7375C3.92 24.7643 3.83231 24.7934 3.74523 24.8245C3.65815 24.8554 3.572 24.8888 3.48678 24.9243C3.40124 24.9595 3.31695 24.9968 3.23327 25.0364C3.14959 25.0759 3.06714 25.1176 2.98562 25.1611C2.9041 25.2047 2.82382 25.2504 2.74446 25.2979C2.66511 25.3455 2.58698 25.3949 2.5101 25.4461C2.43321 25.4974 2.35787 25.5508 2.28345 25.6058C2.20934 25.6607 2.13647 25.7175 2.06514 25.7762C1.9935 25.8349 1.92372 25.8954 1.85517 25.9575C1.78662 26.0195 1.71961 26.0831 1.65446 26.1486C1.589 26.2138 1.52539 26.2808 1.46332 26.3493C1.40095 26.4179 1.34074 26.4876 1.28207 26.5593C1.2234 26.6306 1.16658 26.7035 1.11162 26.7776C1.05635 26.852 1.00324 26.9277 0.951978 27.0042C0.90072 27.0811 0.851006 27.1592 0.803762 27.2386C0.75621 27.318 0.71051 27.3982 0.666971 27.4798C0.623433 27.5613 0.581747 27.6437 0.542223 27.7274C0.502699 27.8111 0.465336 27.8954 0.430135 27.9809C0.394625 28.0661 0.361276 28.1526 0.330089 28.2394C0.299211 28.3264 0.270185 28.4141 0.243321 28.5028C0.216457 28.5911 0.191754 28.6803 0.169213 28.7699C0.146981 28.8597 0.126601 28.9499 0.108692 29.0404C0.0904734 29.1311 0.0747254 29.2222 0.061139 29.3136C0.0475525 29.405 0.0364364 29.4967 0.0271729 29.5888C0.0182182 29.6808 0.0114249 29.7728 0.00679323 29.8651C0.00247022 29.9574 0 30.0498 0 30.1424V40.4971C0 43.1045 1.57201 48.0277 7.53091 48.0277H12.548L17.0195 58.7403C17.0547 58.8262 17.1019 58.9052 17.1606 58.9772C17.2193 59.0491 17.2872 59.1112 17.3641 59.1631C17.4413 59.2149 17.5241 59.2548 17.613 59.2819C17.7016 59.3094 17.7927 59.3233 17.8856 59.3239C18.0107 59.327 18.1299 59.302 18.2432 59.2486C18.3 59.2248 18.3538 59.1958 18.4047 59.1615C18.4557 59.1272 18.5029 59.0883 18.5464 59.0448C18.5897 59.0013 18.6286 58.954 18.6625 58.9031C18.6968 58.8518 18.7255 58.7981 18.7493 58.7413C18.7728 58.6844 18.7907 58.6261 18.8027 58.5659C18.8148 58.5057 18.8209 58.4448 18.8213 58.3834C18.8216 58.3219 18.8157 58.2608 18.804 58.2006C18.7922 58.1404 18.7746 58.0817 18.7515 58.0249L14.045 46.7287C14.0095 46.6428 13.9625 46.5638 13.9039 46.4918C13.8452 46.4196 13.7773 46.3578 13.7001 46.3056C13.6232 46.2538 13.5401 46.2142 13.4515 46.1868C13.3626 46.1596 13.2718 46.1454 13.1789 46.1451H7.53091C2.08027 46.1451 1.88265 41.0712 1.88265 40.4971V30.1424C1.88265 30.0189 1.88883 29.896 1.90087 29.7731C1.91291 29.6505 1.93113 29.5285 1.95521 29.4078C1.9793 29.2868 2.00894 29.1673 2.04476 29.0493C2.08058 28.9314 2.12227 28.8152 2.16951 28.7013C2.21644 28.5874 2.26925 28.4762 2.3273 28.3672C2.38535 28.2585 2.44865 28.1529 2.5172 28.0504C2.58575 27.9479 2.65924 27.8488 2.73736 27.7537C2.81579 27.6582 2.89824 27.5668 2.98562 27.4798C3.0727 27.3927 3.1641 27.3099 3.25951 27.2315C3.35462 27.1534 3.45374 27.0799 3.55625 27.0113C3.65877 26.9431 3.76437 26.8798 3.87307 26.8214C3.98176 26.7634 4.09323 26.7106 4.20717 26.6636C4.32111 26.6164 4.43721 26.5747 4.55517 26.5389C4.67312 26.5034 4.79262 26.4734 4.91366 26.4494C5.0344 26.4253 5.15637 26.4071 5.27895 26.395C5.40185 26.383 5.52475 26.3768 5.64795 26.3768C5.74058 26.3768 5.83291 26.3814 5.92493 26.3904C6.01695 26.3996 6.10835 26.4132 6.19913 26.4311C6.2896 26.4494 6.37946 26.4716 6.46777 26.4985C6.55639 26.5253 6.64347 26.5565 6.72869 26.592C6.81422 26.6272 6.8979 26.6667 6.97942 26.7103C7.06094 26.7541 7.13999 26.8014 7.21718 26.8529C7.29407 26.9042 7.36818 26.9592 7.43951 27.0178C7.51115 27.0765 7.5797 27.1386 7.64485 27.204C7.71031 27.2695 7.77238 27.338 7.83105 27.4094C7.88971 27.481 7.94468 27.5551 7.99624 27.632C8.0475 27.7089 8.09506 27.7882 8.13859 27.8698C8.18213 27.9513 8.22166 28.0346 8.25717 28.1202C8.29268 28.2057 8.32355 28.2928 8.35042 28.3811C8.37728 28.4697 8.39982 28.5593 8.41773 28.6501C8.43595 28.7408 8.44954 28.8322 8.45849 28.9243C8.46745 29.0163 8.47208 29.1086 8.47208 29.2009C8.47208 29.2627 8.47825 29.3238 8.4903 29.3846C8.50234 29.4452 8.52025 29.5041 8.54372 29.5613C8.56749 29.6184 8.59652 29.6724 8.63079 29.724C8.66507 29.7753 8.70398 29.8228 8.74782 29.8667C8.79167 29.9102 8.83922 29.9494 8.89048 29.9837C8.94174 30.018 8.99608 30.047 9.05321 30.0708C9.11033 30.0942 9.16931 30.1121 9.22983 30.1242C9.29035 30.1362 9.3518 30.1424 9.41356 30.1424H19.608C19.5599 30.2792 19.5012 30.4117 19.4323 30.5395C19.3635 30.6673 19.2854 30.789 19.1977 30.9048C19.1103 31.0206 19.0142 31.129 18.9099 31.2299C18.8055 31.3309 18.694 31.4232 18.5755 31.5072C18.4569 31.5909 18.3328 31.6653 18.2028 31.7299C18.0728 31.7944 17.9384 31.8487 17.8001 31.8926C17.6618 31.9364 17.5207 31.9695 17.3771 31.9917C17.2338 32.0139 17.0893 32.025 16.9442 32.025H7.53091C7.46884 32.025 7.4077 32.0309 7.34718 32.043C7.28666 32.055 7.22768 32.0729 7.17056 32.0967C7.11343 32.1202 7.05909 32.1492 7.00783 32.1835C6.95626 32.218 6.90871 32.2569 6.86517 32.3008C6.82133 32.3443 6.78242 32.3919 6.74814 32.4435C6.71387 32.4947 6.68484 32.5491 6.66107 32.6062C6.63729 32.6633 6.61969 32.722 6.60765 32.7828C6.5956 32.8433 6.58943 32.9045 6.58943 32.9662C6.58943 33.028 6.5956 33.0894 6.60765 33.1499C6.61969 33.2105 6.63729 33.2694 6.66107 33.3266C6.68484 33.3837 6.71387 33.4377 6.74814 33.4893C6.78242 33.5406 6.82133 33.5881 6.86517 33.632C6.90871 33.6755 6.95626 33.7147 7.00783 33.749C7.05909 33.7833 7.11343 33.8123 7.17056 33.8361C7.22768 33.8595 7.28666 33.8774 7.34718 33.8895C7.4077 33.9015 7.46884 33.9077 7.53091 33.9077H8.47208V41.4383C8.47208 41.5001 8.47825 41.5615 8.4903 41.622C8.50234 41.6825 8.52025 41.7415 8.54372 41.7986C8.56749 41.8558 8.59652 41.9098 8.63079 41.9614C8.66507 42.0126 8.70398 42.0602 8.74782 42.104C8.79167 42.1476 8.83922 42.1868 8.89048 42.2211C8.94174 42.2553 8.99608 42.2844 9.05321 42.3081C9.11033 42.3316 9.16931 42.3495 9.22983 42.3616C9.29035 42.3736 9.3518 42.3798 9.41356 42.3798C10.8442 42.3798 14.8451 42.8127 16.1629 44.7803C17.9421 47.4534 20.7095 57.5824 20.7095 57.6858C20.7234 57.7368 20.741 57.7862 20.7632 57.8344C20.7851 57.8822 20.811 57.9282 20.8407 57.9718C20.8703 58.0153 20.9037 58.0561 20.9401 58.0944C20.9769 58.1323 21.0164 58.1669 21.0587 58.1984C21.101 58.2299 21.1458 58.2574 21.193 58.2812C21.2399 58.3053 21.2887 58.325 21.3391 58.3405C21.3897 58.3562 21.441 58.3676 21.4931 58.3747C21.5456 58.3815 21.5981 58.3843 21.6509 58.3825C21.7325 58.3964 21.814 58.3964 21.8955 58.3825C21.9548 58.3661 22.0119 58.3442 22.0666 58.3167C22.1215 58.2892 22.1731 58.2565 22.2216 58.2188C22.2704 58.1814 22.3145 58.1394 22.355 58.0931C22.3951 58.0468 22.4306 57.9968 22.4612 57.9437C22.4918 57.8906 22.5168 57.8347 22.5365 57.7766C22.556 57.7186 22.5699 57.659 22.5779 57.5981C22.5859 57.5373 22.5881 57.4762 22.5841 57.415C22.5801 57.3536 22.5702 57.2934 22.5544 57.2341C22.4417 56.7635 19.6741 46.6533 17.7254 43.7446Z" fill="#DF1995"/>
</g>
</g>
<mask id="mask22_18_1486" style="mask-type:luminance" maskUnits="userSpaceOnUse" x="41" y="12" width="12" height="12">
<path d="M41.3917 12.1948H52.7747V23.5778H41.3917V12.1948Z" fill="white"/>
</mask>
<g mask="url(#mask22_18_1486)">
<mask id="mask23_18_1486" style="mask-type:luminance" maskUnits="userSpaceOnUse" x="0" y="0" width="57" height="62">
<path d="M0 0.889295V60.3368C0 60.8281 0.39833 61.2261 0.889295 61.2261H55.5917C56.083 61.2261 56.481 60.8281 56.481 60.3368V0.889295C56.481 0.398021 56.083 0 55.5917 0H0.889295C0.39833 0 0 0.398021 0 0.889295Z" fill="white"/>
</mask>
<g mask="url(#mask23_18_1486)">
<path d="M47.0671 23.553C47.1595 23.553 47.2518 23.5506 47.3441 23.5463C47.4364 23.5416 47.5288 23.5348 47.6208 23.5259C47.7125 23.5166 47.8042 23.5055 47.8959 23.4919C47.9873 23.4783 48.0784 23.4626 48.1689 23.4444C48.2597 23.4264 48.3498 23.4061 48.4394 23.3838C48.5289 23.3613 48.6182 23.3366 48.7065 23.3097C48.7951 23.2829 48.8828 23.2538 48.9699 23.223C49.0569 23.1918 49.1431 23.1584 49.2283 23.1229C49.3138 23.0877 49.3985 23.0503 49.4818 23.0108C49.5655 22.9713 49.648 22.9296 49.7295 22.8861C49.811 22.8425 49.8916 22.7968 49.9706 22.7493C50.05 22.702 50.1281 22.6523 50.205 22.6011C50.2819 22.5498 50.3572 22.4964 50.4316 22.4414C50.5058 22.3865 50.5786 22.3296 50.6503 22.271C50.7216 22.2123 50.7917 22.1518 50.8599 22.0897C50.9285 22.0277 50.9955 21.964 51.0609 21.8986C51.1261 21.8334 51.19 21.7664 51.2521 21.6979C51.3141 21.6293 51.3744 21.5595 51.433 21.4879C51.4917 21.4166 51.5485 21.3437 51.6035 21.2696C51.6587 21.1952 51.7119 21.1195 51.7631 21.0429C51.8147 20.9661 51.8641 20.8879 51.9116 20.8086C51.9592 20.7292 52.0046 20.6489 52.0481 20.5674C52.0917 20.4859 52.1333 20.4035 52.1729 20.3198C52.2124 20.2361 52.2498 20.1518 52.2853 20.0663C52.3205 19.981 52.3538 19.8946 52.385 19.8078C52.4162 19.7207 52.4449 19.633 52.4718 19.5444C52.4986 19.4561 52.5233 19.3669 52.5459 19.2773C52.5684 19.1875 52.5885 19.0976 52.6064 19.0068C52.6246 18.9161 52.6404 18.825 52.654 18.7336C52.6675 18.6422 52.679 18.5505 52.6879 18.4584C52.6969 18.3664 52.7037 18.2744 52.7083 18.1821C52.7129 18.0897 52.7151 17.9974 52.7151 17.9048C52.7151 17.8125 52.7129 17.7201 52.7083 17.6278C52.7037 17.5355 52.6969 17.4435 52.6879 17.3514C52.679 17.2594 52.6675 17.1677 52.654 17.0763C52.6404 16.9846 52.6246 16.8938 52.6067 16.803C52.5885 16.7123 52.5684 16.6221 52.5459 16.5326C52.5233 16.443 52.4986 16.3538 52.4718 16.2655C52.4449 16.1768 52.4162 16.0891 52.385 16.0021C52.3538 15.915 52.3205 15.8288 52.2853 15.7436C52.2498 15.6581 52.2124 15.5738 52.1729 15.4901C52.1333 15.4064 52.0917 15.324 52.0481 15.2425C52.0046 15.1609 51.9592 15.0807 51.9116 15.0013C51.8641 14.9219 51.8147 14.8438 51.7631 14.7669C51.7119 14.69 51.6587 14.6147 51.6035 14.5403C51.5485 14.4662 51.4917 14.3933 51.433 14.322C51.3744 14.2503 51.3141 14.1806 51.2521 14.112C51.19 14.0435 51.1261 13.9764 51.0609 13.9113C50.9955 13.8458 50.9285 13.7822 50.8599 13.7198C50.7917 13.6578 50.7216 13.5976 50.6503 13.5389C50.5786 13.4802 50.5058 13.4234 50.4316 13.3685C50.3572 13.3132 50.2819 13.2601 50.205 13.2088C50.1281 13.1572 50.05 13.1078 49.9706 13.0603C49.8916 13.013 49.811 12.9673 49.7295 12.9238C49.648 12.8803 49.5655 12.8386 49.4818 12.7991C49.3985 12.7595 49.3138 12.7222 49.2283 12.6867C49.1431 12.6515 49.0569 12.6181 48.9699 12.5869C48.8828 12.556 48.7951 12.527 48.7065 12.5002C48.6182 12.4733 48.5289 12.4486 48.4394 12.426C48.3498 12.4038 48.2597 12.3834 48.1689 12.3655C48.0784 12.3473 47.9873 12.3316 47.8959 12.318C47.8042 12.3044 47.7125 12.2933 47.6208 12.284C47.5288 12.2751 47.4364 12.2683 47.3441 12.2636C47.2518 12.2593 47.1595 12.2568 47.0671 12.2568C46.9745 12.2568 46.8822 12.2593 46.7899 12.2636C46.6975 12.2683 46.6055 12.2751 46.5135 12.284C46.4215 12.2933 46.3298 12.3044 46.2384 12.318C46.147 12.3316 46.0559 12.3473 45.9651 12.3655C45.8746 12.3834 45.7845 12.4038 45.6946 12.426C45.6051 12.4486 45.5158 12.4733 45.4275 12.5002C45.3392 12.527 45.2512 12.556 45.1644 12.5869C45.0773 12.6181 44.9909 12.6515 44.9057 12.6867C44.8201 12.7222 44.7358 12.7595 44.6522 12.7991C44.5688 12.8386 44.486 12.8803 44.4045 12.9238C44.323 12.9673 44.2427 13.013 44.1633 13.0603C44.084 13.1078 44.0059 13.1572 43.9293 13.2088C43.8524 13.2601 43.7768 13.3132 43.7026 13.3685C43.6282 13.4234 43.5554 13.4802 43.484 13.5389C43.4124 13.5976 43.3426 13.6578 43.2741 13.7198C43.2055 13.7822 43.1385 13.8458 43.0733 13.9113C43.0079 13.9764 42.9443 14.0435 42.8822 14.112C42.8201 14.1806 42.7596 14.2503 42.701 14.322C42.6423 14.3933 42.5855 14.4662 42.5305 14.5403C42.4755 14.6147 42.4221 14.69 42.3709 14.7669C42.3196 14.8438 42.2702 14.9219 42.2226 15.0013C42.1751 15.0807 42.1294 15.1609 42.0859 15.2425C42.0423 15.324 42.0009 15.4064 41.9614 15.4901C41.9219 15.5738 41.8842 15.6581 41.849 15.7436C41.8135 15.8288 41.7802 15.915 41.7493 16.0021C41.7181 16.0891 41.6891 16.1768 41.6622 16.2655C41.6353 16.3538 41.6106 16.443 41.5884 16.5326C41.5659 16.6221 41.5455 16.7123 41.5276 16.803C41.5094 16.8938 41.4936 16.9846 41.48 17.0763C41.4664 17.1677 41.4553 17.2594 41.4461 17.3514C41.4371 17.4435 41.4303 17.5355 41.4257 17.6278C41.4214 17.7201 41.4189 17.8125 41.4189 17.9048C41.4189 17.9974 41.4214 18.0897 41.4257 18.1821C41.4303 18.2744 41.4371 18.3664 41.4461 18.4584C41.4553 18.5505 41.4664 18.6422 41.48 18.7336C41.4936 18.825 41.5094 18.9161 41.5276 19.0068C41.5455 19.0976 41.5659 19.1875 41.5884 19.2773C41.6106 19.3669 41.6353 19.4561 41.6622 19.5444C41.6891 19.633 41.7181 19.7207 41.7493 19.8078C41.7802 19.8946 41.8135 19.981 41.849 20.0663C41.8842 20.1518 41.9219 20.2361 41.9614 20.3198C42.0009 20.4035 42.0423 20.4859 42.0859 20.5674C42.1294 20.6489 42.1751 20.7292 42.2226 20.8086C42.2702 20.8879 42.3196 20.9661 42.3709 21.0429C42.4221 21.1195 42.4755 21.1952 42.5305 21.2696C42.5855 21.3437 42.6423 21.4166 42.701 21.4879C42.7596 21.5595 42.8201 21.6293 42.8822 21.6979C42.9443 21.7664 43.0079 21.8334 43.0733 21.8986C43.1385 21.964 43.2055 22.0277 43.2741 22.0897C43.3426 22.1518 43.4124 22.2123 43.484 22.271C43.5554 22.3296 43.6282 22.3865 43.7026 22.4414C43.7768 22.4964 43.8524 22.5498 43.9293 22.6011C44.0059 22.6523 44.084 22.702 44.1633 22.7493C44.2427 22.7968 44.323 22.8425 44.4045 22.8861C44.486 22.9296 44.5688 22.9713 44.6522 23.0108C44.7358 23.0503 44.8201 23.0877 44.9057 23.1229C44.9909 23.1584 45.0773 23.1918 45.1644 23.223C45.2512 23.2538 45.3392 23.2829 45.4275 23.3097C45.5158 23.3366 45.6051 23.3613 45.6946 23.3838C45.7845 23.4061 45.8746 23.4264 45.9651 23.4444C46.0559 23.4626 46.147 23.4783 46.2384 23.4919C46.3298 23.5055 46.4215 23.5166 46.5135 23.5259C46.6055 23.5348 46.6975 23.5416 46.7899 23.5463C46.8822 23.5506 46.9745 23.553 47.0671 23.553ZM47.0671 14.1395C47.1903 14.1395 47.3132 14.1457 47.4361 14.1577C47.5587 14.1697 47.6807 14.188 47.8017 14.212C47.9225 14.2358 48.042 14.2658 48.1599 14.3016C48.2782 14.3374 48.394 14.3791 48.5079 14.426C48.6219 14.4733 48.7333 14.5261 48.842 14.5841C48.9507 14.6422 49.0563 14.7055 49.1588 14.774C49.2614 14.8426 49.3605 14.9161 49.4559 14.9942C49.551 15.0726 49.6424 15.1551 49.7295 15.2425C49.8169 15.3295 49.8996 15.4209 49.9777 15.5163C50.0559 15.6115 50.1293 15.7106 50.1979 15.8131C50.2664 15.9156 50.3297 16.0212 50.3878 16.1299C50.4458 16.2386 50.4986 16.3501 50.5459 16.464C50.5928 16.5779 50.6345 16.6937 50.6703 16.812C50.7062 16.93 50.7361 17.0495 50.7602 17.1702C50.784 17.2912 50.8022 17.4132 50.8142 17.5358C50.8263 17.6587 50.8324 17.7816 50.8324 17.9048C50.8324 18.0283 50.8263 18.1512 50.8142 18.2741C50.8022 18.3967 50.784 18.5186 50.7602 18.6394C50.7361 18.7604 50.7062 18.8799 50.6703 18.9979C50.6345 19.1158 50.5928 19.2319 50.5459 19.3459C50.4986 19.4598 50.4458 19.5713 50.3878 19.68C50.3297 19.7887 50.2664 19.8943 50.1979 19.9968C50.1293 20.0993 50.0559 20.1984 49.9777 20.2935C49.8996 20.3889 49.8169 20.4803 49.7295 20.5674C49.6424 20.6545 49.551 20.7373 49.4559 20.8157C49.3605 20.8938 49.2614 20.9673 49.1588 21.0358C49.0563 21.1041 48.9507 21.1677 48.842 21.2257C48.7333 21.2838 48.6219 21.3366 48.5079 21.3835C48.394 21.4308 48.2782 21.4725 48.1599 21.5083C48.042 21.5441 47.9225 21.5737 47.8017 21.5978C47.6807 21.6219 47.5587 21.6401 47.4361 21.6522C47.3132 21.6642 47.1903 21.6704 47.0671 21.6704C46.9436 21.6704 46.8207 21.6642 46.6978 21.6522C46.5753 21.6401 46.4533 21.6219 46.3325 21.5978C46.2115 21.5737 46.092 21.5441 45.9741 21.5083C45.8561 21.4725 45.74 21.4308 45.6261 21.3835C45.5121 21.3366 45.4009 21.2838 45.2919 21.2257C45.1833 21.1677 45.0777 21.1041 44.9751 21.0358C44.8726 20.9673 44.7735 20.8938 44.6784 20.8157C44.583 20.7373 44.4916 20.6545 44.4045 20.5674C44.3174 20.4803 44.2347 20.3889 44.1562 20.2935C44.0781 20.1984 44.0046 20.0993 43.9364 19.9968C43.8678 19.8943 43.8045 19.7887 43.7462 19.68C43.6881 19.5713 43.6356 19.4598 43.5884 19.3459C43.5411 19.2319 43.4995 19.1158 43.464 18.9979C43.4281 18.8799 43.3982 18.7604 43.3741 18.6394C43.35 18.5186 43.3318 18.3967 43.3198 18.2741C43.3077 18.1512 43.3015 18.0283 43.3015 17.9048C43.3015 17.7816 43.3077 17.6587 43.3198 17.5358C43.3318 17.4132 43.35 17.2912 43.3741 17.1702C43.3982 17.0495 43.4281 16.93 43.464 16.812C43.4995 16.6937 43.5411 16.5779 43.5884 16.464C43.6356 16.3501 43.6881 16.2386 43.7462 16.1299C43.8045 16.0212 43.8678 15.9156 43.9364 15.8131C44.0046 15.7106 44.0781 15.6115 44.1562 15.5163C44.2347 15.4209 44.3174 15.3295 44.4045 15.2425C44.4916 15.1551 44.583 15.0726 44.6784 14.9942C44.7735 14.9161 44.8726 14.8426 44.9751 14.774C45.0777 14.7055 45.1833 14.6422 45.2919 14.5841C45.4009 14.5261 45.5121 14.4733 45.6261 14.426C45.74 14.3791 45.8561 14.3374 45.9741 14.3016C46.092 14.2658 46.2115 14.2358 46.3325 14.212C46.4533 14.188 46.5753 14.1697 46.6978 14.1577C46.8207 14.1457 46.9436 14.1395 47.0671 14.1395Z" fill="#DF1995"/>
</g>
</g>
<mask id="mask24_18_1486" style="mask-type:luminance" maskUnits="userSpaceOnUse" x="33" y="24" width="24" height="36">
<path d="M33.8821 24.4473H56.49V59.3867H33.8821V24.4473Z" fill="white"/>
</mask>
<g mask="url(#mask24_18_1486)">
<mask id="mask25_18_1486" style="mask-type:luminance" maskUnits="userSpaceOnUse" x="0" y="0" width="57" height="62">
<path d="M0 0.889295V60.3368C0 60.8281 0.39833 61.2261 0.889295 61.2261H55.5917C56.083 61.2261 56.481 60.8281 56.481 60.3368V0.889295C56.481 0.398021 56.083 0 55.5917 0H0.889295C0.39833 0 0 0.398021 0 0.889295Z" fill="white"/>
</mask>
<g mask="url(#mask25_18_1486)">
<path d="M50.8325 24.4941C50.6982 24.4941 50.5639 24.5 50.4301 24.5114C50.2961 24.5229 50.1631 24.5401 50.0306 24.563C49.8981 24.5858 49.7669 24.6143 49.6369 24.6482C49.5069 24.6825 49.3787 24.722 49.2521 24.7671C49.1255 24.8122 49.0011 24.8625 48.8788 24.9184C48.7565 24.9743 48.6367 25.0351 48.5197 25.1012C48.4027 25.167 48.2887 25.238 48.1776 25.3137C48.0667 25.3896 47.9593 25.4699 47.8552 25.5548C47.7508 25.6397 47.6508 25.729 47.5541 25.8225C47.4578 25.9161 47.3655 26.0137 47.2775 26.1153C47.1895 26.2168 47.1058 26.3218 47.0267 26.4305C46.9474 26.5389 46.8733 26.651 46.8038 26.7659C46.734 26.8807 46.6698 26.9987 46.6102 27.1191C46.5509 27.2395 46.4966 27.3624 46.4478 27.4878C46.3987 27.6128 46.3551 27.7398 46.3172 27.8688C46.2792 27.9976 46.2468 28.1279 46.2199 28.2597H35.771C35.7092 28.2597 35.6481 28.2656 35.5873 28.2777C35.5267 28.2897 35.4678 28.3076 35.4106 28.3314C35.3538 28.3549 35.2995 28.3839 35.2479 28.4182C35.1966 28.4524 35.1491 28.4916 35.1052 28.5352C35.0617 28.579 35.0228 28.6266 34.9882 28.6778C34.9539 28.7294 34.9249 28.7834 34.9015 28.8406C34.8777 28.8977 34.8598 28.9567 34.8477 29.0172C34.8357 29.078 34.8298 29.1392 34.8298 29.2009C34.8298 29.355 34.8372 29.5088 34.8524 29.6622C34.8675 29.8157 34.89 29.9679 34.92 30.1192C34.9502 30.2702 34.9876 30.4197 35.0324 30.5673C35.0771 30.7149 35.129 30.8597 35.188 31.0021C35.247 31.1444 35.3127 31.2837 35.3853 31.4195C35.4582 31.5557 35.5372 31.6875 35.6228 31.8157C35.7086 31.9441 35.8003 32.0677 35.8979 32.1869C35.9958 32.306 36.0992 32.42 36.2082 32.529C36.3172 32.638 36.4312 32.7414 36.5504 32.8393C36.6695 32.9372 36.7934 33.0289 36.9215 33.1144C37.0497 33.2 37.1818 33.2793 37.3177 33.3519C37.4535 33.4245 37.5928 33.4902 37.7352 33.5495C37.8775 33.6085 38.0226 33.6604 38.1702 33.7048C38.3175 33.7496 38.467 33.7873 38.6183 33.8172C38.7693 33.8472 38.9215 33.8697 39.075 33.8848C39.2284 33.9 39.3822 33.9077 39.5363 33.9077H46.1257V40.4971C44.3184 40.6382 40.4024 41.2218 38.7551 43.7069C36.8063 46.6157 34.0483 56.7258 33.926 57.1587C33.9103 57.218 33.9004 57.2782 33.8964 57.3397C33.8927 57.4008 33.8945 57.462 33.9025 57.5228C33.9106 57.5836 33.9245 57.6432 33.9442 57.7013C33.9637 57.7593 33.989 57.8152 34.0193 57.8683C34.0498 57.9218 34.0853 57.9715 34.1258 58.0178C34.1659 58.0641 34.2104 58.1061 34.2589 58.1438C34.3074 58.1811 34.3589 58.2139 34.4139 58.2413C34.4688 58.2688 34.5257 58.2907 34.5849 58.3071C34.6621 58.3466 34.7437 58.372 34.8298 58.3825C34.8823 58.3843 34.9351 58.3815 34.9873 58.3747C35.0395 58.3676 35.091 58.3562 35.1414 58.3405C35.1917 58.325 35.2405 58.3053 35.2874 58.2812C35.3347 58.2574 35.3794 58.2299 35.4217 58.1984C35.4644 58.1669 35.5039 58.1323 35.5403 58.0944C35.5771 58.0561 35.6101 58.0153 35.6398 57.9718C35.6697 57.9282 35.6953 57.8822 35.7176 57.8344C35.7395 57.7862 35.7574 57.7368 35.771 57.6858C35.771 57.5824 38.5951 47.4534 40.3555 44.7803C41.6261 42.8223 45.6363 42.3798 47.0672 42.3798C47.1289 42.3798 47.1901 42.3736 47.2506 42.3616C47.3114 42.3495 47.3701 42.3316 47.4272 42.3081C47.4844 42.2844 47.5387 42.2553 47.59 42.2211C47.6415 42.1868 47.6891 42.1476 47.7326 42.104C47.7765 42.0602 47.8154 42.0126 47.8496 41.9614C47.8842 41.9098 47.9133 41.8558 47.9367 41.7986C47.9605 41.7415 47.9784 41.6825 47.9905 41.622C48.0025 41.5615 48.0084 41.5001 48.0084 41.4383V33.9077H48.9498C49.0116 33.9077 49.0727 33.9015 49.1336 33.8895C49.1941 33.8774 49.2528 33.8595 49.3099 33.8361C49.367 33.8123 49.4214 33.7833 49.4726 33.749C49.5242 33.7147 49.5717 33.6755 49.6153 33.632C49.6591 33.5881 49.698 33.5406 49.7326 33.4893C49.7669 33.4377 49.7959 33.3837 49.8194 33.3266C49.8432 33.2694 49.8611 33.2105 49.8731 33.1499C49.8851 33.0894 49.891 33.028 49.891 32.9662C49.891 32.9045 49.8851 32.8433 49.8731 32.7828C49.8611 32.722 49.8432 32.6633 49.8194 32.6062C49.7959 32.5491 49.7669 32.4947 49.7326 32.4435C49.698 32.3919 49.6591 32.3443 49.6153 32.3008C49.5717 32.2569 49.5242 32.218 49.4726 32.1835C49.4214 32.1492 49.367 32.1202 49.3099 32.0967C49.2528 32.0729 49.1941 32.055 49.1336 32.043C49.0727 32.0309 49.0116 32.025 48.9498 32.025H39.5363C39.3912 32.025 39.247 32.0139 39.1034 31.9917C38.9598 31.9695 38.819 31.9364 38.6806 31.8926C38.542 31.8487 38.408 31.7944 38.278 31.7299C38.148 31.6653 38.0236 31.5909 37.905 31.5072C37.7864 31.4232 37.6749 31.3309 37.5706 31.2299C37.4665 31.129 37.3705 31.0206 37.2828 30.9048C37.1951 30.789 37.117 30.6673 37.0481 30.5395C36.9793 30.4117 36.9209 30.2792 36.8724 30.1424H47.0672C47.1289 30.1424 47.1901 30.1362 47.2506 30.1242C47.3114 30.1121 47.3701 30.0942 47.4272 30.0708C47.4844 30.047 47.5387 30.018 47.59 29.9837C47.6415 29.9494 47.6891 29.9102 47.7326 29.8667C47.7765 29.8228 47.8154 29.7753 47.8496 29.724C47.8842 29.6724 47.9133 29.6184 47.9367 29.5613C47.9605 29.5041 47.9784 29.4452 47.9905 29.3846C48.0025 29.3238 48.0084 29.2627 48.0084 29.2009C48.0084 29.1086 48.013 29.0163 48.0219 28.9243C48.0312 28.8322 48.0448 28.7408 48.0627 28.6501C48.0806 28.5593 48.1032 28.4697 48.13 28.3811C48.1569 28.2928 48.1881 28.2057 48.2233 28.1202C48.2588 28.0346 48.2983 27.9513 48.3418 27.8698C48.3854 27.7882 48.4329 27.7089 48.4845 27.632C48.5358 27.5551 48.5907 27.481 48.6494 27.4094C48.7081 27.338 48.7701 27.2695 48.8356 27.204C48.9011 27.1386 48.9693 27.0765 49.0409 27.0178C49.1123 26.9592 49.1867 26.9042 49.2636 26.8529C49.3405 26.8014 49.4195 26.7541 49.5013 26.7103C49.5828 26.6667 49.6662 26.6272 49.7518 26.592C49.8373 26.5565 49.9241 26.5253 50.0127 26.4985C50.1013 26.4716 50.1908 26.4494 50.2816 26.4311C50.3721 26.4132 50.4635 26.3996 50.5555 26.3904C50.6478 26.3814 50.7399 26.3768 50.8325 26.3768C50.9557 26.3768 51.0789 26.383 51.2015 26.395C51.3244 26.4071 51.446 26.4253 51.5671 26.4494C51.6881 26.4734 51.8073 26.5034 51.9256 26.5389C52.0435 26.5747 52.1593 26.6164 52.2733 26.6636C52.3872 26.7106 52.4987 26.7634 52.6074 26.8214C52.7161 26.8798 52.822 26.9431 52.9245 27.0113C53.027 27.0799 53.1258 27.1534 53.2212 27.2315C53.3167 27.3099 53.4077 27.3927 53.4948 27.4798C53.5822 27.5668 53.665 27.6582 53.7431 27.7537C53.8212 27.8488 53.8947 27.9479 53.9632 28.0504C54.0318 28.1529 54.0951 28.2585 54.1531 28.3672C54.2112 28.4762 54.264 28.5874 54.3112 28.7013C54.3585 28.8152 54.3999 28.9314 54.4357 29.0493C54.4715 29.1673 54.5015 29.2868 54.5255 29.4078C54.5496 29.5285 54.5675 29.6505 54.5796 29.7731C54.5919 29.896 54.5978 30.0189 54.5978 30.1424V40.4971C54.5978 41.0712 54.4002 46.1451 48.9498 46.1451H43.3016C43.2089 46.1454 43.1179 46.1596 43.0292 46.1868C42.9403 46.2142 42.8576 46.2538 42.7804 46.3056C42.7032 46.3578 42.6355 46.4196 42.5769 46.4918C42.5179 46.5638 42.471 46.6428 42.4358 46.7287L37.729 58.0249C37.7058 58.0817 37.6882 58.1404 37.6765 58.2006C37.6651 58.2608 37.6592 58.3219 37.6595 58.3834C37.6595 58.4448 37.6657 58.5057 37.6777 58.5659C37.6901 58.6261 37.7077 58.6844 37.7314 58.7413C37.7549 58.7981 37.7836 58.8518 37.8179 58.9031C37.8522 58.954 37.8908 59.0013 37.9343 59.0448C37.9775 59.0883 38.0248 59.1272 38.0757 59.1615C38.1267 59.1958 38.1807 59.2248 38.2372 59.2486C38.3506 59.302 38.4697 59.327 38.5951 59.3239C38.6881 59.3233 38.7788 59.3094 38.8675 59.2819C38.9564 59.2548 39.0395 59.2149 39.1163 59.1631C39.1935 59.1112 39.2615 59.0491 39.3201 58.9772C39.3788 58.9052 39.4257 58.8262 39.4609 58.7403L43.9324 48.0277H48.9498C54.9084 48.0277 56.4804 43.1045 56.4804 40.4971V30.1424C56.4804 30.0498 56.4783 29.9574 56.4736 29.8651C56.469 29.7728 56.4622 29.6808 56.4533 29.5888C56.4443 29.4967 56.4329 29.405 56.4193 29.3136C56.4057 29.2222 56.39 29.1311 56.3721 29.0404C56.3538 28.9499 56.3338 28.8597 56.3112 28.7699C56.2887 28.6803 56.264 28.5911 56.2374 28.5028C56.2106 28.4141 56.1815 28.3264 56.1504 28.2394C56.1192 28.1526 56.0858 28.0661 56.0506 27.9809C56.0151 27.8954 55.9777 27.8111 55.9382 27.7274C55.8987 27.6437 55.857 27.5613 55.8135 27.4798C55.7699 27.3982 55.7245 27.318 55.677 27.2386C55.6294 27.1592 55.58 27.0811 55.5288 27.0042C55.4772 26.9277 55.4241 26.852 55.3691 26.7776C55.3139 26.7035 55.257 26.6306 55.1984 26.5593C55.1397 26.4876 55.0795 26.4179 55.0174 26.3493C54.9554 26.2808 54.8914 26.2138 54.8263 26.1486C54.7608 26.0831 54.6938 26.0195 54.6256 25.9575C54.557 25.8954 54.4869 25.8349 54.4156 25.7762C54.344 25.7175 54.2711 25.6607 54.197 25.6058C54.1229 25.5508 54.0472 25.4974 53.9703 25.4461C53.8935 25.3949 53.8153 25.3455 53.736 25.2979C53.6569 25.2504 53.5763 25.2047 53.4948 25.1611C53.4133 25.1176 53.3309 25.0759 53.2472 25.0364C53.1638 24.9968 53.0792 24.9595 52.994 24.9243C52.9084 24.8888 52.8223 24.8554 52.7352 24.8245C52.6481 24.7934 52.5604 24.7643 52.4721 24.7375C52.3835 24.7106 52.2946 24.6859 52.2047 24.6634C52.1152 24.6411 52.025 24.6207 51.9342 24.6028C51.8438 24.5846 51.7527 24.5689 51.6613 24.5553C51.5699 24.5417 51.4782 24.5306 51.3861 24.5213C51.2941 24.5124 51.2018 24.5056 51.1095 24.5009C51.0171 24.4966 50.9248 24.4941 50.8325 24.4941Z" fill="#DF1995"/>
</g>
</g>
<mask id="mask26_18_1486" style="mask-type:luminance" maskUnits="userSpaceOnUse" x="14" y="34" width="29" height="28">
<path d="M14.12 34.8027H42.4193V61.2429H14.12V34.8027Z" fill="white"/>
</mask>
<g mask="url(#mask26_18_1486)">
<mask id="mask27_18_1486" style="mask-type:luminance" maskUnits="userSpaceOnUse" x="0" y="0" width="57" height="62">
<path d="M0 0.889295V60.3368C0 60.8281 0.39833 61.2261 0.889295 61.2261H55.5917C56.083 61.2261 56.481 60.8281 56.481 60.3368V0.889295C56.481 0.398021 56.083 0 55.5917 0H0.889295C0.39833 0 0 0.398021 0 0.889295Z" fill="white"/>
</mask>
<g mask="url(#mask27_18_1486)">
<path d="M41.4189 36.7315C41.4809 36.7315 41.5421 36.7257 41.6026 36.7136C41.6631 36.7016 41.7221 36.6837 41.7792 36.6599C41.8364 36.6364 41.8907 36.6074 41.942 36.5731C41.9932 36.5385 42.0408 36.4996 42.0846 36.4561C42.1285 36.4122 42.1674 36.3647 42.2016 36.3134C42.2359 36.2619 42.2649 36.2075 42.2887 36.1507C42.3122 36.0936 42.3301 36.0346 42.3421 35.9741C42.3542 35.9133 42.3604 35.8521 42.3604 35.7904C42.3604 35.7286 42.3542 35.6672 42.3421 35.6066C42.3301 35.5461 42.3122 35.4871 42.2887 35.43C42.2649 35.3729 42.2359 35.3188 42.2016 35.2673C42.1674 35.216 42.1285 35.1685 42.0846 35.1246C42.0408 35.0811 41.9932 35.0419 41.942 35.0076C41.8907 34.9733 41.8364 34.9443 41.7792 34.9205C41.7221 34.897 41.6631 34.8791 41.6026 34.8671C41.5421 34.8551 41.4809 34.8489 41.4189 34.8489H15.0615C14.9997 34.8489 14.9386 34.8551 14.8777 34.8671C14.8172 34.8791 14.7582 34.897 14.7011 34.9205C14.644 34.9443 14.59 34.9733 14.5384 35.0076C14.4871 35.0419 14.4396 35.0811 14.3957 35.1246C14.3522 35.1685 14.313 35.216 14.2787 35.2673C14.2444 35.3188 14.2154 35.3729 14.1916 35.43C14.1682 35.4871 14.1503 35.5461 14.1382 35.6066C14.1262 35.6672 14.12 35.7286 14.12 35.7904C14.12 35.8521 14.1262 35.9133 14.1382 35.9741C14.1503 36.0346 14.1682 36.0936 14.1916 36.1507C14.2154 36.2075 14.2444 36.2619 14.2787 36.3134C14.313 36.3647 14.3522 36.4122 14.3957 36.4561C14.4396 36.4996 14.4871 36.5385 14.5384 36.5731C14.59 36.6074 14.644 36.6364 14.7011 36.6599C14.7582 36.6837 14.8172 36.7016 14.8777 36.7136C14.9386 36.7257 14.9997 36.7315 15.0615 36.7315H27.2989V60.2651C27.2989 60.3269 27.305 60.3883 27.3171 60.4488C27.3291 60.5094 27.347 60.5683 27.3705 60.6255C27.3943 60.6826 27.4233 60.7366 27.4576 60.7882C27.4918 60.8395 27.5307 60.887 27.5746 60.9309C27.6184 60.9744 27.666 61.0136 27.7173 61.0479C27.7685 61.0822 27.8229 61.1112 27.88 61.135C27.9371 61.1584 27.9961 61.1763 28.0566 61.1884C28.1171 61.2004 28.1786 61.2066 28.2403 61.2066C28.3021 61.2066 28.3632 61.2004 28.4237 61.1884C28.4846 61.1763 28.5432 61.1584 28.6004 61.135C28.6575 61.1112 28.7118 61.0822 28.7631 61.0479C28.8147 61.0136 28.8622 60.9744 28.9058 60.9309C28.9496 60.887 28.9885 60.8395 29.0228 60.7882C29.0574 60.7366 29.0864 60.6826 29.1099 60.6255C29.1336 60.5683 29.1516 60.5094 29.1636 60.4488C29.1756 60.3883 29.1815 60.3269 29.1815 60.2651V36.7315H41.4189Z" fill="#DF1995"/>
</g>
</g>
<mask id="mask28_18_1486" style="mask-type:luminance" maskUnits="userSpaceOnUse" x="0" y="48" width="12" height="14">
<path d="M0 48.9524H11.3533V61.2429H0V48.9524Z" fill="white"/>
</mask>
<g mask="url(#mask28_18_1486)">
<mask id="mask29_18_1486" style="mask-type:luminance" maskUnits="userSpaceOnUse" x="0" y="0" width="57" height="62">
<path d="M0 0.889295V60.3368C0 60.8281 0.39833 61.2261 0.889295 61.2261H55.5917C56.083 61.2261 56.481 60.8281 56.481 60.3368V0.889295C56.481 0.398021 56.083 0 55.5917 0H0.889295C0.39833 0 0 0.398021 0 0.889295Z" fill="white"/>
</mask>
<g mask="url(#mask29_18_1486)">
<path d="M10.3547 48.9692H0.941479C0.879723 48.9692 0.818275 48.9751 0.757753 48.9871C0.697232 48.9992 0.638255 49.0171 0.58113 49.0409C0.524005 49.0643 0.469659 49.0934 0.418401 49.1276C0.367143 49.1622 0.31959 49.2011 0.275743 49.2447C0.232205 49.2885 0.192989 49.3361 0.158714 49.3873C0.12444 49.4389 0.0954139 49.4932 0.0716377 49.5504C0.0481701 49.6072 0.0302607 49.6662 0.0182182 49.7267C0.00617564 49.7875 0 49.8487 0 49.9104C0 49.9722 0.00617564 50.0336 0.0182182 50.0941C0.0302607 50.1547 0.0481701 50.2136 0.0716377 50.2708C0.0954139 50.3279 0.12444 50.3819 0.158714 50.4335C0.192989 50.4847 0.232205 50.5323 0.275743 50.5761C0.31959 50.6197 0.367143 50.6589 0.418401 50.6932C0.469659 50.7274 0.524005 50.7565 0.58113 50.7803C0.638255 50.8037 0.697232 50.8216 0.757753 50.8337C0.818275 50.8457 0.879723 50.8519 0.941479 50.8519H4.6126L3.7653 60.1805C3.75974 60.2423 3.76005 60.304 3.76623 60.3661C3.77271 60.4279 3.78506 60.4884 3.80359 60.5477C3.82212 60.607 3.8462 60.6641 3.87584 60.7184C3.90549 60.7731 3.94007 60.8243 3.9799 60.8719C4.01974 60.9198 4.06389 60.963 4.11237 61.0019C4.16085 61.0408 4.21242 61.0748 4.26769 61.1035C4.32265 61.1322 4.38009 61.155 4.43968 61.1726C4.49928 61.1899 4.56011 61.2014 4.62217 61.2066H4.70678C4.76514 61.2069 4.82319 61.2017 4.88062 61.1912C4.93806 61.1807 4.99395 61.1649 5.0486 61.1439C5.10295 61.1229 5.15513 61.097 5.20485 61.0664C5.25456 61.0359 5.30088 61.0007 5.34411 60.9614C5.38734 60.9222 5.42655 60.8793 5.46175 60.8327C5.49695 60.7861 5.52752 60.7366 5.55346 60.6842C5.5794 60.632 5.6004 60.5776 5.61645 60.5214C5.6322 60.4652 5.6427 60.4081 5.64795 60.3501L6.50482 50.8519H10.3547C10.4165 50.8519 10.4779 50.8457 10.5385 50.8337C10.599 50.8216 10.658 50.8037 10.7151 50.7803C10.7722 50.7565 10.8262 50.7274 10.8778 50.6932C10.9291 50.6589 10.9766 50.6197 11.0205 50.5761C11.064 50.5323 11.1032 50.4847 11.1375 50.4335C11.1718 50.3819 11.2008 50.3279 11.2246 50.2708C11.248 50.2136 11.2659 50.1547 11.278 50.0941C11.29 50.0336 11.2962 49.9722 11.2962 49.9104C11.2962 49.8487 11.29 49.7875 11.278 49.7267C11.2659 49.6662 11.248 49.6072 11.2246 49.5504C11.2008 49.4932 11.1718 49.4389 11.1375 49.3873C11.1032 49.3361 11.064 49.2885 11.0205 49.2447C10.9766 49.2011 10.9291 49.1622 10.8778 49.1276C10.8262 49.0934 10.7722 49.0643 10.7151 49.0409C10.658 49.0171 10.599 48.9992 10.5385 48.9871C10.4779 48.9751 10.4165 48.9692 10.3547 48.9692Z" fill="#DF1995"/>
</g>
</g>
<mask id="mask30_18_1486" style="mask-type:luminance" maskUnits="userSpaceOnUse" x="45" y="48" width="12" height="14">
<path d="M45.1071 48.9524H56.49V61.2429H45.1071V48.9524Z" fill="white"/>
</mask>
<g mask="url(#mask30_18_1486)">
<mask id="mask31_18_1486" style="mask-type:luminance" maskUnits="userSpaceOnUse" x="0" y="0" width="57" height="62">
<path d="M0 0.889295V60.3368C0 60.8281 0.39833 61.2261 0.889295 61.2261H55.5917C56.083 61.2261 56.481 60.8281 56.481 60.3368V0.889295C56.481 0.398021 56.083 0 55.5917 0H0.889295C0.39833 0 0 0.398021 0 0.889295Z" fill="white"/>
</mask>
<g mask="url(#mask31_18_1486)">
<path d="M55.5392 48.9692H46.1257C46.0639 48.9692 46.0028 48.9751 45.942 48.9871C45.8814 48.9992 45.8225 49.0171 45.7653 49.0409C45.7085 49.0643 45.6542 49.0934 45.6026 49.1276C45.5513 49.1622 45.5038 49.2011 45.4599 49.2447C45.4164 49.2885 45.3775 49.3361 45.3429 49.3873C45.3086 49.4389 45.2796 49.4932 45.2561 49.5504C45.2324 49.6072 45.2145 49.6662 45.2024 49.7267C45.1904 49.7875 45.1845 49.8487 45.1845 49.9104C45.1845 49.9722 45.1904 50.0336 45.2024 50.0941C45.2145 50.1547 45.2324 50.2136 45.2561 50.2708C45.2796 50.3279 45.3086 50.3819 45.3429 50.4335C45.3775 50.4847 45.4164 50.5323 45.4599 50.5761C45.5038 50.6197 45.5513 50.6589 45.6026 50.6932C45.6542 50.7274 45.7085 50.7565 45.7653 50.7803C45.8225 50.8037 45.8814 50.8216 45.942 50.8337C46.0028 50.8457 46.0639 50.8519 46.1257 50.8519H49.9759L50.8325 60.3501C50.8377 60.4081 50.8482 60.4652 50.8643 60.5214C50.88 60.5776 50.901 60.632 50.9269 60.6842C50.9529 60.7366 50.9835 60.7861 51.0187 60.8327C51.0539 60.8793 51.0931 60.9222 51.1363 60.9614C51.1795 61.0007 51.2262 61.0359 51.2759 61.0664C51.3256 61.097 51.3775 61.1229 51.4321 61.1439C51.4865 61.1649 51.5427 61.1807 51.6001 61.1912C51.6575 61.2017 51.7153 61.2069 51.7736 61.2066H51.8585C51.9203 61.2014 51.9811 61.1899 52.0407 61.1726C52.1006 61.155 52.1578 61.1322 52.213 61.1035C52.268 61.0748 52.3199 61.0408 52.3683 61.0019C52.4165 60.963 52.4607 60.9198 52.5005 60.8719C52.5403 60.8243 52.5752 60.7731 52.6049 60.7184C52.6345 60.6641 52.6586 60.607 52.6768 60.5477C52.6953 60.4884 52.7077 60.4279 52.7142 60.3661C52.7207 60.304 52.721 60.2423 52.7151 60.1805L51.8678 50.8519H55.5392C55.601 50.8519 55.6621 50.8457 55.7227 50.8337C55.7835 50.8216 55.8422 50.8037 55.8993 50.7803C55.9564 50.7565 56.0107 50.7274 56.062 50.6932C56.1136 50.6589 56.1611 50.6197 56.2047 50.5761C56.2485 50.5323 56.2874 50.4847 56.3217 50.4335C56.3563 50.3819 56.385 50.3279 56.4088 50.2708C56.4325 50.2136 56.4505 50.1547 56.4625 50.0941C56.4745 50.0336 56.4804 49.9722 56.4804 49.9104C56.4804 49.8487 56.4745 49.7875 56.4625 49.7267C56.4505 49.6662 56.4325 49.6072 56.4088 49.5504C56.385 49.4932 56.3563 49.4389 56.3217 49.3873C56.2874 49.3361 56.2485 49.2885 56.2047 49.2447C56.1611 49.2011 56.1136 49.1622 56.062 49.1276C56.0107 49.0934 55.9564 49.0643 55.8993 49.0409C55.8422 49.0171 55.7835 48.9992 55.7227 48.9871C55.6621 48.9751 55.601 48.9692 55.5392 48.9692Z" fill="#DF1995"/>
</g>
</g>
</svg>
