<?xml version="1.0" encoding="UTF-8"?>
<svg id="Layer_1" data-name="Layer 1" xmlns="http://www.w3.org/2000/svg" viewBox="0 0 1413.55 696.59">
  <defs>
    <style>
      .cls-1 {
        fill: #fff;
        stroke-width: 0px;
      }
    </style>
  </defs>
  <path class="cls-1" d="M295.06,291.54c-9.48-2.37-17.18,2.37-26.66,22.52-19.55,41.47-31.99,63.4-73.47,63.4l-26.67.59c-37.32,0-45.62-8.29-45.62-27.26V99.57c0-70.51,38.51-53.92,38.51-82.35,0-12.44-9.48-16.59-32.58-16.59H34.36C9.48.63,1.18,4.77,1.18,17.22c0,28.44,37.92,11.85,37.92,82.35v215.08c0,77.03-39.1,53.32-39.1,84.14,0,13.03,9.48,16.59,33.18,16.59h215.67c36.14,0,45.03-7.11,49.77-24.89,4.74-16.59,7.7-39.1,8.89-71.69.59-15.99,0-24.89-12.44-27.26Z"/>
  <path class="cls-1" d="M331.76,92.46c30.81.59,62.81-26.07,63.99-55.1,0-20.15-15.99-36.73-37.32-37.33-30.22-1.19-61.62,29.03-62.21,56.29-.59,19.55,13.04,35.55,35.55,36.14ZM311.62,333.01c0,55.1-29.04,41.48-29.04,66.95,0,11.85,10.07,15.41,27.26,15.41h84.73c15.99,0,26.07-2.96,26.07-14.81,0-26.07-29.03-12.44-29.03-67.55v-108.42l.59-81.18c0-12.44-4.15-18.36-13.63-17.77-9.48,0-52.14,14.22-77.02,25.47-14.22,6.52-18.37,10.67-18.37,18.96,0,17.77,28.44,13.63,28.44,54.51v108.42Z"/>
  <path class="cls-1" d="M632.73,130.98c-16.59,0-26.07,2.96-26.07,14.81,0,22.51,31.41,14.22,13.63,62.8l-52.73,140.42-54.51-140.42c-18.96-48.58,14.81-40.29,14.81-62.8,0-11.26-10.07-14.81-26.66-14.81h-90.06c-16,0-26.07,2.96-26.07,14.81,0,22.51,24.29,14.22,43.26,62.21l77.02,195.53c5.33,14.81,13.63,20.15,45.63,12.44,29.63-6.52,33.18-12.44,38.51-26.66l68.14-180.71c18.36-48.58,43.25-40.29,43.25-62.8,0-11.26-10.07-14.81-27.26-14.81h-40.88Z"/>
  <path class="cls-1" d="M716.23,92.46c30.81.59,62.81-26.07,63.99-55.1,0-20.15-15.99-36.73-37.32-37.33-30.22-1.19-61.62,29.03-62.21,56.29-.59,19.55,13.04,35.55,35.55,36.14ZM696.09,333.01c0,55.1-29.04,41.48-29.04,66.95,0,11.85,10.07,15.41,27.26,15.41h84.73c15.99,0,26.07-2.96,26.07-14.81,0-26.07-29.03-12.44-29.03-67.55v-108.42l.59-81.18c0-12.44-4.15-18.36-13.63-17.77-9.48,0-52.14,14.22-77.02,25.47-14.22,6.52-18.37,10.67-18.37,18.96,0,17.77,28.44,13.63,28.44,54.51v108.42Z"/>
  <path class="cls-1" d="M1090.08,247.1c-15.41-78.21-40.88-122.05-108.43-122.05-37.92,0-74.06,18.36-96.58,53.92v-35.55c0-11.85-4.15-17.77-14.22-17.77-9.48.59-46.21,11.26-68.14,21.92-14.22,6.52-18.96,10.66-18.96,20.15,0,8.29,5.33,12.44,11.26,16.59,11.85,8.89,18.37,19.55,18.37,36.14v112.57c0,55.1-29.62,41.48-29.62,66.95,0,11.85,10.66,15.41,27.26,15.41h84.72c16.59,0,26.07-2.96,26.07-14.81,0-26.07-28.44-12.44-28.44-67.55v-75.84c0-52.14,28.44-80.58,59.84-80.58,39.1-.59,50.36,36.14,57.47,73.47l18.37,93.61c7.7,38.51-23.11,36.73-23.11,56.29,0,11.85,10.07,15.41,26.66,15.41h82.95c15.99,0,26.07-2.96,26.07-14.81,0-20.74-23.7-15.99-31.4-52.14l-20.15-101.32Z"/>
  <path class="cls-1" d="M1328.82,365.6c-25.48,0-72.88,5.93-106.65,5.93-28.44,0-52.14-5.93-52.14-26.07,0-7.7,4.74-14.81,11.26-19.55,17.18,5.33,37.33,8.3,59.25,7.7,79.98-1.78,134.49-47.99,134.49-110.8,0-29.03-11.85-53.32-32.58-70.51,27.25-4.15,56.29-19.55,56.29-46.21,0-14.81-11.26-24.89-24.29-24.89-10.67,0-18.37,5.92-24.89,14.22-20.74,24.89-40.29,31.4-53.33,31.4-11.85,0-18.36-1.18-32.58-1.78h-12.44c-79.4,1.78-138.65,52.73-138.65,114.94,0,31.4,15.41,56.29,40.88,72.88-32.58,14.22-46.21,33.77-46.21,55.69,0,24.29,15.41,41.47,36.73,52.14-24.29,9.48-37.33,29.63-37.33,47.99,0,50.96,71.1,71.69,134.5,71.69,103.69,0,172.42-41.47,172.42-104.87,0-40.29-29.63-69.92-84.73-69.92ZM1238.17,157.04c39.7,0,58.66,45.62,59.25,85.32,0,36.15-18.96,59.84-46.81,59.84-40.29,0-61.03-41.47-61.03-86.51,0-34.36,20.14-58.66,48.58-58.66ZM1257.12,505.43c-51.55,0-84.72-13.63-84.72-40.29,0-20.15,18.36-27.85,36.14-27.26,36.14.59,62.8-2.96,94.8-2.96,29.63-1.78,38.52,12.44,38.52,26.66,0,26.66-27.85,43.84-84.73,43.84Z"/>
  <path class="cls-1" d="M99.16,465.25c-25.7,0-48.11,15.16-58.99,31.97v-53.39l.33-45.47c0-5.28-2.31-5.93-5.93-5.6-4.61.33-8.23,1.32-23.07,8.57-7.91,3.63-9.22,4.94-9.22,7.58,0,10.22,16.81,2.31,16.81,34.93v153.57c0,6.92,0,14.83-1.65,23.07-.66,3.63.66,6.92,3.95,6.92,9.23,0,14.17-9.56,24.39-9.56s19.77,12.19,53.06,12.19c46.46,0,75.46-44.49,75.46-87.33,0-45.47-30.65-77.44-75.14-77.44ZM99.49,619.15c-32.95,0-58.99-30.65-58.99-58.33v-28.67c.33-12.85,13.52-51.08,52.07-51.08,29.66,0,59.98,24.72,59.98,71.51s-21.75,66.57-53.06,66.57Z"/>
  <path class="cls-1" d="M289.63,468.55c-7.58,0-11.86,1.32-11.86,5.27,0,5.93,16.47,6.26,6.59,31.64l-42.18,105.79-41.19-105.79c-9.89-25.38,10.21-25.7,10.21-31.64,0-4.28-5.27-5.27-11.86-5.27h-28.67c-7.58,0-11.86,1.32-11.86,5.27,0,5.93,10.21,6.26,20.43,31.64l40.86,103.15c3.63,8.57,6.92,16.81,6.92,28.34,0,17.8-8.57,39.88-20.77,39.88s-19.11-13.84-29-13.18c-6.92.33-11.53,6.59-11.53,13.51s6.26,18.78,25.38,18.78c34.6,0,42.51-31.31,59.97-75.46l44.16-115.02c9.89-25.38,21.09-25.7,21.09-31.64,0-4.28-4.94-5.27-11.54-5.27h-15.16Z"/>
  <path class="cls-1" d="M453.41,398.35c0-5.28-2.31-5.93-5.93-5.6-4.29.33-7.91,1.32-23.07,8.57-7.91,3.63-8.9,4.94-8.9,7.58,0,10.22,16.48,2.31,16.81,34.93l-.33,43.83c-13.84-16.81-35.26-22.41-52.73-22.41-45.48,0-81.07,38.89-81.07,87,0,42.18,27.35,78.1,73.49,77.78,25.05-.33,48.11-11.21,60.31-29l.33,13.51c0,9.56,2.31,15.82,9.56,15.82s16.48-4.29,23.73-8.57c4.61-2.64,7.25-5.6,7.25-7.91,0-9.56-20.1-.98-20.1-26.36l.33-143.68.33-45.47ZM377.95,613.88c-25.7,0-58.66-22.08-58.66-74.15,0-34.28,19.44-60.97,51.74-60.97,21.42,0,37.24,10.22,48.44,28.34,12.2,19.77,12.2,47.78,12.2,58.66,0,18.46-19.45,48.11-53.72,48.11Z"/>
  <path class="cls-1" d="M593.13,589.16c-11.86,13.18-31.64,24.39-54.71,24.39-33.94,0-54.7-28.01-60.31-49.1,39.22-11.86,80.41-25.04,116.99-38.22,8.24-2.97,9.23-7.58,7.91-13.52-7.25-28.34-31.64-47.45-65.58-47.45-50.42,0-82.71,39.22-82.71,88.32,0,42.52,30.65,76.46,76.13,76.46,40.54,0,63.93-21.42,70.85-36.58,3.3-7.25-3.96-9.56-8.57-4.28ZM529.86,476.79c19.44.66,40.86,16.15,42.84,37.23.33,4.29-.33,7.91-5.28,9.89-27.68,9.89-58,19.77-89.96,29.99-1.32-5.6-1.32-10.55-1.32-19.45,0-26.03,17.79-58.33,53.71-57.67Z"/>
  <path class="cls-1" d="M613.23,630.03c5.93,0,7.25-6.26,12.52-6.26,6.59,0,15.16,6.26,34.27,6.26,37.57,0,58.99-23.4,58.99-45.15,0-25.05-28.01-37.24-57.34-48.11-32.63-12.52-49.1-19.77-49.1-35.92,0-13.84,12.19-24.06,32.63-24.06,15.82,0,31.64,6.92,44.49,16.81,11.54,8.9,15.82,14.83,20.43,12.19,2.31-1.65,1.65-5.93.33-8.9-2.31-5.6-5.27-12.19-10.88-21.75-2.64-4.94-4.61-9.89-8.57-9.89-2.96,0-4.28,4.29-8.57,3.63-8.24-.66-18.13-3.63-34.93-3.63-25.05,0-50.75,14.17-50.75,42.84,0,26.69,28.34,37.57,58.66,49.1,25.7,10.22,45.15,19.11,45.15,34.28,0,17.8-16.15,25.7-33.29,25.7s-33.94-2.64-62.28-34.6c-2.64-2.96-5.28-4.94-7.91-4.28-2.96.66-3.63,3.3-2.96,6.26,4.28,14.17,7.58,22.74,12.19,35.59,3.63,8.57,3.3,9.89,6.92,9.89Z"/>
  <path class="cls-1" d="M752.62,584.88v-68.55l.33-45.47c0-5.28-2.31-5.93-5.93-5.6-4.29.33-7.91,1.32-23.07,8.57-7.91,3.62-8.9,4.94-8.9,7.58,0,10.22,16.81,2.31,16.81,34.93v68.55c0,31.97-15.82,27.35-15.82,36.58,0,4.28,5.27,5.27,11.86,5.27h27.68c7.58,0,11.86-1.32,11.86-5.27,0-9.23-14.83-4.61-14.83-36.58Z"/>
  <path class="cls-1" d="M877.52,607.62c-9.89,0-25.71,1.65-43.5,1.65-21.09,0-44.82-4.29-44.82-22.74,0-6.59,5.6-12.19,10.22-14.83,8.24,3.96,18.45,6.27,30.65,6.27,44.16,0,71.84-26.36,71.84-61.63,0-13.84-6.59-28.34-19.78-38.56,13.84-3.95,25.05-14.5,25.05-26.03,0-6.92-5.6-10.88-10.55-10.88-3.95,0-6.59,3.3-9.55,6.92-5.93,10.54-14.5,18.78-22.08,18.78-6.92,0-10.55-1.32-22.41-1.32h-.33c-40.53-.33-73.49,24.72-73.49,60.64,0,15.82,7.25,31.31,22.08,41.2-20.1,6.92-26.04,20.1-26.04,27.02,0,14.83,10.88,23.73,20.43,28.67-16.15,7.58-22.41,21.42-22.41,31.64,0,29.99,34.93,42.18,73.16,42.18,61.96,0,91.61-23.07,91.61-53.39,0-19.11-16.47-35.59-50.09-35.59ZM835,475.8c28.34,0,43.5,21.09,43.83,47.45,0,23.4-15.82,43.83-43.17,43.83s-44.82-20.77-45.15-47.46c0-27.02,19.78-43.83,44.49-43.83ZM843.24,686.38c-33.61,0-57.01-11.53-57.01-33.28,0-15.82,16.48-24.72,31.96-25.05,21.75,0,37.9-.66,48.11-1.65,32.3-2.31,38.56,13.51,38.56,24.71,0,24.39-29,35.26-61.63,35.26Z"/>
  <path class="cls-1" d="M1068.32,535.12c-8.9-55.04-27.68-69.86-57.67-69.86-22.08,0-46.46,13.18-60.31,39.88l.33-32.63c0-5.27-2.31-5.93-5.93-5.6-4.28.33-9.89,2.31-20.1,6.92-7.91,3.63-8.9,5.6-8.9,8.24s1.65,4.29,5.6,6.59c10.22,5.6,9.89,15.16,9.89,27.35v68.88c0,31.97-15.49,27.35-15.49,36.58,0,4.28,4.95,5.27,11.54,5.27h28.01c7.58,0,11.86-1.32,11.86-5.27,0-9.23-14.83-4.61-14.83-36.58v-35.92c0-47.45,27.35-68.21,51.08-68.88,35.26-.66,40.2,28.67,44.82,58l8.9,56.35c3.63,21.09-13.52,18.46-13.52,27.03,0,4.28,4.95,5.27,11.86,5.27h28.02c7.58,0,11.86-1.32,11.86-5.27,0-8.57-13.84-6.27-17.46-27.35l-9.56-58.99Z"/>
  <path class="cls-1" d="M1106.87,630.03c8.23,0,16.15-5.93,16.15-16.15s-6.92-15.16-14.83-15.16-16.48,6.59-16.48,16.81,6.92,14.5,15.16,14.5Z"/>
</svg>