<svg width="130" height="126" viewBox="0 0 130 126" fill="none" xmlns="http://www.w3.org/2000/svg">
<mask id="mask0_339_127" style="mask-type:luminance" maskUnits="userSpaceOnUse" x="0" y="0" width="130" height="126">
<path d="M0 0H130V125.521H0V0Z" fill="white"/>
</mask>
<g mask="url(#mask0_339_127)">
<path d="M30.1133 54.9995H89.8801C91.0331 54.9995 91.9693 54.0639 91.9693 52.9102V2.08925C91.9693 0.93556 91.0331 0 89.8801 0H30.1133C28.9596 0 28.024 0.93556 28.024 2.08925V52.9102C28.024 54.0639 28.9596 54.9995 30.1133 54.9995ZM32.2025 36.7995L44.7191 30.0861L68.4725 50.8241H32.2025V36.7995ZM74.8027 50.821L61.0315 38.798L75.0725 29.9758L87.7902 36.7995V50.821H74.8027ZM87.7902 4.1785V32.0719L75.9753 25.7355C75.2642 25.3522 74.4288 25.4266 73.8085 25.8521L57.7527 35.9384L46.4547 26.0702C45.8211 25.4562 44.8364 25.2904 44.0174 25.7323L32.2025 32.0688V4.1785H87.7902ZM53.4084 23.7011C55.0948 25.3875 57.428 26.434 59.9951 26.434C62.5654 26.434 64.8948 25.3875 66.5812 23.7011L66.5913 23.6916C68.2777 22.0052 69.3242 19.672 69.3242 17.1049C69.3242 14.5346 68.2777 12.2045 66.5913 10.5181L66.5812 10.5087C64.8948 8.82226 62.5654 7.77574 59.9951 7.77574C57.428 7.77574 55.0948 8.82226 53.4084 10.5087L53.3989 10.5181C51.7119 12.2045 50.666 14.5346 50.666 17.1049C50.666 19.672 51.7119 22.0052 53.3989 23.6916L53.4084 23.7011ZM56.3525 13.4591C57.2849 12.5298 58.5716 11.9549 59.9983 11.9549C61.4249 11.9549 62.7116 12.5298 63.644 13.4591C64.5733 14.3915 65.1482 15.6782 65.1482 17.1049C65.1482 18.5315 64.5733 19.8182 63.644 20.7507C62.7116 21.6799 61.4249 22.2555 59.9983 22.2555C58.5716 22.2555 57.2849 21.6799 56.3525 20.7507C55.4232 19.8182 54.8476 18.5315 54.8476 17.1049C54.8476 15.6782 55.4232 14.3915 56.3525 13.4591ZM127.908 121.34H125.123L116.665 110.308V100.674H119.638C120.701 100.674 121.578 99.8805 121.711 98.8542L127.154 74.3209C127.401 73.2 126.693 72.0886 125.571 71.8414C125.422 71.8087 125.269 71.7929 125.123 71.7929V71.7828H117.643C117.809 70.3826 118.004 68.985 118.254 67.6239C118.524 66.1581 118.865 64.7188 119.239 63.3149C120.353 63.1881 121.451 62.7336 122.459 61.9241C123.811 60.8392 125.022 59.1427 125.825 57.0629C125.926 56.8 126.023 56.527 126.111 56.2509C126.709 54.3987 126.914 52.5301 126.784 50.8796C126.634 49.0274 126.052 47.3731 125.1 46.1936C124.652 45.635 123.973 45.3684 123.307 45.4169C121.796 45.5436 120.203 46.2718 118.761 47.4482C117.464 48.5041 116.255 49.9503 115.336 51.6563C115.219 51.8738 115.089 52.1304 114.952 52.4229C114.004 54.4504 113.617 56.4942 113.77 58.2166C113.9 59.6949 114.426 60.9627 115.303 61.9014C114.874 63.4908 114.478 65.1475 114.163 66.873C114.014 67.6856 113.893 68.4976 113.773 69.3103C113.065 64.5467 111.735 59.7309 109.831 54.8696C110.644 53.9435 111.141 52.7318 111.264 51.3146C111.417 49.596 111.027 47.5522 110.082 45.5209C109.945 45.2322 109.818 44.9718 109.698 44.7543C108.779 43.0484 107.57 41.6053 106.273 40.5462C104.831 39.3667 103.235 38.6423 101.724 38.5187C101.058 38.4633 100.379 38.7299 99.9304 39.2885C98.9785 40.468 98.3966 42.1191 98.2472 43.9745C98.1141 45.625 98.3222 47.4936 98.9198 49.3458C99.0075 49.6219 99.1052 49.8949 99.2054 50.1584C100.012 52.2375 101.22 53.934 102.572 55.019C103.632 55.8707 104.792 56.3354 105.964 56.4293C107.996 61.6158 109.285 66.7337 109.86 71.7797H104.035C102.881 71.7797 101.945 72.7159 101.945 73.8689C101.945 74.0902 101.981 74.3045 102.042 74.5063L107.486 99.0326C107.7 100.004 108.561 100.664 109.516 100.664V100.674H112.486V110.308L104.028 121.34H95.6441L93.1974 113.024C95.1732 112.528 96.9604 111.53 98.3606 110.129H98.3707C100.382 108.118 101.633 105.336 101.633 102.279V92.1275C101.633 90.8048 101.09 89.5994 100.21 88.7156L100.2 88.7061C99.3227 87.8317 98.1173 87.2927 96.7978 87.2927H91.511C91.2872 87.2927 91.0691 87.328 90.8547 87.3608V77.707C90.8547 76.0887 90.1921 74.6103 89.116 73.5279L89.1065 73.5184C88.031 72.446 86.5495 71.7797 84.928 71.7797H63.8294C62.3605 71.7797 61.0284 72.3389 59.9919 73.229C58.9549 72.3389 57.6228 71.7797 56.1539 71.7797H35.0559C33.5025 71.7797 32.079 72.3906 31.0135 73.3879L30.8673 73.5215C29.7949 74.5939 29.1285 76.0754 29.1285 77.707V87.3608C28.911 87.3318 28.6967 87.2927 28.4723 87.2927H23.1918C21.8729 87.2927 20.6637 87.8349 19.7799 88.7156L19.7704 88.7257C18.896 89.6026 18.357 90.8086 18.357 92.1275V102.279C18.357 105.336 19.6078 108.118 21.6195 110.129C23.0197 111.53 24.8101 112.531 26.7922 113.028L24.3486 121.34H14.7434V56.2282L23.1987 56.225C23.4811 56.225 23.7705 56.1664 24.0466 56.0428C25.0963 55.5751 25.5672 54.3432 25.0995 53.2935L19.6891 41.1703C19.4067 40.3545 18.63 39.7664 17.7133 39.7664L7.59175 39.7695C6.79551 39.7727 6.03521 40.2341 5.69036 41.0077L0.280001 53.1315C0.114828 53.4303 0.0202637 53.7745 0.0202637 54.1421C0.0202637 55.2951 0.956454 56.2313 2.10951 56.2313L10.5649 56.2282V121.34H2.10951C0.956454 121.34 0.0202637 122.276 0.0202637 123.429C0.0202637 124.583 0.956454 125.519 2.10951 125.519H127.908C129.061 125.519 129.997 124.583 129.997 123.429C129.997 122.276 129.061 121.34 127.908 121.34ZM118.719 54.1843L119.001 53.6283C119.658 52.4134 120.496 51.3991 121.383 50.6779C121.731 50.3954 122.075 50.1615 122.413 49.9825C122.514 50.3463 122.586 50.7592 122.621 51.2011C122.715 52.3548 122.566 53.6674 122.147 54.9736L121.942 55.5555C121.406 56.9393 120.655 58.0218 119.85 58.6717C119.333 59.0872 118.848 59.2889 118.494 59.195C118.183 59.0096 117.987 58.5185 117.932 57.8497C117.835 56.8164 118.094 55.5227 118.719 54.1843ZM103.086 48.6599L102.881 48.0786C102.462 46.7723 102.312 45.4592 102.406 44.3061C102.442 43.861 102.514 43.4512 102.614 43.0875C102.949 43.2659 103.297 43.4998 103.644 43.7828C104.531 44.504 105.37 45.5178 106.026 46.7333L106.309 47.2887C106.933 48.6245 107.193 49.9176 107.102 50.9609C107.044 51.6267 106.852 52.1178 106.54 52.3063C106.182 52.397 105.698 52.1953 105.184 51.783C104.372 51.1261 103.622 50.0411 103.086 48.6599ZM106.627 75.9619H122.527L117.971 96.4951H111.186L106.627 75.9619ZM8.94024 43.9455H16.3648L19.9848 52.056H5.3203L8.94024 43.9455ZM119.872 121.34H116.665V117.158L119.872 121.34ZM112.489 117.158V121.34H109.282L112.489 117.158ZM86.6794 98.399H62.0875V94.7305H86.6794V98.399ZM57.909 98.399H33.3171V94.7305H57.909V98.399ZM62.6007 76.4751C62.9197 76.1568 63.3547 75.9619 63.8325 75.9619H84.9312C85.4154 75.9619 85.8504 76.1568 86.1624 76.4688L86.1725 76.4783C86.4839 76.7903 86.6794 77.226 86.6794 77.7101V90.5552H62.0875V77.7101C62.0875 77.2291 62.2823 76.7935 62.6007 76.4751ZM33.8303 76.4751L33.9053 76.3969C34.2105 76.1278 34.6171 75.9619 35.0622 75.9619H56.1608C56.6381 75.9619 57.0768 76.1599 57.392 76.4751C57.7104 76.7935 57.9058 77.2291 57.9058 77.707V90.5514H33.314V77.707C33.314 77.2291 33.5119 76.7935 33.8303 76.4751ZM22.5355 102.279V92.1275C22.5355 91.9421 22.6074 91.7801 22.7208 91.666L22.7303 91.6565C22.8444 91.5424 23.0102 91.4712 23.1918 91.4712H28.4786C28.6639 91.4712 28.8266 91.5424 28.94 91.6565L28.9501 91.666C29.0636 91.7801 29.1348 91.9459 29.1348 92.1275V100.488C29.1348 101.067 29.3694 101.586 29.7464 101.967C30.1227 102.344 30.646 102.577 31.2247 102.577H88.7655C89.3436 102.577 89.8637 102.344 90.2438 101.963C90.6208 101.586 90.8547 101.064 90.8547 100.485V92.1243C90.8547 91.939 90.926 91.777 91.0401 91.6628L91.0495 91.6534C91.1636 91.5393 91.3288 91.468 91.511 91.468H96.7978C96.9831 91.468 97.1458 91.5393 97.2593 91.6534L97.2694 91.6628C97.3828 91.777 97.4541 91.9421 97.4541 92.1243V102.276C97.4541 104.179 96.6742 105.915 95.4203 107.176C94.1626 108.43 92.4276 109.21 90.5168 109.21H29.4734C27.5689 109.21 25.8339 108.43 24.5762 107.173C23.3185 105.918 22.5355 104.186 22.5355 102.279ZM31.0293 113.395H88.9634L91.2998 121.343H28.6935L31.0293 113.395Z" fill="#DF1995"/>
</g>
</svg>
