<svg width="127" height="142" viewBox="0 0 127 142" fill="none" xmlns="http://www.w3.org/2000/svg">
<path fill-rule="evenodd" clip-rule="evenodd" d="M40 50C53.8072 50 65 38.8077 65 25.0005C65 11.1928 53.8072 0 40 0C26.1933 0 15 11.1928 15 25.0005C15 38.8072 26.1928 50 40 50ZM80 102.586V96.8086C80 74.9879 62.0909 57.3104 39.9998 57.3104C17.9069 57.3104 0 74.9927 0 96.8086V102.586C0 104.243 1.34315 105.586 3 105.586H77C78.6569 105.586 80 104.243 80 102.586Z" fill="url(#paint0_linear_203_621)"/>
<path d="M100.268 57.9852L100.276 57.993C100.662 58.3682 101.01 58.6958 101.311 58.9449C101.367 58.9916 101.417 59.0316 101.461 59.0655C101.518 59.0646 101.586 59.0624 101.664 59.0583C102.037 59.0392 102.459 58.9921 102.997 58.9319C103.057 58.9253 103.118 58.9185 103.18 58.9116C103.26 58.9013 103.344 58.8904 103.432 58.8791C105.318 58.6338 108.765 58.1856 111.646 60.3273C114.562 62.4591 115.173 65.916 115.508 67.8152C115.521 67.8909 115.534 67.964 115.547 68.0345C115.656 68.6276 115.752 69.1101 115.855 69.4969C115.88 69.5902 115.903 69.6666 115.923 69.7279C115.972 69.7633 116.033 69.8054 116.108 69.8543C116.442 70.0735 116.856 70.3089 117.377 70.6034C117.454 70.6455 117.533 70.6893 117.617 70.7349C119.31 71.6631 122.384 73.3472 123.469 76.7957C124.536 80.1682 123.058 83.2888 122.234 85.0289C122.204 85.0906 122.176 85.1506 122.148 85.2087C121.888 85.7741 121.683 86.2234 121.536 86.6157C121.485 86.7507 121.45 86.8554 121.428 86.9335C121.45 87.0116 121.485 87.1162 121.536 87.2513C121.683 87.6435 121.888 88.0928 122.148 88.6581C122.182 88.7293 122.217 88.8033 122.254 88.8801C123.072 90.6032 124.555 93.7241 123.465 97.0845C122.376 100.524 119.308 102.205 117.617 103.132C117.533 103.178 117.453 103.222 117.377 103.264C117.316 103.299 117.256 103.332 117.197 103.365C116.744 103.621 116.394 103.819 116.097 104.012C116.028 104.057 115.971 104.095 115.926 104.127C115.906 104.191 115.881 104.271 115.854 104.371C115.751 104.756 115.656 105.231 115.546 105.813C115.534 105.879 115.522 105.948 115.51 106.019C115.174 107.94 114.567 111.411 111.636 113.547C110.898 114.088 110.133 114.463 109.373 114.716V133.329C109.373 135.127 108.447 136.79 106.932 137.732C106.091 138.257 105.145 138.513 104.189 138.513C103.358 138.513 102.552 138.299 101.865 137.956L101.856 137.951L92.421 133.196L82.9959 137.946C81.3698 138.779 79.4559 138.669 77.9541 137.746C76.4012 136.804 75.4695 135.132 75.4695 133.329V114.716C74.7068 114.462 73.9398 114.086 73.2 113.542L73.1985 113.541C70.3296 111.431 69.6999 108.007 69.3493 106.101C69.3319 106.006 69.3151 105.915 69.2988 105.828C69.2987 105.828 69.2985 105.827 69.2984 105.826L69.2928 105.796C69.1799 105.198 69.0919 104.732 68.991 104.342C68.968 104.254 68.9472 104.181 68.9291 104.122C68.8865 104.092 68.8344 104.057 68.7716 104.016C68.45 103.809 68.0539 103.589 67.5337 103.302L67.4767 103.27C67.4036 103.23 67.3273 103.188 67.2481 103.144C65.5429 102.208 62.4944 100.534 61.3801 97.0932L61.3772 97.0841L61.3743 97.0751C60.3231 93.7572 61.7622 90.6623 62.56 88.9466C62.6047 88.8505 62.6474 88.7587 62.6875 88.6714L62.6877 88.6709C62.7183 88.6044 62.7482 88.5397 62.7772 88.4767C63.0069 87.9783 63.1881 87.5849 63.327 87.2253C63.374 87.1037 63.4075 87.0075 63.4307 86.9335C63.4075 86.8595 63.374 86.7633 63.327 86.6416C63.1881 86.282 63.0069 85.8886 62.7772 85.3903C62.7482 85.3272 62.7183 85.2625 62.6877 85.196L62.6875 85.1955C62.6474 85.1083 62.6047 85.0165 62.56 84.9204C61.7622 83.2047 60.3231 80.1098 61.3743 76.7919L61.3772 76.7828L61.3801 76.7738C62.4944 73.3326 65.5429 71.6588 67.2481 70.7226C67.3271 70.6792 67.4033 70.6374 67.4762 70.5971L100.268 57.9852ZM100.268 57.9852L100.26 57.9774M100.268 57.9852L100.26 57.9774M100.26 57.9774C100.213 57.9319 100.164 57.8849 100.113 57.8365C98.6813 56.4603 96.1211 54 92.421 54C88.7373 54 86.2 56.4416 84.7748 57.8131C84.7159 57.8697 84.6589 57.9246 84.6038 57.9774L84.5957 57.9852M100.26 57.9774L84.5957 57.9852M84.5957 57.9852L84.5876 57.993M84.5957 57.9852L84.5876 57.993M84.5876 57.993C84.2017 58.3682 83.8534 58.6958 83.5528 58.9449C83.4964 58.9916 83.4464 59.0316 83.4027 59.0656C83.3431 59.0647 83.2729 59.0625 83.191 59.0583C82.802 59.0385 82.3579 58.9881 81.8008 58.9249C81.7627 58.9205 81.7241 58.9162 81.6849 58.9117C81.5999 58.901 81.5109 58.8896 81.4183 58.8776C79.5157 58.6324 76.0679 58.1879 73.1895 60.3322C70.3346 62.4385 69.7017 65.8481 69.3519 67.7329C69.3337 67.8305 69.3164 67.9241 69.2995 68.0132L69.2995 68.0132M84.5876 57.993L69.2995 68.0132M69.2995 68.0132L69.2972 68.0254M69.2995 68.0132L69.2972 68.0254M69.2972 68.0254C69.1822 68.6461 69.0924 69.1286 68.99 69.5255C68.9687 69.6081 68.9494 69.6768 68.9323 69.7333M69.2972 68.0254L68.9323 69.7333M68.9323 69.7333C68.8856 69.7664 68.8288 69.8052 68.7606 69.8496C68.4273 70.067 68.004 70.3051 67.4767 70.5968L68.9323 69.7333ZM63.4714 87.0839C63.4714 87.0838 63.471 87.0819 63.4704 87.0782C63.4712 87.082 63.4715 87.0839 63.4714 87.0839ZM63.4704 86.7887C63.471 86.785 63.4714 86.7831 63.4714 86.7831C63.4715 86.7831 63.4712 86.7849 63.4704 86.7887ZM69.0801 104.238C69.08 104.238 69.0775 104.235 69.0729 104.231C69.078 104.235 69.0803 104.238 69.0801 104.238ZM68.8699 103.952C68.8673 103.947 68.8661 103.944 68.8661 103.944C68.8662 103.944 68.8674 103.946 68.8699 103.952ZM115.987 103.963C115.987 103.963 115.986 103.965 115.984 103.97C115.986 103.965 115.987 103.963 115.987 103.963ZM115.792 104.23C115.788 104.234 115.785 104.236 115.785 104.236C115.785 104.236 115.787 104.234 115.792 104.23ZM121.395 86.8028C121.395 86.8028 121.395 86.8043 121.395 86.8072C121.395 86.8042 121.395 86.8028 121.395 86.8028ZM121.395 87.0598C121.395 87.0625 121.395 87.064 121.395 87.0641C121.394 87.0644 121.395 87.0629 121.395 87.0598ZM115.77 69.6083C115.77 69.6082 115.772 69.6104 115.777 69.6148C115.772 69.6105 115.769 69.6083 115.77 69.6083ZM115.988 69.905C115.988 69.905 115.986 69.9026 115.984 69.8976C115.987 69.9025 115.988 69.905 115.988 69.905ZM101.654 59.2032C101.659 59.2062 101.662 59.2079 101.662 59.208C101.662 59.2081 101.659 59.2066 101.654 59.2032ZM101.227 59.0591C101.227 59.0591 101.23 59.0593 101.235 59.0601C101.23 59.0595 101.227 59.0592 101.227 59.0591ZM83.202 59.208C83.202 59.2079 83.2048 59.2062 83.2103 59.2032C83.2047 59.2066 83.2019 59.2081 83.202 59.208ZM83.6301 59.0598C83.6351 59.059 83.6378 59.0587 83.6378 59.0588C83.6379 59.0588 83.6354 59.0592 83.6301 59.0598ZM69.0955 69.6071C69.0956 69.6071 69.0933 69.6093 69.0884 69.6137C69.0929 69.6093 69.0954 69.6071 69.0955 69.6071ZM68.8657 69.924C68.8657 69.9239 68.8669 69.9211 68.8695 69.9158C68.867 69.9214 68.8658 69.9241 68.8657 69.924ZM97.9954 88.4044L96.8926 89.4965L97.1469 91.0275L97.9236 95.7037L93.8328 93.5219L92.4183 92.7675L91.0049 93.5242L86.9231 95.7098L87.7153 91.0375L87.9758 89.501L86.8685 88.4044L83.5105 85.0788L88.1206 84.3994L89.6934 84.1676L90.3847 82.736L92.4239 78.5131L94.4832 82.7443L95.1763 84.1685L96.7433 84.3994L101.353 85.0788L97.9954 88.4044Z" fill="white"/>
<path d="M100.268 57.9852L100.276 57.993C100.662 58.3682 101.01 58.6958 101.311 58.9449C101.367 58.9916 101.417 59.0316 101.461 59.0655C101.518 59.0646 101.586 59.0624 101.664 59.0583C102.037 59.0392 102.459 58.9921 102.997 58.9319C103.057 58.9253 103.118 58.9185 103.18 58.9116C103.26 58.9013 103.344 58.8904 103.432 58.8791C105.318 58.6338 108.765 58.1856 111.646 60.3273C114.562 62.4591 115.173 65.916 115.508 67.8152C115.521 67.8909 115.534 67.964 115.547 68.0345C115.656 68.6276 115.752 69.1101 115.855 69.4969C115.88 69.5902 115.903 69.6666 115.923 69.7279C115.972 69.7633 116.033 69.8054 116.108 69.8543C116.442 70.0735 116.856 70.3089 117.377 70.6034C117.454 70.6455 117.533 70.6893 117.617 70.7349C119.31 71.6631 122.384 73.3472 123.469 76.7957C124.536 80.1682 123.058 83.2888 122.234 85.0289C122.204 85.0906 122.176 85.1506 122.148 85.2087C121.888 85.7741 121.683 86.2234 121.536 86.6157C121.485 86.7507 121.45 86.8554 121.428 86.9335C121.45 87.0116 121.485 87.1162 121.536 87.2513C121.683 87.6435 121.888 88.0928 122.148 88.6581C122.182 88.7293 122.217 88.8033 122.254 88.8801C123.072 90.6032 124.555 93.7241 123.465 97.0845C122.376 100.524 119.308 102.205 117.617 103.132C117.533 103.178 117.453 103.222 117.377 103.264C117.316 103.299 117.256 103.332 117.197 103.365C116.744 103.621 116.394 103.819 116.097 104.012C116.028 104.057 115.971 104.095 115.926 104.127C115.906 104.191 115.881 104.271 115.854 104.371C115.751 104.756 115.656 105.231 115.546 105.813C115.534 105.879 115.522 105.948 115.51 106.019C115.174 107.94 114.567 111.411 111.636 113.547C110.898 114.088 110.133 114.463 109.373 114.716V133.329C109.373 135.127 108.447 136.79 106.932 137.732C106.091 138.257 105.145 138.513 104.189 138.513C103.358 138.513 102.552 138.299 101.865 137.956L101.856 137.951L92.421 133.196L82.9959 137.946C81.3698 138.779 79.4559 138.669 77.9541 137.746C76.4012 136.804 75.4695 135.132 75.4695 133.329V114.716C74.7068 114.462 73.9398 114.086 73.2 113.542L73.1985 113.541C70.3296 111.431 69.6999 108.007 69.3493 106.101C69.3319 106.006 69.3151 105.915 69.2988 105.828C69.2987 105.828 69.2985 105.827 69.2984 105.826L69.2928 105.796C69.1799 105.198 69.0919 104.732 68.991 104.342C68.968 104.254 68.9472 104.181 68.9291 104.122C68.8865 104.092 68.8344 104.057 68.7716 104.016C68.45 103.809 68.0539 103.589 67.5337 103.302L67.4767 103.27C67.4036 103.23 67.3273 103.188 67.2481 103.144C65.5429 102.208 62.4944 100.534 61.3801 97.0932L61.3772 97.0841L61.3743 97.0751C60.3231 93.7572 61.7622 90.6623 62.56 88.9466C62.6047 88.8505 62.6474 88.7587 62.6875 88.6714L62.6877 88.6709C62.7183 88.6044 62.7482 88.5397 62.7772 88.4767C63.0069 87.9783 63.1881 87.5849 63.327 87.2253C63.374 87.1037 63.4075 87.0075 63.4307 86.9335C63.4075 86.8595 63.374 86.7633 63.327 86.6416C63.1881 86.282 63.0069 85.8886 62.7772 85.3903C62.7482 85.3272 62.7183 85.2625 62.6877 85.196L62.6875 85.1955C62.6474 85.1083 62.6047 85.0165 62.56 84.9204C61.7622 83.2047 60.3231 80.1098 61.3743 76.7919L61.3772 76.7828L61.3801 76.7738C62.4944 73.3326 65.5429 71.6588 67.2481 70.7226C67.3271 70.6792 67.4033 70.6374 67.4762 70.5971L100.268 57.9852ZM100.268 57.9852L100.26 57.9774M100.268 57.9852L100.26 57.9774M100.26 57.9774C100.213 57.9319 100.164 57.8849 100.113 57.8365C98.6813 56.4603 96.1211 54 92.421 54C88.7373 54 86.2 56.4416 84.7748 57.8131C84.7159 57.8697 84.6589 57.9246 84.6038 57.9774L84.5957 57.9852M100.26 57.9774L84.5957 57.9852M84.5957 57.9852L84.5876 57.993M84.5957 57.9852L84.5876 57.993M84.5876 57.993C84.2017 58.3682 83.8534 58.6958 83.5528 58.9449C83.4964 58.9916 83.4464 59.0316 83.4027 59.0656C83.3431 59.0647 83.2729 59.0625 83.191 59.0583C82.802 59.0385 82.3579 58.9881 81.8008 58.9249C81.7627 58.9205 81.7241 58.9162 81.6849 58.9117C81.5999 58.901 81.5109 58.8896 81.4183 58.8776C79.5157 58.6324 76.0679 58.1879 73.1895 60.3322C70.3346 62.4385 69.7017 65.8481 69.3519 67.7329C69.3337 67.8305 69.3164 67.9241 69.2995 68.0132L69.2995 68.0132M84.5876 57.993L69.2995 68.0132M69.2995 68.0132L69.2972 68.0254M69.2995 68.0132L69.2972 68.0254M69.2972 68.0254C69.1822 68.6461 69.0924 69.1286 68.99 69.5255C68.9687 69.6081 68.9494 69.6768 68.9323 69.7333M69.2972 68.0254L68.9323 69.7333M68.9323 69.7333C68.8856 69.7664 68.8288 69.8052 68.7606 69.8496C68.4273 70.067 68.004 70.3051 67.4767 70.5968L68.9323 69.7333ZM63.4714 87.0839C63.4714 87.0838 63.471 87.0819 63.4704 87.0782C63.4712 87.082 63.4715 87.0839 63.4714 87.0839ZM63.4704 86.7887C63.471 86.785 63.4714 86.7831 63.4714 86.7831C63.4715 86.7831 63.4712 86.7849 63.4704 86.7887ZM69.0801 104.238C69.08 104.238 69.0775 104.235 69.0729 104.231C69.078 104.235 69.0803 104.238 69.0801 104.238ZM68.8699 103.952C68.8673 103.947 68.8661 103.944 68.8661 103.944C68.8662 103.944 68.8674 103.946 68.8699 103.952ZM115.987 103.963C115.987 103.963 115.986 103.965 115.984 103.97C115.986 103.965 115.987 103.963 115.987 103.963ZM115.792 104.23C115.788 104.234 115.785 104.236 115.785 104.236C115.785 104.236 115.787 104.234 115.792 104.23ZM121.395 86.8028C121.395 86.8028 121.395 86.8043 121.395 86.8072C121.395 86.8042 121.395 86.8028 121.395 86.8028ZM121.395 87.0598C121.395 87.0625 121.395 87.064 121.395 87.0641C121.394 87.0644 121.395 87.0629 121.395 87.0598ZM115.77 69.6083C115.77 69.6082 115.772 69.6104 115.777 69.6148C115.772 69.6105 115.769 69.6083 115.77 69.6083ZM115.988 69.905C115.988 69.905 115.986 69.9026 115.984 69.8976C115.987 69.9025 115.988 69.905 115.988 69.905ZM101.654 59.2032C101.659 59.2062 101.662 59.2079 101.662 59.208C101.662 59.2081 101.659 59.2066 101.654 59.2032ZM101.227 59.0591C101.227 59.0591 101.23 59.0593 101.235 59.0601C101.23 59.0595 101.227 59.0592 101.227 59.0591ZM83.202 59.208C83.202 59.2079 83.2048 59.2062 83.2103 59.2032C83.2047 59.2066 83.2019 59.2081 83.202 59.208ZM83.6301 59.0598C83.6351 59.059 83.6378 59.0587 83.6378 59.0588C83.6379 59.0588 83.6354 59.0592 83.6301 59.0598ZM69.0955 69.6071C69.0956 69.6071 69.0933 69.6093 69.0884 69.6137C69.0929 69.6093 69.0954 69.6071 69.0955 69.6071ZM68.8657 69.924C68.8657 69.9239 68.8669 69.9211 68.8695 69.9158C68.867 69.9214 68.8658 69.9241 68.8657 69.924ZM97.9954 88.4044L96.8926 89.4965L97.1469 91.0275L97.9236 95.7037L93.8328 93.5219L92.4183 92.7675L91.0049 93.5242L86.9231 95.7098L87.7153 91.0375L87.9758 89.501L86.8685 88.4044L83.5105 85.0788L88.1206 84.3994L89.6934 84.1676L90.3847 82.736L92.4239 78.5131L94.4832 82.7443L95.1763 84.1685L96.7433 84.3994L101.353 85.0788L97.9954 88.4044Z" fill="url(#paint1_linear_203_621)"/>
<path d="M100.268 57.9852L100.276 57.993C100.662 58.3682 101.01 58.6958 101.311 58.9449C101.367 58.9916 101.417 59.0316 101.461 59.0655C101.518 59.0646 101.586 59.0624 101.664 59.0583C102.037 59.0392 102.459 58.9921 102.997 58.9319C103.057 58.9253 103.118 58.9185 103.18 58.9116C103.26 58.9013 103.344 58.8904 103.432 58.8791C105.318 58.6338 108.765 58.1856 111.646 60.3273C114.562 62.4591 115.173 65.916 115.508 67.8152C115.521 67.8909 115.534 67.964 115.547 68.0345C115.656 68.6276 115.752 69.1101 115.855 69.4969C115.88 69.5902 115.903 69.6666 115.923 69.7279C115.972 69.7633 116.033 69.8054 116.108 69.8543C116.442 70.0735 116.856 70.3089 117.377 70.6034C117.454 70.6455 117.533 70.6893 117.617 70.7349C119.31 71.6631 122.384 73.3472 123.469 76.7957C124.536 80.1682 123.058 83.2888 122.234 85.0289C122.204 85.0906 122.176 85.1506 122.148 85.2087C121.888 85.7741 121.683 86.2234 121.536 86.6157C121.485 86.7507 121.45 86.8554 121.428 86.9335C121.45 87.0116 121.485 87.1162 121.536 87.2513C121.683 87.6435 121.888 88.0928 122.148 88.6581C122.182 88.7293 122.217 88.8033 122.254 88.8801C123.072 90.6032 124.555 93.7241 123.465 97.0845C122.376 100.524 119.308 102.205 117.617 103.132C117.533 103.178 117.453 103.222 117.377 103.264C117.316 103.299 117.256 103.332 117.197 103.365C116.744 103.621 116.394 103.819 116.097 104.012C116.028 104.057 115.971 104.095 115.926 104.127C115.906 104.191 115.881 104.271 115.854 104.371C115.751 104.756 115.656 105.231 115.546 105.813C115.534 105.879 115.522 105.948 115.51 106.019C115.174 107.94 114.567 111.411 111.636 113.547C110.898 114.088 110.133 114.463 109.373 114.716V133.329C109.373 135.127 108.447 136.79 106.932 137.732C106.091 138.257 105.145 138.513 104.189 138.513C103.358 138.513 102.552 138.299 101.865 137.956L101.856 137.951L92.421 133.196L82.9959 137.946C81.3698 138.779 79.4559 138.669 77.9541 137.746C76.4012 136.804 75.4695 135.132 75.4695 133.329V114.716C74.7068 114.462 73.9398 114.086 73.2 113.542L73.1985 113.541C70.3296 111.431 69.6999 108.007 69.3493 106.101C69.3319 106.006 69.3151 105.915 69.2988 105.828C69.2987 105.828 69.2985 105.827 69.2984 105.826L69.2928 105.796C69.1799 105.198 69.0919 104.732 68.991 104.342C68.968 104.254 68.9472 104.181 68.9291 104.122C68.8865 104.092 68.8344 104.057 68.7716 104.016C68.45 103.809 68.0539 103.589 67.5337 103.302L67.4767 103.27C67.4036 103.23 67.3273 103.188 67.2481 103.144C65.5429 102.208 62.4944 100.534 61.3801 97.0932L61.3772 97.0841L61.3743 97.0751C60.3231 93.7572 61.7622 90.6623 62.56 88.9466C62.6047 88.8505 62.6474 88.7587 62.6875 88.6714L62.6877 88.6709C62.7183 88.6044 62.7482 88.5397 62.7772 88.4767C63.0069 87.9783 63.1881 87.5849 63.327 87.2253C63.374 87.1037 63.4075 87.0075 63.4307 86.9335C63.4075 86.8595 63.374 86.7633 63.327 86.6416C63.1881 86.282 63.0069 85.8886 62.7772 85.3903C62.7482 85.3272 62.7183 85.2625 62.6877 85.196L62.6875 85.1955C62.6474 85.1083 62.6047 85.0165 62.56 84.9204C61.7622 83.2047 60.3231 80.1098 61.3743 76.7919L61.3772 76.7828L61.3801 76.7738C62.4944 73.3326 65.5429 71.6588 67.2481 70.7226C67.3271 70.6792 67.4033 70.6374 67.4762 70.5971L100.268 57.9852ZM100.268 57.9852L100.26 57.9774M100.268 57.9852L100.26 57.9774M100.26 57.9774C100.213 57.9319 100.164 57.8849 100.113 57.8365C98.6813 56.4603 96.1211 54 92.421 54C88.7373 54 86.2 56.4416 84.7748 57.8131C84.7159 57.8697 84.6589 57.9246 84.6038 57.9774L84.5957 57.9852M100.26 57.9774L84.5957 57.9852M84.5957 57.9852L84.5876 57.993M84.5957 57.9852L84.5876 57.993M84.5876 57.993C84.2017 58.3682 83.8534 58.6958 83.5528 58.9449C83.4964 58.9916 83.4464 59.0316 83.4027 59.0656C83.3431 59.0647 83.2729 59.0625 83.191 59.0583C82.802 59.0385 82.3579 58.9881 81.8008 58.9249C81.7627 58.9205 81.7241 58.9162 81.6849 58.9117C81.5999 58.901 81.5109 58.8896 81.4183 58.8776C79.5157 58.6324 76.0679 58.1879 73.1895 60.3322C70.3346 62.4385 69.7017 65.8481 69.3519 67.7329C69.3337 67.8305 69.3164 67.9241 69.2995 68.0132L69.2995 68.0132M84.5876 57.993L69.2995 68.0132M69.2995 68.0132L69.2972 68.0254M69.2995 68.0132L69.2972 68.0254M69.2972 68.0254C69.1822 68.6461 69.0924 69.1286 68.99 69.5255C68.9687 69.6081 68.9494 69.6768 68.9323 69.7333M69.2972 68.0254L68.9323 69.7333M68.9323 69.7333C68.8856 69.7664 68.8288 69.8052 68.7606 69.8496C68.4273 70.067 68.004 70.3051 67.4767 70.5968L68.9323 69.7333ZM63.4714 87.0839C63.4714 87.0838 63.471 87.0819 63.4704 87.0782C63.4712 87.082 63.4715 87.0839 63.4714 87.0839ZM63.4704 86.7887C63.471 86.785 63.4714 86.7831 63.4714 86.7831C63.4715 86.7831 63.4712 86.7849 63.4704 86.7887ZM69.0801 104.238C69.08 104.238 69.0775 104.235 69.0729 104.231C69.078 104.235 69.0803 104.238 69.0801 104.238ZM68.8699 103.952C68.8673 103.947 68.8661 103.944 68.8661 103.944C68.8662 103.944 68.8674 103.946 68.8699 103.952ZM115.987 103.963C115.987 103.963 115.986 103.965 115.984 103.97C115.986 103.965 115.987 103.963 115.987 103.963ZM115.792 104.23C115.788 104.234 115.785 104.236 115.785 104.236C115.785 104.236 115.787 104.234 115.792 104.23ZM121.395 86.8028C121.395 86.8028 121.395 86.8043 121.395 86.8072C121.395 86.8042 121.395 86.8028 121.395 86.8028ZM121.395 87.0598C121.395 87.0625 121.395 87.064 121.395 87.0641C121.394 87.0644 121.395 87.0629 121.395 87.0598ZM115.77 69.6083C115.77 69.6082 115.772 69.6104 115.777 69.6148C115.772 69.6105 115.769 69.6083 115.77 69.6083ZM115.988 69.905C115.988 69.905 115.986 69.9026 115.984 69.8976C115.987 69.9025 115.988 69.905 115.988 69.905ZM101.654 59.2032C101.659 59.2062 101.662 59.2079 101.662 59.208C101.662 59.2081 101.659 59.2066 101.654 59.2032ZM101.227 59.0591C101.227 59.0591 101.23 59.0593 101.235 59.0601C101.23 59.0595 101.227 59.0592 101.227 59.0591ZM83.202 59.208C83.202 59.2079 83.2048 59.2062 83.2103 59.2032C83.2047 59.2066 83.2019 59.2081 83.202 59.208ZM83.6301 59.0598C83.6351 59.059 83.6378 59.0587 83.6378 59.0588C83.6379 59.0588 83.6354 59.0592 83.6301 59.0598ZM69.0955 69.6071C69.0956 69.6071 69.0933 69.6093 69.0884 69.6137C69.0929 69.6093 69.0954 69.6071 69.0955 69.6071ZM68.8657 69.924C68.8657 69.9239 68.8669 69.9211 68.8695 69.9158C68.867 69.9214 68.8658 69.9241 68.8657 69.924ZM97.9954 88.4044L96.8926 89.4965L97.1469 91.0275L97.9236 95.7037L93.8328 93.5219L92.4183 92.7675L91.0049 93.5242L86.9231 95.7098L87.7153 91.0375L87.9758 89.501L86.8685 88.4044L83.5105 85.0788L88.1206 84.3994L89.6934 84.1676L90.3847 82.736L92.4239 78.5131L94.4832 82.7443L95.1763 84.1685L96.7433 84.3994L101.353 85.0788L97.9954 88.4044Z" stroke="white" stroke-width="6"/>
<defs>
<linearGradient id="paint0_linear_203_621" x1="-83.7914" y1="222.919" x2="136.613" y2="135.839" gradientUnits="userSpaceOnUse">
<stop stop-color="#FFCD01"/>
<stop offset="0.28125" stop-color="#F87F39"/>
<stop offset="0.53125" stop-color="#F05A5A" stop-opacity="0.45"/>
<stop offset="0.75" stop-color="#EB426F"/>
<stop offset="1" stop-color="#DF1995"/>
</linearGradient>
<linearGradient id="paint1_linear_203_621" x1="47.5299" y1="158.513" x2="160.044" y2="119.851" gradientUnits="userSpaceOnUse">
<stop stop-color="#FFCD01" stop-opacity="0.15"/>
<stop offset="0.28125" stop-color="#F87F39" stop-opacity="0.69"/>
<stop offset="0.53125" stop-color="#F05A5A"/>
<stop offset="0.75" stop-color="#EB426F"/>
<stop offset="1" stop-color="#DF1995"/>
</linearGradient>
</defs>
</svg>
