<svg width="127" height="142" viewBox="0 0 127 142" fill="none" xmlns="http://www.w3.org/2000/svg">
<rect width="127" height="142" fill="#1E1E1E"/>
<g clip-path="url(#clip0_0_1)">
<rect width="1440" height="1448" transform="translate(-180 -530)" fill="white"/>
<g opacity="0.3" filter="url(#filter0_f_0_1)">
<circle cx="-63.5" cy="333.5" r="197.5" fill="url(#paint0_linear_0_1)"/>
</g>
<g filter="url(#filter1_d_0_1)">
<rect x="-24" y="-38" width="355" height="364" rx="20" fill="white"/>
</g>
<path fill-rule="evenodd" clip-rule="evenodd" d="M40 50C53.8072 50 65 38.8077 65 25.0005C65 11.1928 53.8072 0 40 0C26.1933 0 15 11.1928 15 25.0005C15 38.8072 26.1928 50 40 50ZM80 102.586V96.8086C80 74.9879 62.0909 57.3104 39.9998 57.3104C17.9069 57.3104 0 74.9927 0 96.8086V102.586C0 104.243 1.34315 105.586 3 105.586H77C78.6569 105.586 80 104.243 80 102.586Z" fill="url(#paint1_linear_0_1)"/>
<mask id="path-4-outside-1_0_1" maskUnits="userSpaceOnUse" x="58" y="51" width="69" height="91" fill="black">
<rect fill="white" x="58" y="51" width="69" height="91"/>
<path d="M119.429 89.9246C118.927 88.833 118.403 87.6976 118.403 86.9335C118.403 86.1693 118.927 85.034 119.429 83.9423C120.324 82.0428 121.307 79.9032 120.608 77.698C119.887 75.4055 117.77 74.2483 115.914 73.2222C114.909 72.6545 113.861 72.065 113.468 71.5192C113.054 70.9515 112.813 69.7507 112.595 68.5717C112.224 66.4975 111.787 64.1395 109.866 62.7422C107.966 61.323 105.608 61.6287 103.534 61.8907C102.355 62.0217 101.154 62.1745 100.478 61.9562C99.8662 61.7378 98.971 60.9082 98.185 60.144C96.6349 58.6593 94.8664 57 92.421 57C89.9757 57 88.229 58.6593 86.6789 60.144C85.8929 60.9082 84.9977 61.7378 84.3864 61.9562C83.7095 62.1745 82.4869 62.0217 81.3297 61.8907C79.2337 61.6287 76.8757 61.323 74.9762 62.7422C73.0767 64.1395 72.64 66.4975 72.247 68.5717C72.0287 69.7507 71.8104 70.9515 71.3955 71.5192C71.0025 72.065 69.9545 72.6545 68.9284 73.2222C67.0725 74.2483 64.9765 75.4055 64.2342 77.698C63.5356 79.9032 64.5399 82.0428 65.4132 83.9423C65.9154 85.034 66.4612 86.1693 66.4612 86.9335C66.4612 87.6976 65.9154 88.833 65.4132 89.9246C64.5399 91.8241 63.5356 93.9638 64.2342 96.169C64.9765 98.4615 67.0725 99.6186 68.9284 100.645C69.9545 101.212 71.0025 101.78 71.3955 102.348C71.8104 102.915 72.0287 104.116 72.247 105.273C72.64 107.369 73.0767 109.727 74.9762 111.125C76.046 111.911 77.2469 112.173 78.4695 112.195V133.329C78.4695 134.093 78.8625 134.792 79.5175 135.185C80.1507 135.578 80.9585 135.622 81.6354 135.272L92.421 129.836L103.207 135.272C103.512 135.425 103.862 135.513 104.189 135.513C104.604 135.513 104.997 135.403 105.346 135.185C105.98 134.792 106.373 134.093 106.373 133.329V112.195C107.595 112.173 108.796 111.911 109.866 111.125C111.787 109.727 112.224 107.369 112.595 105.273C112.813 104.116 113.054 102.915 113.468 102.348C113.861 101.78 114.909 101.212 115.914 100.645C117.77 99.6186 119.887 98.4615 120.608 96.169C121.328 93.9638 120.324 91.8241 119.429 89.9246ZM104.626 86.0601L100.106 90.536L101.154 96.8458C101.307 97.6755 100.958 98.5051 100.281 98.9855C99.9099 99.2693 99.4514 99.4003 99.0147 99.4003C98.6654 99.4003 98.316 99.313 97.9885 99.1383L92.421 96.169L86.8754 99.1383C86.133 99.5313 85.2379 99.4658 84.561 98.9855C83.8842 98.5051 83.5567 97.6755 83.6877 96.8458L84.7575 90.536L80.238 86.0601C79.6485 85.4706 79.4302 84.6192 79.6922 83.8332C79.9542 83.0253 80.631 82.4577 81.4607 82.3485L87.6832 81.4315L90.456 75.6893C91.1984 74.1828 93.6655 74.1828 94.386 75.6893L97.1807 81.4315L103.403 82.3485C104.211 82.4577 104.91 83.0253 105.15 83.8332C105.412 84.6192 105.215 85.4706 104.626 86.0601Z"/>
</mask>
<path d="M119.429 89.9246C118.927 88.833 118.403 87.6976 118.403 86.9335C118.403 86.1693 118.927 85.034 119.429 83.9423C120.324 82.0428 121.307 79.9032 120.608 77.698C119.887 75.4055 117.77 74.2483 115.914 73.2222C114.909 72.6545 113.861 72.065 113.468 71.5192C113.054 70.9515 112.813 69.7507 112.595 68.5717C112.224 66.4975 111.787 64.1395 109.866 62.7422C107.966 61.323 105.608 61.6287 103.534 61.8907C102.355 62.0217 101.154 62.1745 100.478 61.9562C99.8662 61.7378 98.971 60.9082 98.185 60.144C96.6349 58.6593 94.8664 57 92.421 57C89.9757 57 88.229 58.6593 86.6789 60.144C85.8929 60.9082 84.9977 61.7378 84.3864 61.9562C83.7095 62.1745 82.4869 62.0217 81.3297 61.8907C79.2337 61.6287 76.8757 61.323 74.9762 62.7422C73.0767 64.1395 72.64 66.4975 72.247 68.5717C72.0287 69.7507 71.8104 70.9515 71.3955 71.5192C71.0025 72.065 69.9545 72.6545 68.9284 73.2222C67.0725 74.2483 64.9765 75.4055 64.2342 77.698C63.5356 79.9032 64.5399 82.0428 65.4132 83.9423C65.9154 85.034 66.4612 86.1693 66.4612 86.9335C66.4612 87.6976 65.9154 88.833 65.4132 89.9246C64.5399 91.8241 63.5356 93.9638 64.2342 96.169C64.9765 98.4615 67.0725 99.6186 68.9284 100.645C69.9545 101.212 71.0025 101.78 71.3955 102.348C71.8104 102.915 72.0287 104.116 72.247 105.273C72.64 107.369 73.0767 109.727 74.9762 111.125C76.046 111.911 77.2469 112.173 78.4695 112.195V133.329C78.4695 134.093 78.8625 134.792 79.5175 135.185C80.1507 135.578 80.9585 135.622 81.6354 135.272L92.421 129.836L103.207 135.272C103.512 135.425 103.862 135.513 104.189 135.513C104.604 135.513 104.997 135.403 105.346 135.185C105.98 134.792 106.373 134.093 106.373 133.329V112.195C107.595 112.173 108.796 111.911 109.866 111.125C111.787 109.727 112.224 107.369 112.595 105.273C112.813 104.116 113.054 102.915 113.468 102.348C113.861 101.78 114.909 101.212 115.914 100.645C117.77 99.6186 119.887 98.4615 120.608 96.169C121.328 93.9638 120.324 91.8241 119.429 89.9246ZM104.626 86.0601L100.106 90.536L101.154 96.8458C101.307 97.6755 100.958 98.5051 100.281 98.9855C99.9099 99.2693 99.4514 99.4003 99.0147 99.4003C98.6654 99.4003 98.316 99.313 97.9885 99.1383L92.421 96.169L86.8754 99.1383C86.133 99.5313 85.2379 99.4658 84.561 98.9855C83.8842 98.5051 83.5567 97.6755 83.6877 96.8458L84.7575 90.536L80.238 86.0601C79.6485 85.4706 79.4302 84.6192 79.6922 83.8332C79.9542 83.0253 80.631 82.4577 81.4607 82.3485L87.6832 81.4315L90.456 75.6893C91.1984 74.1828 93.6655 74.1828 94.386 75.6893L97.1807 81.4315L103.403 82.3485C104.211 82.4577 104.91 83.0253 105.15 83.8332C105.412 84.6192 105.215 85.4706 104.626 86.0601Z" fill="white"/>
<path d="M119.429 89.9246C118.927 88.833 118.403 87.6976 118.403 86.9335C118.403 86.1693 118.927 85.034 119.429 83.9423C120.324 82.0428 121.307 79.9032 120.608 77.698C119.887 75.4055 117.77 74.2483 115.914 73.2222C114.909 72.6545 113.861 72.065 113.468 71.5192C113.054 70.9515 112.813 69.7507 112.595 68.5717C112.224 66.4975 111.787 64.1395 109.866 62.7422C107.966 61.323 105.608 61.6287 103.534 61.8907C102.355 62.0217 101.154 62.1745 100.478 61.9562C99.8662 61.7378 98.971 60.9082 98.185 60.144C96.6349 58.6593 94.8664 57 92.421 57C89.9757 57 88.229 58.6593 86.6789 60.144C85.8929 60.9082 84.9977 61.7378 84.3864 61.9562C83.7095 62.1745 82.4869 62.0217 81.3297 61.8907C79.2337 61.6287 76.8757 61.323 74.9762 62.7422C73.0767 64.1395 72.64 66.4975 72.247 68.5717C72.0287 69.7507 71.8104 70.9515 71.3955 71.5192C71.0025 72.065 69.9545 72.6545 68.9284 73.2222C67.0725 74.2483 64.9765 75.4055 64.2342 77.698C63.5356 79.9032 64.5399 82.0428 65.4132 83.9423C65.9154 85.034 66.4612 86.1693 66.4612 86.9335C66.4612 87.6976 65.9154 88.833 65.4132 89.9246C64.5399 91.8241 63.5356 93.9638 64.2342 96.169C64.9765 98.4615 67.0725 99.6186 68.9284 100.645C69.9545 101.212 71.0025 101.78 71.3955 102.348C71.8104 102.915 72.0287 104.116 72.247 105.273C72.64 107.369 73.0767 109.727 74.9762 111.125C76.046 111.911 77.2469 112.173 78.4695 112.195V133.329C78.4695 134.093 78.8625 134.792 79.5175 135.185C80.1507 135.578 80.9585 135.622 81.6354 135.272L92.421 129.836L103.207 135.272C103.512 135.425 103.862 135.513 104.189 135.513C104.604 135.513 104.997 135.403 105.346 135.185C105.98 134.792 106.373 134.093 106.373 133.329V112.195C107.595 112.173 108.796 111.911 109.866 111.125C111.787 109.727 112.224 107.369 112.595 105.273C112.813 104.116 113.054 102.915 113.468 102.348C113.861 101.78 114.909 101.212 115.914 100.645C117.77 99.6186 119.887 98.4615 120.608 96.169C121.328 93.9638 120.324 91.8241 119.429 89.9246ZM104.626 86.0601L100.106 90.536L101.154 96.8458C101.307 97.6755 100.958 98.5051 100.281 98.9855C99.9099 99.2693 99.4514 99.4003 99.0147 99.4003C98.6654 99.4003 98.316 99.313 97.9885 99.1383L92.421 96.169L86.8754 99.1383C86.133 99.5313 85.2379 99.4658 84.561 98.9855C83.8842 98.5051 83.5567 97.6755 83.6877 96.8458L84.7575 90.536L80.238 86.0601C79.6485 85.4706 79.4302 84.6192 79.6922 83.8332C79.9542 83.0253 80.631 82.4577 81.4607 82.3485L87.6832 81.4315L90.456 75.6893C91.1984 74.1828 93.6655 74.1828 94.386 75.6893L97.1807 81.4315L103.403 82.3485C104.211 82.4577 104.91 83.0253 105.15 83.8332C105.412 84.6192 105.215 85.4706 104.626 86.0601Z" fill="url(#paint2_linear_0_1)"/>
<path d="M119.429 89.9246C118.927 88.833 118.403 87.6976 118.403 86.9335C118.403 86.1693 118.927 85.034 119.429 83.9423C120.324 82.0428 121.307 79.9032 120.608 77.698C119.887 75.4055 117.77 74.2483 115.914 73.2222C114.909 72.6545 113.861 72.065 113.468 71.5192C113.054 70.9515 112.813 69.7507 112.595 68.5717C112.224 66.4975 111.787 64.1395 109.866 62.7422C107.966 61.323 105.608 61.6287 103.534 61.8907C102.355 62.0217 101.154 62.1745 100.478 61.9562C99.8662 61.7378 98.971 60.9082 98.185 60.144C96.6349 58.6593 94.8664 57 92.421 57C89.9757 57 88.229 58.6593 86.6789 60.144C85.8929 60.9082 84.9977 61.7378 84.3864 61.9562C83.7095 62.1745 82.4869 62.0217 81.3297 61.8907C79.2337 61.6287 76.8757 61.323 74.9762 62.7422C73.0767 64.1395 72.64 66.4975 72.247 68.5717C72.0287 69.7507 71.8104 70.9515 71.3955 71.5192C71.0025 72.065 69.9545 72.6545 68.9284 73.2222C67.0725 74.2483 64.9765 75.4055 64.2342 77.698C63.5356 79.9032 64.5399 82.0428 65.4132 83.9423C65.9154 85.034 66.4612 86.1693 66.4612 86.9335C66.4612 87.6976 65.9154 88.833 65.4132 89.9246C64.5399 91.8241 63.5356 93.9638 64.2342 96.169C64.9765 98.4615 67.0725 99.6186 68.9284 100.645C69.9545 101.212 71.0025 101.78 71.3955 102.348C71.8104 102.915 72.0287 104.116 72.247 105.273C72.64 107.369 73.0767 109.727 74.9762 111.125C76.046 111.911 77.2469 112.173 78.4695 112.195V133.329C78.4695 134.093 78.8625 134.792 79.5175 135.185C80.1507 135.578 80.9585 135.622 81.6354 135.272L92.421 129.836L103.207 135.272C103.512 135.425 103.862 135.513 104.189 135.513C104.604 135.513 104.997 135.403 105.346 135.185C105.98 134.792 106.373 134.093 106.373 133.329V112.195C107.595 112.173 108.796 111.911 109.866 111.125C111.787 109.727 112.224 107.369 112.595 105.273C112.813 104.116 113.054 102.915 113.468 102.348C113.861 101.78 114.909 101.212 115.914 100.645C117.77 99.6186 119.887 98.4615 120.608 96.169C121.328 93.9638 120.324 91.8241 119.429 89.9246ZM104.626 86.0601L100.106 90.536L101.154 96.8458C101.307 97.6755 100.958 98.5051 100.281 98.9855C99.9099 99.2693 99.4514 99.4003 99.0147 99.4003C98.6654 99.4003 98.316 99.313 97.9885 99.1383L92.421 96.169L86.8754 99.1383C86.133 99.5313 85.2379 99.4658 84.561 98.9855C83.8842 98.5051 83.5567 97.6755 83.6877 96.8458L84.7575 90.536L80.238 86.0601C79.6485 85.4706 79.4302 84.6192 79.6922 83.8332C79.9542 83.0253 80.631 82.4577 81.4607 82.3485L87.6832 81.4315L90.456 75.6893C91.1984 74.1828 93.6655 74.1828 94.386 75.6893L97.1807 81.4315L103.403 82.3485C104.211 82.4577 104.91 83.0253 105.15 83.8332C105.412 84.6192 105.215 85.4706 104.626 86.0601Z" stroke="white" stroke-width="12" mask="url(#path-4-outside-1_0_1)"/>
</g>
<defs>
<filter id="filter0_f_0_1" x="-661" y="-264" width="1195" height="1195" filterUnits="userSpaceOnUse" color-interpolation-filters="sRGB">
<feFlood flood-opacity="0" result="BackgroundImageFix"/>
<feBlend mode="normal" in="SourceGraphic" in2="BackgroundImageFix" result="shape"/>
<feGaussianBlur stdDeviation="200" result="effect1_foregroundBlur_0_1"/>
</filter>
<filter id="filter1_d_0_1" x="-84" y="-93" width="475" height="484" filterUnits="userSpaceOnUse" color-interpolation-filters="sRGB">
<feFlood flood-opacity="0" result="BackgroundImageFix"/>
<feColorMatrix in="SourceAlpha" type="matrix" values="0 0 0 0 0 0 0 0 0 0 0 0 0 0 0 0 0 0 127 0" result="hardAlpha"/>
<feOffset dy="5"/>
<feGaussianBlur stdDeviation="30"/>
<feComposite in2="hardAlpha" operator="out"/>
<feColorMatrix type="matrix" values="0 0 0 0 0.505882 0 0 0 0 0.478431 0 0 0 0 0.6 0 0 0 0.14 0"/>
<feBlend mode="normal" in2="BackgroundImageFix" result="effect1_dropShadow_0_1"/>
<feBlend mode="normal" in="SourceGraphic" in2="effect1_dropShadow_0_1" result="shape"/>
</filter>
<linearGradient id="paint0_linear_0_1" x1="-353" y1="680.5" x2="148.165" y2="422.671" gradientUnits="userSpaceOnUse">
<stop stop-color="#FFA41B"/>
<stop offset="0.25" stop-color="#FA8732"/>
<stop offset="0.473041" stop-color="#F26550"/>
<stop offset="0.582025" stop-color="#EA426F"/>
<stop offset="0.806479" stop-color="#E01C93"/>
<stop offset="1" stop-color="#E11F8F"/>
</linearGradient>
<linearGradient id="paint1_linear_0_1" x1="-83.7914" y1="222.919" x2="136.613" y2="135.839" gradientUnits="userSpaceOnUse">
<stop stop-color="#FFCD01"/>
<stop offset="0.28125" stop-color="#F87F39"/>
<stop offset="0.53125" stop-color="#F05A5A" stop-opacity="0.45"/>
<stop offset="0.75" stop-color="#EB426F"/>
<stop offset="1" stop-color="#DF1995"/>
</linearGradient>
<linearGradient id="paint2_linear_0_1" x1="47.5299" y1="158.513" x2="160.044" y2="119.851" gradientUnits="userSpaceOnUse">
<stop stop-color="#FFCD01" stop-opacity="0.15"/>
<stop offset="0.28125" stop-color="#F87F39" stop-opacity="0.69"/>
<stop offset="0.53125" stop-color="#F05A5A"/>
<stop offset="0.75" stop-color="#EB426F"/>
<stop offset="1" stop-color="#DF1995"/>
</linearGradient>
<clipPath id="clip0_0_1">
<rect width="1440" height="1448" fill="white" transform="translate(-180 -530)"/>
</clipPath>
</defs>
</svg>
