<svg width="130" height="130" viewBox="0 0 130 130" fill="none" xmlns="http://www.w3.org/2000/svg">
<path d="M130 10.8333V29.7917C130 31.2283 129.429 32.606 128.413 33.6218C127.398 34.6376 126.02 35.2083 124.583 35.2083C123.147 35.2083 121.769 34.6376 120.753 33.6218C119.737 32.606 119.167 31.2283 119.167 29.7917V10.8333H100.208C98.7717 10.8333 97.394 10.2626 96.3782 9.24683C95.3623 8.23101 94.7917 6.85326 94.7917 5.41667C94.7917 3.98008 95.3623 2.60233 96.3782 1.58651C97.394 0.570684 98.7717 0 100.208 0H119.167C122.04 0 124.795 1.14137 126.827 3.17301C128.859 5.20465 130 7.96015 130 10.8333ZM124.583 94.7917C123.147 94.7917 121.769 95.3623 120.753 96.3782C119.737 97.394 119.167 98.7717 119.167 100.208V119.167H100.208C98.7717 119.167 97.394 119.737 96.3782 120.753C95.3623 121.769 94.7917 123.147 94.7917 124.583C94.7917 126.02 95.3623 127.398 96.3782 128.413C97.394 129.429 98.7717 130 100.208 130H119.167C122.04 130 124.795 128.859 126.827 126.827C128.859 124.795 130 122.04 130 119.167V100.208C130 98.7717 129.429 97.394 128.413 96.3782C127.398 95.3623 126.02 94.7917 124.583 94.7917ZM29.7917 119.167H10.8333V100.208C10.8333 98.7717 10.2626 97.394 9.24683 96.3782C8.23101 95.3623 6.85326 94.7917 5.41667 94.7917C3.98008 94.7917 2.60233 95.3623 1.58651 96.3782C0.570684 97.394 0 98.7717 0 100.208V119.167C0 122.04 1.14137 124.795 3.17301 126.827C5.20465 128.859 7.96015 130 10.8333 130H29.7917C31.2283 130 32.606 129.429 33.6218 128.413C34.6376 127.398 35.2083 126.02 35.2083 124.583C35.2083 123.147 34.6376 121.769 33.6218 120.753C32.606 119.737 31.2283 119.167 29.7917 119.167ZM5.41667 35.2083C6.85326 35.2083 8.23101 34.6376 9.24683 33.6218C10.2626 32.606 10.8333 31.2283 10.8333 29.7917V10.8333H29.7917C31.2283 10.8333 32.606 10.2626 33.6218 9.24683C34.6376 8.23101 35.2083 6.85326 35.2083 5.41667C35.2083 3.98008 34.6376 2.60233 33.6218 1.58651C32.606 0.570684 31.2283 0 29.7917 0H10.8333C7.96015 0 5.20465 1.14137 3.17301 3.17301C1.14137 5.20465 0 7.96015 0 10.8333V29.7917C0 31.2283 0.570684 32.606 1.58651 33.6218C2.60233 34.6376 3.98008 35.2083 5.41667 35.2083ZM46.7188 74.1474C39.3608 77.3394 32.9652 82.3998 28.1667 88.8266C27.5611 89.6313 27.192 90.5889 27.1006 91.5918C27.0092 92.5948 27.1992 93.6033 27.6493 94.5042C28.0994 95.4051 28.7918 96.1627 29.6486 96.6919C30.5055 97.2211 31.4929 97.5009 32.5 97.5H97.5C98.5071 97.5009 99.4945 97.2211 100.351 96.6919C101.208 96.1627 101.901 95.4051 102.351 94.5042C102.801 93.6033 102.991 92.5948 102.899 91.5918C102.808 90.5889 102.439 89.6313 101.833 88.8266C97.0347 82.3998 90.6392 77.3394 83.2812 74.1474C87.3146 70.465 90.1403 65.6493 91.3877 60.3322C92.6352 55.0151 92.2459 49.4451 90.2711 44.3532C88.2963 39.2612 84.8282 34.8853 80.3219 31.7997C75.8156 28.7141 70.4818 27.0629 65.0203 27.0629C59.5589 27.0629 54.225 28.7141 49.7187 31.7997C45.2125 34.8853 41.7443 39.2612 39.7695 44.3532C37.7947 49.4451 37.4055 55.0151 38.6529 60.3322C39.9003 65.6493 42.7261 70.465 46.7594 74.1474H46.7188Z" fill="url(#paint0_linear_322_116)"/>
<defs>
<linearGradient id="paint0_linear_322_116" x1="-136.161" y1="271.777" x2="186.744" y2="100.208" gradientUnits="userSpaceOnUse">
<stop stop-color="#FFCD01"/>
<stop offset="0.28125" stop-color="#F87F39"/>
<stop offset="0.53125" stop-color="#F05A5A" stop-opacity="0.45"/>
<stop offset="0.75" stop-color="#EB426F"/>
<stop offset="1" stop-color="#DF1995"/>
</linearGradient>
</defs>
</svg>
