<svg width="130" height="111" viewBox="0 0 130 111" fill="none" xmlns="http://www.w3.org/2000/svg">
<path d="M21.6667 28.8889C21.6667 26.9734 22.4276 25.1364 23.782 23.782C25.1364 22.4276 26.9734 21.6667 28.8889 21.6667H101.111C103.027 21.6667 104.864 22.4276 106.218 23.782C107.572 25.1364 108.333 26.9734 108.333 28.8889V81.8518C108.333 83.7673 107.572 85.6043 106.218 86.9587C104.864 88.3132 103.027 89.0741 101.111 89.0741C99.1957 89.0741 97.3587 88.3132 96.0042 86.9587C94.6498 85.6043 93.8889 83.7673 93.8889 81.8518V36.1111H28.8889C26.9734 36.1111 25.1364 35.3502 23.782 33.9958C22.4276 32.6413 21.6667 30.8043 21.6667 28.8889ZM130 12.037V98.7037C130 101.896 128.732 104.958 126.474 107.215C124.217 109.473 121.155 110.741 117.963 110.741H77.7954C76.2739 110.74 74.7913 110.26 73.5592 109.367C72.3271 108.474 71.4085 107.215 70.9343 105.769C69.4233 101.574 66.6549 97.9477 63.0067 95.3842C59.3586 92.8206 55.0084 91.4449 50.5495 91.4449C46.0907 91.4449 41.7405 92.8206 38.0923 95.3842C34.4442 97.9477 31.6758 101.574 30.1648 105.769C29.6913 107.213 28.7744 108.471 27.5447 109.363C26.315 110.256 24.8352 110.738 23.3157 110.741H12.037C8.84462 110.741 5.78295 109.473 3.52557 107.215C1.26818 104.958 0 101.896 0 98.7037V12.037C0 8.84462 1.26818 5.78295 3.52557 3.52557C5.78295 1.26818 8.84462 0 12.037 0H117.963C121.155 0 124.217 1.26818 126.474 3.52557C128.732 5.78295 130 8.84462 130 12.037ZM50.5556 77.037C52.4601 77.037 54.3219 76.4723 55.9055 75.4141C57.4891 74.356 58.7233 72.8521 59.4522 71.0925C60.181 69.3329 60.3717 67.3967 60.0002 65.5288C59.6286 63.6608 58.7115 61.945 57.3647 60.5982C56.018 59.2515 54.3022 58.3344 52.4342 57.9628C50.5662 57.5912 48.63 57.7819 46.8705 58.5108C45.1109 59.2396 43.6069 60.4739 42.5488 62.0575C41.4907 63.641 40.9259 65.5028 40.9259 67.4074C40.9259 69.9613 41.9405 72.4107 43.7464 74.2166C45.5523 76.0225 48.0016 77.037 50.5556 77.037ZM115.556 14.4444H14.4444V96.2963H18.6093C21.6469 90.5605 26.1701 85.7463 31.7056 82.3574C28.8892 78.8122 27.1297 74.5446 26.6291 70.0446C26.1285 65.5446 26.907 60.9946 28.8754 56.9171C30.8437 52.8396 33.9221 49.3998 37.7569 46.9927C41.5918 44.5856 46.0278 43.3087 50.5556 43.3087C55.0833 43.3087 59.5193 44.5856 63.3542 46.9927C67.1891 49.3998 70.2674 52.8396 72.2357 56.9171C74.2041 60.9946 74.9826 65.5446 74.482 70.0446C73.9814 74.5446 72.2219 78.8122 69.4056 82.3574C74.9411 85.7463 79.4642 90.5605 82.5019 96.2963H115.556V14.4444Z" fill="url(#paint0_linear_383_130)"/>
<defs>
<linearGradient id="paint0_linear_383_130" x1="-156.298" y1="251.914" x2="165.068" y2="50.2021" gradientUnits="userSpaceOnUse">
<stop stop-color="#FFCD01"/>
<stop offset="0.28125" stop-color="#F87F39"/>
<stop offset="0.53125" stop-color="#F05A5A" stop-opacity="0.45"/>
<stop offset="0.75" stop-color="#EB426F"/>
<stop offset="1" stop-color="#DF1995"/>
</linearGradient>
</defs>
</svg>
