<svg width="900" height="613" viewBox="0 0 900 613" fill="none" xmlns="http://www.w3.org/2000/svg">
<path d="M238.787 354.49C248.867 354.49 256.081 352.713 260.331 349.16C264.58 345.606 266.754 341.362 266.754 336.427C266.754 331.491 265.074 328.234 261.714 325.47C258.354 322.707 253.413 320.239 246.693 318.166L232.068 313.626C224.063 311.158 216.849 308.394 210.327 305.532C203.804 302.571 198.27 299.017 193.725 294.97C189.179 290.923 185.621 285.988 183.052 280.362C180.482 274.736 179.198 267.925 179.198 259.93C179.198 243.94 185.226 231.305 197.381 221.928C209.437 212.65 226.336 207.912 247.879 207.912C269.422 207.912 263.691 208.504 270.608 209.59C277.526 210.775 283.554 212.453 288.495 214.92C293.436 217.289 297.389 220.25 300.255 223.606C303.121 227.061 304.504 231.009 304.504 235.648C304.504 240.288 303.417 243.841 301.243 247.197C299.069 250.553 296.5 253.317 293.634 255.587C289.286 252.527 283.455 249.961 276.241 247.888C269.027 245.815 261.121 244.729 252.524 244.729C243.926 244.729 236.613 246.111 232.265 248.974C227.917 251.836 225.644 255.488 225.644 259.831C225.644 264.174 227.028 266.543 229.893 268.517C232.759 270.491 237.206 272.564 243.333 274.637L258.75 279.77C267.742 282.83 275.549 286.087 282.368 289.64C289.088 293.194 294.82 297.142 299.366 301.682C303.911 306.124 307.37 311.257 309.643 317.08C311.916 322.904 313.102 329.517 313.102 336.92C313.102 344.323 311.521 352.22 308.358 358.734C305.196 365.249 300.551 370.974 294.326 375.711C288.1 380.449 280.491 384.2 271.498 386.865C262.406 389.53 252.03 390.912 240.171 390.912C228.312 390.912 223.272 390.221 215.861 388.741C208.449 387.359 202.026 385.286 196.59 382.621C191.155 379.956 186.906 376.699 183.743 372.75C180.581 368.802 179 364.459 179 359.425C179 354.391 180.482 350.048 183.447 346.593C186.412 343.139 189.673 340.375 193.329 338.302C198.468 342.448 204.891 346.199 212.6 349.456C220.308 352.713 229.004 354.292 238.787 354.292V354.49ZM368.047 335.637C370.715 343.632 375.36 349.258 382.08 352.614C388.701 355.97 396.508 357.648 405.204 357.648C413.901 357.648 420.719 356.563 427.835 354.391C434.851 352.22 440.583 349.752 445.03 347.087C447.896 348.962 450.267 351.43 452.145 354.49C454.023 357.55 455.011 360.906 455.011 364.459C455.011 368.012 453.627 372.652 450.959 375.909C448.291 379.166 444.634 381.831 439.99 384.003C435.345 386.174 429.811 387.852 423.388 388.839C416.964 389.925 409.948 390.419 402.338 390.419C391.073 390.419 380.696 388.839 371.209 385.681C361.722 382.522 353.52 377.883 346.603 371.665C339.784 365.446 334.349 357.747 330.495 348.37C326.542 339.092 324.664 328.135 324.664 315.501C324.664 302.867 326.641 292.799 330.495 283.817C334.447 274.834 339.685 267.432 346.207 261.509C352.828 255.587 360.339 251.244 368.838 248.48C377.336 245.716 386.033 244.334 395.026 244.334C404.018 244.334 413.703 245.815 421.806 248.776C429.91 251.737 436.827 255.883 442.658 261.213C448.488 266.543 453.034 272.959 456.197 280.362C459.458 287.765 461.039 295.859 461.039 304.644C461.039 313.428 459.458 315.304 456.197 318.364C452.935 321.423 448.39 323.398 442.46 324.385L368.146 335.538H368.047V335.637ZM395.223 276.809C387.021 276.809 380.202 279.375 374.767 284.409C369.332 289.443 366.169 296.747 365.181 306.223L419.83 297.339C419.435 292.404 417.261 287.765 413.209 283.323C409.157 278.98 403.228 276.71 395.223 276.71V276.809ZM526.459 352.318C529.918 354.687 534.662 355.872 540.789 355.872C546.915 355.872 546.718 355.576 549.979 354.885C553.24 354.194 556.007 353.404 558.28 352.417C559.96 354.292 561.442 356.464 562.529 359.03C563.715 361.498 564.209 364.36 564.209 367.618C564.209 374.33 561.541 379.758 556.304 384.003C551.066 388.247 541.974 390.419 529.029 390.419C516.083 390.419 500.568 386.766 491.575 379.462C482.582 372.158 478.135 360.215 478.135 343.632V215.414C480.21 214.821 482.977 214.229 486.436 213.538C489.895 212.847 493.551 212.551 497.603 212.551C506.003 212.551 512.031 214.032 515.786 216.993C519.542 219.954 521.321 225.284 521.321 233.082V251.639H560.751C561.739 253.514 562.628 255.982 563.616 258.943C564.605 261.904 565 264.964 565 268.221C565 274.341 563.616 278.684 560.849 281.349C558.082 284.014 554.525 285.396 550.177 285.396H521.321V340.77C521.321 346.1 523.001 349.949 526.459 352.318Z" fill="white"/>
<path d="M191.666 451.987H179.198V413.396C179.693 413.198 180.484 413.001 181.573 412.704C182.661 412.407 183.849 412.308 185.036 412.308C187.213 412.308 188.895 412.704 189.983 413.594C191.072 414.485 191.666 415.87 191.666 417.849V451.888V451.987ZM211.06 440.509C217.491 440.509 223.329 441.894 228.475 444.664C233.62 447.435 237.677 451.591 240.646 457.231C243.614 462.871 245.098 469.996 245.098 478.604C245.098 487.213 243.515 494.535 240.448 500.175C237.38 505.815 233.125 509.971 227.683 512.643C222.241 515.314 216.007 516.7 208.784 516.7C201.561 516.7 199.087 516.106 194.931 514.82C190.775 513.533 187.51 512.247 184.838 510.763C182.661 509.279 181.177 507.992 180.286 506.706C179.495 505.42 179 503.737 179 501.56V449.612H191.468V501.56C193.051 502.748 195.327 503.836 198.295 504.826C201.264 505.914 204.727 506.409 208.586 506.409C215.71 506.409 221.35 504.133 225.704 499.68C230.058 495.228 232.136 488.202 232.136 478.604C232.136 469.006 229.959 461.882 225.605 457.429C221.252 452.976 215.71 450.799 208.883 450.799C202.055 450.799 201.066 451.591 197.8 453.174C194.535 454.757 191.962 456.637 189.884 458.715L187.51 448.523C189.786 446.742 192.853 444.961 196.712 443.18C200.571 441.399 205.222 440.41 210.763 440.41H211.06V440.509Z" fill="white"/>
<path d="M273.002 498.493C271.221 495.129 269.143 490.676 266.57 485.036C264.097 479.396 261.524 473.063 258.852 466.038C256.181 459.012 253.707 451.888 251.233 444.565C251.926 443.576 252.915 442.685 254.103 442.092C255.29 441.498 256.577 441.201 257.962 441.201C259.347 441.201 261.227 441.696 262.316 442.586C263.503 443.477 264.394 445.06 265.086 447.237C268.253 455.945 271.518 464.652 274.882 473.261C278.346 481.87 282.106 490.874 286.261 500.076H286.855C289.032 495.722 291.308 490.28 293.683 483.651C296.058 477.12 298.333 470.193 300.51 462.871C302.687 455.549 304.468 448.721 305.952 442.29C306.645 441.993 307.536 441.696 308.327 441.399C309.218 441.102 310.207 441.003 311.197 441.003C312.978 441.003 314.462 441.399 315.551 442.29C316.738 443.18 317.233 444.467 317.233 446.248C317.233 448.029 316.738 450.7 315.847 454.559C314.957 458.418 313.671 462.97 311.988 468.116C310.405 473.261 308.525 478.703 306.348 484.541C304.171 490.28 301.896 496.019 299.521 501.561C297.047 507.102 294.573 512.148 292.099 516.601C287.35 525.407 282.897 532.235 278.939 536.985C274.981 541.734 271.32 544.109 268.055 544.109C264.789 544.109 263.8 543.515 262.514 542.229C261.227 540.942 260.436 539.557 260.139 537.875C262.415 535.896 264.987 533.224 267.857 529.959C270.726 526.694 273.497 523.132 276.169 519.371C278.84 515.611 281.017 511.95 282.6 508.487C280.819 507.992 279.236 507.003 277.653 505.716C276.169 504.331 274.486 501.956 272.606 498.394H273.002V498.493Z" fill="white"/>
<path d="M376.306 502.253V449.81L388.773 449.612V502.649C388.773 504.628 388.378 506.211 387.487 507.399C386.596 508.586 385.211 509.773 383.331 510.862C381.253 512.247 378.483 513.533 374.92 514.721C371.358 515.908 367.103 516.502 362.156 516.502C354.636 516.502 348.006 515.216 342.069 512.643C336.231 510.07 331.58 505.914 328.216 500.373C324.852 494.832 323.17 487.609 323.17 478.802C323.17 469.996 324.753 462.376 327.919 456.835C331.086 451.195 335.341 447.039 340.783 444.467C346.225 441.795 352.162 440.509 358.594 440.509C365.025 440.509 366.51 441.102 370.171 442.191C373.832 443.378 376.702 444.763 378.779 446.446V458.023C376.8 456.044 374.228 454.362 371.061 452.976C367.895 451.591 364.135 450.898 359.88 450.898C355.625 450.898 351.667 451.789 348.006 453.669C344.345 455.45 341.475 458.517 339.299 462.673C337.122 466.829 336.033 472.37 336.033 479.396C336.033 486.421 338.309 495.723 342.861 500.076C347.412 504.43 353.547 506.508 361.166 506.508C368.785 506.508 367.796 506.112 370.171 505.321C372.546 504.529 374.624 503.54 376.504 502.451L376.306 502.253ZM388.872 452.778L376.405 452.976V413.495C376.899 413.297 377.691 413.1 378.779 412.803C379.868 412.506 380.956 412.407 382.144 412.407C384.42 412.407 386.102 412.803 387.19 413.693C388.279 414.584 388.872 415.969 388.872 417.948V452.778Z" fill="white"/>
<path d="M410.839 486.52L410.245 476.724L457.345 470.292C456.95 464.553 454.971 459.903 451.408 456.143C447.846 452.481 442.998 450.601 436.764 450.601C430.53 450.601 424.989 452.877 420.734 457.528C416.479 462.179 414.401 468.808 414.401 477.417V480.88C415.094 489.192 417.865 495.525 422.614 499.878C427.364 504.232 433.795 506.31 442.008 506.31C450.221 506.31 450.32 505.617 453.882 504.133C457.444 502.649 460.215 501.165 462.293 499.483C463.48 500.175 464.371 501.066 465.064 502.055C465.756 503.045 466.053 504.133 466.053 505.42C466.053 507.399 464.965 509.279 462.689 510.961C460.413 512.643 457.444 514.028 453.783 515.117C450.122 516.106 445.966 516.7 441.415 516.7C433.4 516.7 426.473 515.216 420.536 512.346C414.698 509.476 410.146 505.123 406.98 499.285C403.814 493.546 402.23 486.421 402.23 478.109C402.23 469.798 403.121 466.928 404.803 462.277C406.485 457.627 408.959 453.768 412.027 450.502C415.094 447.237 418.755 444.763 423.01 443.081C427.265 441.399 431.915 440.509 436.863 440.509C441.81 440.509 448.836 441.894 453.684 444.565C458.533 447.237 462.293 450.997 465.064 455.846C467.834 460.694 469.219 466.235 469.219 472.469C469.219 478.703 468.725 476.427 467.636 477.417C466.548 478.406 465.162 479 463.282 479.198L410.839 486.52Z" fill="white"/>
<path d="M531.954 495.426C531.954 502.055 529.48 507.3 524.631 511.06C519.783 514.82 512.658 516.7 503.357 516.7C494.056 516.7 489.009 515.512 483.963 513.039C479.015 510.565 476.443 507.893 476.443 505.024C476.443 502.154 476.74 502.55 477.432 501.363C478.125 500.175 479.114 499.186 480.5 498.493C483.27 500.472 486.635 502.253 490.296 503.935C494.056 505.617 498.311 506.409 503.06 506.409C513.846 506.409 519.288 502.748 519.288 495.525C519.288 488.301 518.397 490.082 516.517 488.103C514.736 486.223 512.065 484.838 508.502 483.947L495.54 480.484C489.207 478.901 484.557 476.526 481.687 473.261C478.818 469.996 477.333 465.939 477.333 460.991C477.333 456.044 479.609 450.7 484.062 446.643C488.515 442.587 495.342 440.509 504.544 440.509C513.747 440.509 513.747 441.003 517.309 441.993C520.97 442.982 523.741 444.269 525.819 445.852C527.897 447.435 528.886 449.216 528.886 451.096C528.886 452.976 528.589 453.669 527.897 454.658C527.204 455.747 526.313 456.439 525.126 457.033C523.84 456.242 522.256 455.252 520.376 454.263C518.496 453.273 516.221 452.481 513.549 451.789C510.976 451.096 508.107 450.799 504.94 450.799C500.389 450.799 496.629 451.69 493.858 453.471C491.087 455.252 489.603 457.726 489.603 460.991C489.603 464.256 490.395 465.246 491.978 467.027C493.561 468.709 496.134 469.996 499.696 470.886L510.481 473.558C517.606 475.24 522.85 477.813 526.412 481.474C529.975 485.036 531.756 489.786 531.756 495.624L531.954 495.426Z" fill="white"/>
<path d="M543.531 419.729C543.531 417.552 544.322 415.672 545.905 414.188C547.489 412.704 549.369 411.912 551.644 411.912C553.92 411.912 555.998 412.704 557.384 414.188C558.868 415.672 559.56 417.552 559.56 419.729C559.56 421.906 558.868 423.786 557.384 425.27C555.899 426.755 554.019 427.546 551.644 427.546C549.27 427.546 547.39 426.755 545.905 425.27C544.322 423.786 543.531 421.906 543.531 419.729ZM557.878 479.495H545.411V442.784C545.905 442.587 546.697 442.389 547.785 442.092C548.874 441.795 550.061 441.696 551.249 441.696C553.426 441.696 555.108 442.092 556.196 442.982C557.285 443.873 557.878 445.357 557.878 447.435V479.396V479.495ZM545.411 473.36H557.878V514.226C557.384 514.424 556.592 514.622 555.504 514.919C554.415 515.216 553.327 515.315 552.04 515.315C549.863 515.315 548.181 514.919 547.093 514.028C545.905 513.138 545.411 511.752 545.411 509.773V473.36Z" fill="white"/>
<path d="M605.968 512.445C599.932 512.445 594.391 511.258 589.245 508.982C584.1 506.607 580.043 502.847 576.877 497.504C573.71 492.16 572.226 485.135 572.226 476.427C572.226 467.72 573.809 461.882 576.877 456.637C579.944 451.294 584.199 447.336 589.641 444.664C595.083 441.993 601.218 440.608 608.244 440.608C615.269 440.608 617.446 441.201 621.404 442.389C625.362 443.576 628.726 445.06 631.497 446.841C633.08 447.93 634.366 449.018 635.356 450.305C636.345 451.591 636.84 453.174 636.84 455.054V503.243H624.373V455.153C622.591 453.966 620.415 452.976 617.743 452.086C615.071 451.195 611.905 450.799 608.343 450.799C601.416 450.799 595.776 452.976 591.521 457.231C587.266 461.486 585.09 467.819 585.09 476.229C585.09 484.64 587.266 492.259 591.521 496.217C595.875 500.175 601.218 502.154 607.551 502.154C613.884 502.154 615.863 501.363 618.633 499.779C621.404 498.196 623.68 496.514 625.362 494.634L625.956 505.716C624.373 507.399 621.899 508.883 618.535 510.367C615.17 511.752 611.014 512.445 606.166 512.445H605.968ZM624.175 516.997V500.571H636.642V517.788C636.642 524.616 635.158 530.157 632.19 534.313C629.221 538.469 625.164 541.536 620.019 543.317C614.873 545.197 609.035 546.088 602.604 546.088C596.172 546.088 592.907 545.494 589.146 544.406C585.386 543.218 582.814 542.328 581.527 541.635C578.361 539.854 576.877 537.677 576.877 534.907C576.877 532.136 577.174 532.235 577.866 531.245C578.559 530.256 579.449 529.464 580.439 528.97C582.616 530.652 585.683 532.136 589.74 533.62C593.698 535.006 598.052 535.698 602.604 535.698C609.53 535.698 614.873 534.214 618.633 531.147C622.295 528.079 624.175 523.428 624.175 516.898V516.997Z" fill="white"/>
<path d="M716 467.027V482.958H703.532V467.621C703.532 461.783 701.85 457.528 698.585 454.856C695.319 452.185 690.867 450.799 685.425 450.799C679.982 450.799 677.607 451.294 674.342 452.383C671.077 453.471 668.405 454.658 666.03 455.945V482.958H653.563V456.538C653.563 454.362 653.959 452.58 654.849 451.195C655.74 449.81 657.224 448.425 659.5 447.039C662.171 445.456 665.832 443.972 670.285 442.586C674.738 441.201 679.784 440.509 685.425 440.509C694.924 440.509 702.345 442.685 707.787 446.94C713.229 451.294 716 457.924 716 467.027ZM653.563 474.349H666.03V514.325C665.536 514.523 664.744 514.721 663.656 515.018C662.567 515.315 661.479 515.413 660.192 515.413C658.015 515.413 656.333 515.018 655.245 514.127C654.057 513.237 653.563 511.851 653.563 509.872V474.448V474.349ZM703.532 474.349H716V514.325C715.505 514.523 714.714 514.721 713.625 515.018C712.537 515.315 711.448 515.413 710.261 515.413C707.985 515.413 706.303 515.018 705.214 514.127C704.126 513.237 703.532 511.851 703.532 509.872V474.448V474.349Z" fill="white"/>
</svg>
