<svg width="931" height="512" viewBox="0 0 931 512" fill="none" xmlns="http://www.w3.org/2000/svg">
<path d="M276.787 266.99C286.867 266.99 294.081 265.213 298.331 261.66C302.58 258.106 304.754 253.862 304.754 248.927C304.754 243.991 303.074 240.734 299.714 237.97C296.354 235.207 291.413 232.739 284.693 230.666L270.068 226.126C262.063 223.658 254.849 220.894 248.327 218.032C241.804 215.071 236.27 211.517 231.725 207.47C227.179 203.423 223.621 198.488 221.052 192.862C218.482 187.236 217.198 180.425 217.198 172.43C217.198 156.44 223.226 143.805 235.381 134.428C247.437 125.15 264.336 120.412 285.879 120.412C307.422 120.412 301.691 121.004 308.608 122.09C315.526 123.275 321.554 124.953 326.495 127.42C331.436 129.789 335.389 132.75 338.255 136.106C341.121 139.561 342.504 143.509 342.504 148.148C342.504 152.788 341.417 156.341 339.243 159.697C337.069 163.053 334.5 165.817 331.634 168.087C327.286 165.027 321.455 162.461 314.241 160.388C307.027 158.315 299.121 157.229 290.524 157.229C281.926 157.229 274.613 158.611 270.265 161.474C265.917 164.336 263.644 167.988 263.644 172.331C263.644 176.674 265.028 179.043 267.893 181.017C270.759 182.991 275.206 185.064 281.333 187.137L296.75 192.27C305.742 195.33 313.549 198.587 320.368 202.14C327.088 205.694 332.82 209.642 337.366 214.182C341.911 218.624 345.37 223.757 347.643 229.58C349.916 235.404 351.102 242.017 351.102 249.42C351.102 256.823 349.521 264.72 346.358 271.234C343.196 277.749 338.551 283.474 332.326 288.211C326.1 292.949 318.491 296.7 309.498 299.365C300.406 302.03 290.03 303.412 278.171 303.412C266.312 303.412 261.272 302.721 253.861 301.241C246.449 299.859 240.026 297.786 234.59 295.121C229.155 292.456 224.906 289.199 221.743 285.25C218.581 281.302 217 276.959 217 271.925C217 266.891 218.482 262.548 221.447 259.093C224.412 255.639 227.673 252.875 231.329 250.802C236.468 254.948 242.891 258.699 250.6 261.956C258.308 265.213 267.004 266.792 276.787 266.792V266.99ZM406.047 248.137C408.715 256.132 413.36 261.758 420.08 265.114C426.701 268.47 434.508 270.148 443.204 270.148C451.901 270.148 458.719 269.063 465.835 266.891C472.851 264.72 478.583 262.252 483.03 259.587C485.896 261.462 488.267 263.93 490.145 266.99C492.023 270.05 493.011 273.406 493.011 276.959C493.011 280.512 491.627 285.152 488.959 288.409C486.291 291.666 482.634 294.331 477.99 296.503C473.345 298.674 467.811 300.352 461.388 301.339C454.964 302.425 447.948 302.919 440.338 302.919C429.073 302.919 418.696 301.339 409.209 298.181C399.722 295.022 391.52 290.383 384.603 284.165C377.784 277.946 372.349 270.247 368.495 260.87C364.542 251.592 362.664 240.635 362.664 228.001C362.664 215.367 364.641 205.299 368.495 196.317C372.447 187.334 377.685 179.932 384.207 174.009C390.828 168.087 398.339 163.744 406.838 160.98C415.336 158.216 424.033 156.834 433.026 156.834C442.018 156.834 451.703 158.315 459.806 161.276C467.91 164.237 474.827 168.383 480.658 173.713C486.488 179.043 491.034 185.459 494.197 192.862C497.458 200.265 499.039 208.359 499.039 217.144C499.039 225.928 497.458 227.804 494.197 230.864C490.935 233.923 486.39 235.898 480.46 236.885L406.146 248.038H406.047V248.137ZM433.223 189.309C425.021 189.309 418.202 191.875 412.767 196.909C407.332 201.943 404.169 209.247 403.181 218.723L457.83 209.839C457.435 204.904 455.261 200.265 451.209 195.823C447.157 191.48 441.228 189.21 433.223 189.21V189.309ZM564.459 264.818C567.918 267.187 572.662 268.372 578.789 268.372C584.915 268.372 584.718 268.076 587.979 267.385C591.24 266.694 594.007 265.904 596.28 264.917C597.96 266.792 599.442 268.964 600.529 271.53C601.715 273.998 602.209 276.86 602.209 280.118C602.209 286.83 599.541 292.258 594.304 296.503C589.066 300.747 579.974 302.919 567.029 302.919C554.083 302.919 538.568 299.266 529.575 291.962C520.582 284.658 516.135 272.715 516.135 256.132V127.914C518.21 127.321 520.977 126.729 524.436 126.038C527.895 125.347 531.551 125.051 535.603 125.051C544.003 125.051 550.031 126.532 553.786 129.493C557.542 132.454 559.321 137.784 559.321 145.582V164.139H598.751C599.739 166.014 600.628 168.482 601.616 171.443C602.605 174.404 603 177.464 603 180.721C603 186.841 601.616 191.184 598.849 193.849C596.082 196.514 592.525 197.896 588.177 197.896H559.321V253.27C559.321 258.6 561.001 262.449 564.459 264.818Z" fill="white"/>
<path d="M229.666 364.487H217.198V325.896C217.693 325.698 218.484 325.501 219.573 325.204C220.661 324.907 221.849 324.808 223.036 324.808C225.213 324.808 226.895 325.204 227.983 326.094C229.072 326.985 229.666 328.37 229.666 330.349V364.388V364.487ZM249.06 353.009C255.491 353.009 261.329 354.394 266.475 357.164C271.62 359.935 275.677 364.091 278.646 369.731C281.614 375.371 283.098 382.496 283.098 391.104C283.098 399.713 281.515 407.035 278.448 412.675C275.38 418.315 271.125 422.471 265.683 425.143C260.241 427.814 254.007 429.2 246.784 429.2C239.561 429.2 237.087 428.606 232.931 427.32C228.775 426.033 225.51 424.747 222.838 423.263C220.661 421.779 219.177 420.492 218.286 419.206C217.495 417.92 217 416.237 217 414.06V362.112H229.468V414.06C231.051 415.248 233.327 416.336 236.295 417.326C239.264 418.414 242.727 418.909 246.586 418.909C253.71 418.909 259.35 416.633 263.704 412.18C268.058 407.728 270.136 400.702 270.136 391.104C270.136 381.506 267.959 374.382 263.605 369.929C259.252 365.476 253.71 363.299 246.883 363.299C240.055 363.299 239.066 364.091 235.8 365.674C232.535 367.257 229.962 369.137 227.884 371.215L225.51 361.023C227.786 359.242 230.853 357.461 234.712 355.68C238.571 353.899 243.222 352.91 248.763 352.91H249.06V353.009Z" fill="white"/>
<path d="M311.002 410.993C309.221 407.629 307.143 403.176 304.57 397.536C302.097 391.896 299.524 385.563 296.852 378.538C294.181 371.512 291.707 364.388 289.233 357.065C289.926 356.076 290.915 355.185 292.103 354.592C293.29 353.998 294.577 353.701 295.962 353.701C297.347 353.701 299.227 354.196 300.316 355.086C301.503 355.977 302.394 357.56 303.086 359.737C306.253 368.445 309.518 377.152 312.882 385.761C316.346 394.37 320.106 403.374 324.261 412.576H324.855C327.032 408.222 329.308 402.78 331.683 396.151C334.058 389.62 336.333 382.693 338.51 375.371C340.687 368.049 342.468 361.221 343.952 354.79C344.645 354.493 345.536 354.196 346.327 353.899C347.218 353.602 348.207 353.503 349.197 353.503C350.978 353.503 352.462 353.899 353.551 354.79C354.738 355.68 355.233 356.967 355.233 358.748C355.233 360.529 354.738 363.2 353.847 367.059C352.957 370.918 351.671 375.47 349.988 380.616C348.405 385.761 346.525 391.203 344.348 397.041C342.171 402.78 339.896 408.519 337.521 414.061C335.047 419.602 332.573 424.648 330.099 429.101C325.35 437.907 320.897 444.735 316.939 449.485C312.981 454.234 309.32 456.609 306.055 456.609C302.789 456.609 301.8 456.015 300.514 454.729C299.227 453.442 298.436 452.057 298.139 450.375C300.415 448.396 302.987 445.724 305.857 442.459C308.726 439.194 311.497 435.632 314.169 431.871C316.84 428.111 319.017 424.45 320.6 420.987C318.819 420.492 317.236 419.503 315.653 418.216C314.169 416.831 312.486 414.456 310.606 410.894H311.002V410.993Z" fill="white"/>
<path d="M414.306 414.753V362.31L426.773 362.112V415.149C426.773 417.128 426.378 418.711 425.487 419.899C424.596 421.086 423.211 422.273 421.331 423.362C419.253 424.747 416.483 426.033 412.92 427.221C409.358 428.408 405.103 429.002 400.156 429.002C392.636 429.002 386.006 427.716 380.069 425.143C374.231 422.57 369.58 418.414 366.216 412.873C362.852 407.332 361.17 400.109 361.17 391.302C361.17 382.496 362.753 374.876 365.919 369.335C369.086 363.695 373.341 359.539 378.783 356.967C384.225 354.295 390.162 353.009 396.594 353.009C403.025 353.009 404.51 353.602 408.171 354.691C411.832 355.878 414.702 357.263 416.779 358.946V370.523C414.8 368.544 412.228 366.862 409.061 365.476C405.895 364.091 402.135 363.398 397.88 363.398C393.625 363.398 389.667 364.289 386.006 366.169C382.345 367.95 379.475 371.017 377.299 375.173C375.122 379.329 374.033 384.87 374.033 391.896C374.033 398.921 376.309 408.223 380.861 412.576C385.412 416.93 391.547 419.008 399.166 419.008C406.785 419.008 405.796 418.612 408.171 417.821C410.546 417.029 412.624 416.04 414.504 414.951L414.306 414.753ZM426.872 365.278L414.405 365.476V325.995C414.899 325.797 415.691 325.6 416.779 325.303C417.868 325.006 418.956 324.907 420.144 324.907C422.42 324.907 424.102 325.303 425.19 326.193C426.279 327.084 426.872 328.469 426.872 330.448V365.278Z" fill="white"/>
<path d="M448.839 399.02L448.245 389.224L495.345 382.792C494.95 377.053 492.971 372.403 489.408 368.643C485.846 364.981 480.998 363.101 474.764 363.101C468.53 363.101 462.989 365.377 458.734 370.028C454.479 374.679 452.401 381.308 452.401 389.917V393.38C453.094 401.692 455.865 408.025 460.614 412.378C465.364 416.732 471.795 418.81 480.008 418.81C488.221 418.81 488.32 418.117 491.882 416.633C495.444 415.149 498.215 413.665 500.293 411.983C501.48 412.675 502.371 413.566 503.064 414.555C503.756 415.545 504.053 416.633 504.053 417.92C504.053 419.899 502.965 421.779 500.689 423.461C498.413 425.143 495.444 426.528 491.783 427.617C488.122 428.606 483.966 429.2 479.415 429.2C471.4 429.2 464.473 427.716 458.536 424.846C452.698 421.976 448.146 417.623 444.98 411.785C441.814 406.046 440.23 398.921 440.23 390.609C440.23 382.298 441.121 379.428 442.803 374.777C444.485 370.127 446.959 366.268 450.027 363.002C453.094 359.737 456.755 357.263 461.01 355.581C465.265 353.899 469.915 353.009 474.863 353.009C479.81 353.009 486.836 354.394 491.684 357.065C496.533 359.737 500.293 363.497 503.064 368.346C505.834 373.194 507.219 378.735 507.219 384.969C507.219 391.203 506.725 388.927 505.636 389.917C504.548 390.906 503.162 391.5 501.282 391.698L448.839 399.02Z" fill="white"/>
<path d="M569.954 407.926C569.954 414.555 567.48 419.8 562.631 423.56C557.783 427.32 550.658 429.2 541.357 429.2C532.056 429.2 527.009 428.012 521.963 425.539C517.015 423.065 514.443 420.393 514.443 417.524C514.443 414.654 514.74 415.05 515.432 413.863C516.125 412.675 517.114 411.686 518.5 410.993C521.27 412.972 524.635 414.753 528.296 416.435C532.056 418.117 536.311 418.909 541.06 418.909C551.846 418.909 557.288 415.248 557.288 408.025C557.288 400.801 556.397 402.582 554.517 400.603C552.736 398.723 550.065 397.338 546.502 396.447L533.54 392.984C527.207 391.401 522.557 389.026 519.687 385.761C516.818 382.496 515.333 378.439 515.333 373.491C515.333 368.544 517.609 363.2 522.062 359.143C526.515 355.087 533.342 353.009 542.544 353.009C551.747 353.009 551.747 353.503 555.309 354.493C558.97 355.482 561.741 356.769 563.819 358.352C565.897 359.935 566.886 361.716 566.886 363.596C566.886 365.476 566.589 366.169 565.897 367.158C565.204 368.247 564.313 368.939 563.126 369.533C561.84 368.742 560.256 367.752 558.376 366.763C556.496 365.773 554.221 364.981 551.549 364.289C548.976 363.596 546.107 363.299 542.94 363.299C538.389 363.299 534.629 364.19 531.858 365.971C529.087 367.752 527.603 370.226 527.603 373.491C527.603 376.756 528.395 377.746 529.978 379.527C531.561 381.209 534.134 382.496 537.696 383.386L548.481 386.058C555.606 387.74 560.85 390.313 564.412 393.974C567.975 397.536 569.756 402.286 569.756 408.124L569.954 407.926Z" fill="white"/>
<path d="M581.531 332.229C581.531 330.052 582.322 328.172 583.905 326.688C585.489 325.204 587.369 324.412 589.644 324.412C591.92 324.412 593.998 325.204 595.384 326.688C596.868 328.172 597.56 330.052 597.56 332.229C597.56 334.406 596.868 336.286 595.384 337.77C593.899 339.255 592.019 340.046 589.644 340.046C587.27 340.046 585.39 339.255 583.905 337.77C582.322 336.286 581.531 334.406 581.531 332.229ZM595.878 391.995H583.411V355.284C583.905 355.087 584.697 354.889 585.785 354.592C586.874 354.295 588.061 354.196 589.249 354.196C591.426 354.196 593.108 354.592 594.196 355.482C595.285 356.373 595.878 357.857 595.878 359.935V391.896V391.995ZM583.411 385.86H595.878V426.726C595.384 426.924 594.592 427.122 593.504 427.419C592.415 427.716 591.327 427.815 590.04 427.815C587.863 427.815 586.181 427.419 585.093 426.528C583.905 425.638 583.411 424.252 583.411 422.273V385.86Z" fill="white"/>
<path d="M643.968 424.945C637.932 424.945 632.391 423.758 627.245 421.482C622.1 419.107 618.043 415.347 614.877 410.004C611.71 404.66 610.226 397.635 610.226 388.927C610.226 380.22 611.809 374.382 614.877 369.137C617.944 363.794 622.199 359.836 627.641 357.164C633.083 354.493 639.218 353.108 646.244 353.108C653.269 353.108 655.446 353.701 659.404 354.889C663.362 356.076 666.726 357.56 669.497 359.341C671.08 360.43 672.366 361.518 673.356 362.805C674.345 364.091 674.84 365.674 674.84 367.554V415.743H662.373V367.653C660.591 366.466 658.415 365.476 655.743 364.586C653.071 363.695 649.905 363.299 646.343 363.299C639.416 363.299 633.776 365.476 629.521 369.731C625.266 373.986 623.09 380.319 623.09 388.729C623.09 397.14 625.266 404.759 629.521 408.717C633.875 412.675 639.218 414.654 645.551 414.654C651.884 414.654 653.863 413.863 656.633 412.279C659.404 410.696 661.68 409.014 663.362 407.134L663.956 418.216C662.373 419.899 659.899 421.383 656.535 422.867C653.17 424.252 649.014 424.945 644.166 424.945H643.968ZM662.175 429.497V413.071H674.642V430.288C674.642 437.116 673.158 442.657 670.19 446.813C667.221 450.969 663.164 454.036 658.019 455.817C652.873 457.697 647.035 458.588 640.604 458.588C634.172 458.588 630.907 457.994 627.146 456.906C623.386 455.718 620.814 454.828 619.527 454.135C616.361 452.354 614.877 450.177 614.877 447.407C614.877 444.636 615.174 444.735 615.866 443.745C616.559 442.756 617.449 441.964 618.439 441.47C620.616 443.152 623.683 444.636 627.74 446.12C631.698 447.506 636.052 448.198 640.604 448.198C647.53 448.198 652.873 446.714 656.633 443.647C660.295 440.579 662.175 435.928 662.175 429.398V429.497Z" fill="white"/>
<path d="M754 379.527V395.458H741.532V380.121C741.532 374.283 739.85 370.028 736.585 367.356C733.319 364.685 728.867 363.299 723.425 363.299C717.982 363.299 715.607 363.794 712.342 364.883C709.077 365.971 706.405 367.158 704.03 368.445V395.458H691.563V369.038C691.563 366.862 691.959 365.08 692.849 363.695C693.74 362.31 695.224 360.925 697.5 359.539C700.171 357.956 703.832 356.472 708.285 355.086C712.738 353.701 717.784 353.009 723.425 353.009C732.924 353.009 740.345 355.185 745.787 359.44C751.229 363.794 754 370.424 754 379.527ZM691.563 386.849H704.03V426.825C703.536 427.023 702.744 427.221 701.656 427.518C700.567 427.815 699.479 427.913 698.192 427.913C696.015 427.913 694.333 427.518 693.245 426.627C692.057 425.737 691.563 424.351 691.563 422.372V386.948V386.849ZM741.532 386.849H754V426.825C753.505 427.023 752.714 427.221 751.625 427.518C750.537 427.815 749.448 427.913 748.261 427.913C745.985 427.913 744.303 427.518 743.214 426.627C742.126 425.737 741.532 424.351 741.532 422.372V386.948V386.849Z" fill="white"/>
</svg>
