<?xml version="1.0" encoding="UTF-8"?>
<svg id="Layer_1" data-name="Layer 1" xmlns="http://www.w3.org/2000/svg" xmlns:xlink="http://www.w3.org/1999/xlink" version="1.1" viewBox="0 0 1413.6 701.9">
  <defs>
    <style>
      .cls-1 {
        fill: url(#linear-gradient);
      }

      .cls-1, .cls-2 {
        stroke-width: 0px;
      }

      .cls-2 {
        fill: #df1995;
      }
    </style>
    <linearGradient id="linear-gradient" x1="434.8" y1="293.5" x2="825.4" y2="293.5" gradientUnits="userSpaceOnUse">
      <stop offset="0" stop-color="#ff7f41"/>
      <stop offset=".4" stop-color="#f45c5d"/>
      <stop offset="1" stop-color="#df1995"/>
    </linearGradient>
  </defs>
  <g>
    <path class="cls-2" d="M448.8,448h-12.6v-39c.5-.2,1.3-.4,2.4-.7,1.1-.3,2.3-.4,3.5-.4,2.2,0,3.9.4,5,1.3,1.1.9,1.7,2.3,1.7,4.3v34.4ZM468.4,436.4c6.5,0,12.4,1.4,17.6,4.2,5.2,2.8,9.3,7,12.3,12.7,3,5.7,4.5,12.9,4.5,21.6s-1.6,16.1-4.7,21.8c-3.1,5.7-7.4,9.9-12.9,12.6-5.5,2.7-11.8,4.1-19.1,4.1s-9.8-.6-14-1.9c-4.2-1.3-7.5-2.6-10.2-4.1-2.2-1.5-3.7-2.8-4.6-4.1-.8-1.3-1.3-3-1.3-5.2v-52.5h12.6v52.5c1.6,1.2,3.9,2.3,6.9,3.3,3,1.1,6.5,1.6,10.4,1.6,7.2,0,12.9-2.3,17.3-6.8,4.4-4.5,6.5-11.6,6.5-21.3s-2.2-16.9-6.6-21.4c-4.4-4.5-10-6.7-16.9-6.7s-7.9.8-11.2,2.4c-3.3,1.6-5.9,3.5-8,5.6l-2.4-10.3c2.3-1.8,5.4-3.6,9.3-5.4,3.9-1.8,8.6-2.8,14.2-2.8Z"/>
    <path class="cls-2" d="M531,495c-1.8-3.4-3.9-7.9-6.5-13.6-2.5-5.7-5.1-12.1-7.8-19.2-2.7-7.1-5.2-14.3-7.7-21.7.7-1,1.7-1.9,2.9-2.5,1.2-.6,2.5-.9,3.9-.9s3.3.5,4.4,1.4c1.2.9,2.1,2.5,2.8,4.7,3.2,8.8,6.5,17.6,9.9,26.3,3.5,8.7,7.3,17.8,11.5,27.1h.6c2.2-4.4,4.5-9.9,6.9-16.6,2.4-6.6,4.7-13.6,6.9-21,2.2-7.4,4-14.3,5.5-20.8.7-.3,1.6-.6,2.4-.9.9-.3,1.9-.4,2.9-.4,1.8,0,3.3.4,4.4,1.3,1.2.9,1.7,2.2,1.7,4s-.5,4.5-1.4,8.4c-.9,3.9-2.2,8.5-3.9,13.7-1.6,5.2-3.5,10.7-5.7,16.6-2.2,5.8-4.5,11.6-6.9,17.2-2.5,5.6-5,10.7-7.5,15.2-4.8,8.9-9.3,15.8-13.3,20.6-4,4.8-7.7,7.2-11,7.2s-4.3-.6-5.6-1.9c-1.3-1.3-2.1-2.7-2.4-4.4,2.3-2,4.9-4.7,7.8-8,2.9-3.3,5.7-6.9,8.4-10.7,2.7-3.8,4.9-7.5,6.5-11-1.8-.5-3.4-1.5-5-2.8-1.5-1.4-3.2-3.8-5.1-7.4Z"/>
    <path class="cls-2" d="M635.4,498.8v-53l12.6-.2v53.6c0,2-.4,3.6-1.3,4.8-.9,1.2-2.3,2.4-4.2,3.5-2.1,1.4-4.9,2.7-8.5,3.9-3.6,1.2-7.9,1.8-12.9,1.8-7.6,0-14.3-1.3-20.3-3.9-5.9-2.6-10.6-6.8-14-12.4-3.4-5.6-5.1-12.9-5.1-21.8s1.6-16.6,4.8-22.2c3.2-5.7,7.5-9.9,13-12.5,5.5-2.7,11.5-4,18-4s8,.6,11.7,1.7c3.7,1.2,6.6,2.6,8.7,4.3v11.7c-2-2-4.6-3.7-7.8-5.1-3.2-1.4-7-2.1-11.3-2.1s-8.3.9-12,2.8c-3.7,1.8-6.6,4.9-8.8,9.1-2.2,4.2-3.3,9.8-3.3,16.9s2.3,16.5,6.9,20.9c4.6,4.4,10.8,6.5,18.5,6.5s6.7-.4,9.1-1.2c2.4-.8,4.5-1.8,6.4-2.9ZM648.1,448.8l-12.6.2v-39.9c.5-.2,1.3-.4,2.4-.7,1.1-.3,2.2-.4,3.4-.4,2.3,0,4,.4,5.1,1.3,1.1.9,1.7,2.3,1.7,4.3v35.2Z"/>
    <path class="cls-2" d="M670.3,482.9l-.6-9.9,47.6-6.5c-.4-5.8-2.4-10.5-6-14.3-3.6-3.7-8.5-5.6-14.8-5.6s-11.9,2.3-16.2,7c-4.3,4.7-6.4,11.4-6.4,20.1v3.5c.7,8.4,3.5,14.8,8.3,19.2,4.8,4.4,11.3,6.5,19.6,6.5s8.4-.7,12-2.2c3.6-1.5,6.4-3,8.5-4.7,1.2.7,2.1,1.6,2.8,2.6.7,1,1,2.1,1,3.4,0,2-1.1,3.9-3.4,5.6-2.3,1.7-5.3,3.1-9,4.2-3.7,1-7.9,1.6-12.5,1.6-8.1,0-15.1-1.5-21.1-4.4-5.9-2.9-10.5-7.3-13.7-13.2-3.2-5.8-4.8-13-4.8-21.4s.9-11.3,2.6-16c1.7-4.7,4.2-8.6,7.3-11.9,3.1-3.3,6.8-5.8,11.1-7.5,4.3-1.7,9-2.6,14-2.6s12.1,1.4,17,4.1c4.9,2.7,8.7,6.5,11.5,11.4,2.8,4.9,4.2,10.5,4.2,16.8s-.5,4-1.6,5c-1.1,1-2.5,1.6-4.4,1.8l-53,7.4Z"/>
    <path class="cls-2" d="M792.7,491.9c0,6.7-2.5,12-7.4,15.8-4.9,3.8-12.1,5.7-21.5,5.7s-14.5-1.2-19.6-3.7c-5-2.5-7.6-5.2-7.6-8.1s.3-2.5,1-3.7c.7-1.2,1.7-2.2,3.1-2.9,2.8,2,6.2,3.8,9.9,5.5,3.8,1.7,8.1,2.5,12.9,2.5,10.9,0,16.4-3.7,16.4-11s-.9-5.5-2.8-7.5c-1.8-1.9-4.5-3.3-8.1-4.2l-13.1-3.5c-6.4-1.6-11.1-4-14-7.3-2.9-3.3-4.4-7.4-4.4-12.4s2.3-10.4,6.8-14.5c4.5-4.1,11.4-6.2,20.7-6.2s9.3.5,12.9,1.5c3.7,1,6.5,2.3,8.6,3.9,2.1,1.6,3.1,3.4,3.1,5.3s-.3,2.6-1,3.6c-.7,1.1-1.6,1.8-2.8,2.4-1.3-.8-2.9-1.8-4.8-2.8-1.9-1-4.2-1.8-6.9-2.5-2.6-.7-5.5-1-8.7-1-4.6,0-8.4.9-11.2,2.7-2.8,1.8-4.3,4.3-4.3,7.6s.8,4.3,2.4,6.1c1.6,1.7,4.2,3,7.8,3.9l10.9,2.7c7.2,1.7,12.5,4.3,16.1,8,3.6,3.6,5.4,8.4,5.4,14.3Z"/>
    <path class="cls-2" d="M804.4,415.4c0-2.2.8-4.1,2.4-5.6,1.6-1.5,3.5-2.3,5.8-2.3s4.4.8,5.8,2.3c1.5,1.5,2.2,3.4,2.2,5.6s-.7,4.1-2.2,5.6c-1.5,1.5-3.4,2.3-5.8,2.3s-4.3-.8-5.8-2.3c-1.6-1.5-2.4-3.4-2.4-5.6ZM818.9,475.8h-12.6v-37.1c.5-.2,1.3-.4,2.4-.7,1.1-.3,2.3-.4,3.5-.4,2.2,0,3.9.4,5,1.3,1.1.9,1.7,2.4,1.7,4.5v32.3ZM806.3,469.6h12.6v41.3c-.5.2-1.3.4-2.4.7-1.1.3-2.2.4-3.5.4-2.2,0-3.9-.4-5-1.3-1.2-.9-1.7-2.3-1.7-4.3v-36.8Z"/>
    <path class="cls-2" d="M867.5,509.1c-6.1,0-11.7-1.2-16.9-3.5-5.2-2.4-9.3-6.2-12.5-11.6-3.2-5.4-4.7-12.5-4.7-21.3s1.6-14.7,4.7-20c3.1-5.4,7.4-9.4,12.9-12.1,5.5-2.7,11.7-4.1,18.8-4.1s9.3.6,13.3,1.8c4,1.2,7.4,2.7,10.2,4.5,1.6,1.1,2.9,2.2,3.9,3.5,1,1.3,1.5,2.9,1.5,4.8v48.7h-12.6v-48.6c-1.8-1.2-4-2.2-6.7-3.1-2.7-.9-5.9-1.3-9.5-1.3-7,0-12.7,2.2-17,6.5-4.3,4.3-6.5,10.7-6.5,19.2s2.2,16.2,6.5,20.2c4.4,4,9.8,6,16.2,6s8.4-.8,11.2-2.4c2.8-1.6,5.1-3.3,6.8-5.2l.6,11.2c-1.6,1.7-4.1,3.2-7.5,4.7-3.4,1.4-7.6,2.1-12.5,2.1ZM885.9,513.7v-16.6h12.6v17.4c0,6.9-1.5,12.5-4.5,16.7-3,4.2-7.1,7.3-12.3,9.1-5.2,1.9-11.1,2.8-17.6,2.8s-9.8-.6-13.6-1.7c-3.8-1.2-6.4-2.1-7.7-2.8-3.2-1.8-4.7-4-4.7-6.8s.3-2.7,1-3.7c.7-1,1.6-1.8,2.6-2.3,2.2,1.7,5.3,3.2,9.4,4.7,4,1.4,8.4,2.1,13,2.1,7,0,12.4-1.5,16.2-4.6,3.7-3.1,5.6-7.8,5.6-14.4Z"/>
    <path class="cls-2" d="M978.7,463.2v16.1h-12.6v-15.5c0-5.9-1.7-10.2-5-12.9-3.3-2.7-7.8-4.1-13.3-4.1s-7.9.5-11.2,1.6c-3.3,1.1-6,2.3-8.4,3.6v27.3h-12.6v-26.7c0-2.2.4-4,1.3-5.4.9-1.4,2.4-2.8,4.7-4.2,2.7-1.6,6.4-3.1,10.9-4.5,4.5-1.4,9.6-2.1,15.3-2.1,9.6,0,17.1,2.2,22.6,6.5,5.5,4.4,8.3,11.1,8.3,20.3ZM915.6,470.6h12.6v40.4c-.5.2-1.3.4-2.4.7-1.1.3-2.2.4-3.5.4-2.2,0-3.9-.4-5-1.3-1.2-.9-1.7-2.3-1.7-4.3v-35.8ZM966.1,470.6h12.6v40.4c-.5.2-1.3.4-2.4.7-1.1.3-2.2.4-3.4.4-2.3,0-4-.4-5.1-1.3s-1.7-2.3-1.7-4.3v-35.8Z"/>
  </g>
  <path class="cls-1" d="M495.3,349.2c10.2,0,17.5-1.8,21.8-5.4,4.3-3.6,6.5-7.9,6.5-12.9s-1.7-8.3-5.1-11.1c-3.4-2.8-8.4-5.3-15.2-7.4l-14.8-4.6c-8.1-2.5-15.4-5.3-22-8.2-6.6-3-12.2-6.6-16.8-10.7-4.6-4.1-8.2-9.1-10.8-14.8-2.6-5.7-3.9-12.6-3.9-20.7,0-16.2,6.1-29,18.4-38.5,12.2-9.4,29.3-14.2,51.1-14.2s16,.6,23,1.7c7,1.2,13.1,2.9,18.1,5.4,5,2.4,9,5.4,11.9,8.8,2.9,3.5,4.3,7.5,4.3,12.2s-1.1,8.3-3.3,11.7c-2.2,3.4-4.8,6.2-7.7,8.5-4.4-3.1-10.3-5.7-17.6-7.8-7.3-2.1-15.3-3.2-24-3.2s-16.1,1.4-20.5,4.3c-4.4,2.9-6.7,6.6-6.7,11s1.4,6.8,4.3,8.8,7.4,4.1,13.6,6.2l15.6,5.2c9.1,3.1,17,6.4,23.9,10,6.8,3.6,12.6,7.6,17.2,12.2,4.6,4.5,8.1,9.7,10.4,15.6,2.3,5.9,3.5,12.6,3.5,20.1s-1.6,15.5-4.8,22.1-7.9,12.4-14.2,17.2c-6.3,4.8-14,8.6-23.1,11.3-9.2,2.7-19.7,4.1-31.7,4.1s-17.1-.7-24.6-2.2c-7.5-1.4-14-3.5-19.5-6.2-5.5-2.7-9.8-6-13-10-3.2-4-4.8-8.4-4.8-13.5s1.5-9.5,4.5-13c3-3.5,6.3-6.3,10-8.4,5.2,4.2,11.7,8,19.5,11.3,7.8,3.3,16.6,4.9,26.5,4.9ZM626.1,330.1c2.7,8.1,7.4,13.8,14.2,17.2,6.7,3.4,14.6,5.1,23.4,5.1s15.7-1.1,22.9-3.3c7.1-2.2,12.9-4.7,17.4-7.4,2.9,1.9,5.3,4.4,7.2,7.5,1.9,3.1,2.9,6.5,2.9,10.1s-1.4,8.3-4.1,11.6c-2.7,3.3-6.4,6-11.1,8.2-4.7,2.2-10.3,3.9-16.8,4.9-6.5,1.1-13.6,1.6-21.3,1.6-11.4,0-21.9-1.6-31.5-4.8-9.6-3.2-17.9-7.9-24.9-14.2-6.9-6.3-12.4-14.1-16.3-23.6-4-9.4-5.9-20.5-5.9-33.3s2-23,5.9-32.1c4-9.1,9.3-16.6,15.9-22.6,6.7-6,14.3-10.4,22.9-13.2,8.6-2.8,17.4-4.2,26.5-4.2s18.9,1.5,27.1,4.5c8.2,3,15.2,7.2,21.1,12.6,5.9,5.4,10.5,11.9,13.7,19.4,3.3,7.5,4.9,15.7,4.9,24.6s-1.6,10.8-4.9,13.9c-3.3,3.1-7.9,5.1-13.9,6.1l-75.2,11.3ZM653.6,270.5c-8.3,0-15.2,2.6-20.7,7.7-5.5,5.1-8.7,12.5-9.7,22.1l55.3-9c-.4-5-2.6-9.7-6.7-14.2-4.1-4.4-10.1-6.7-18.2-6.7ZM786.4,347c3.5,2.4,8.3,3.6,14.5,3.6s6-.3,9.3-1c3.3-.7,6.1-1.5,8.4-2.5,1.7,1.9,3.2,4.1,4.3,6.7,1.2,2.5,1.7,5.4,1.7,8.7,0,6.8-2.7,12.3-8,16.6-5.3,4.3-14.5,6.5-27.6,6.5s-28.8-3.7-37.9-11.1c-9.1-7.4-13.6-19.5-13.6-36.3v-129.9c2.1-.6,4.9-1.2,8.4-1.9,3.5-.7,7.2-1,11.3-1,8.5,0,14.6,1.5,18.4,4.5,3.8,3,5.6,8.4,5.6,16.3v18.8h39.9c1,1.9,1.9,4.4,2.9,7.4,1,3,1.4,6.1,1.4,9.4,0,6.2-1.4,10.6-4.2,13.3-2.8,2.7-6.4,4.1-10.8,4.1h-29.2v56.1c0,5.4,1.7,9.3,5.2,11.7Z"/>
</svg>